{
.appVersion = "3124";
classes = (
{
code = "zero one two three four five six seven eight nine";
name = figs.default;
}
);
copyright = "©2022 Ariel Martín Pérez";
customParameters = (
{
name = license;
value = "SIL Open Font License v1.1";
},
{
name = licenseURL;
value = "http://scripts.sil.org/OFL";
}
);
date = "2020-09-21 08:55:59 +0000";
designer = "Ariel Martín Pérez";
designerURL = www.appliedmetaprojects.com;
familyName = Sligoil;
featurePrefixes = (
{
automatic = 1;
code = "languagesystem DFLT dflt;\012\012languagesystem latn dflt;\012languagesystem latn AZE;\012languagesystem latn CRT;\012languagesystem latn KAZ;\012languagesystem latn TAT;\012languagesystem latn TRK;\012languagesystem latn ROM;\012languagesystem latn MOL;\012languagesystem latn PLK;\012languagesystem latn CAT;\012";
name = Languagesystems;
}
);
features = (
{
automatic = 1;
code = "feature calt;\012feature locl;\012feature salt;\012feature ss01;\012feature ss02;\012feature ss03;\012feature ss04;\012";
name = aalt;
},
{
code = "sub @figs.default colon' @figs.default by colon.salt;";
name = calt;
},
{
automatic = 1;
code = "lookup ccmp_Other_1 {\012	@CombiningTopAccents = [acutecomb brevecomb caroncomb circumflexcomb commaturnedabovecomb dieresiscomb dotaccentcomb gravecomb hungarumlautcomb macroncomb ringcomb tildecomb];\012	@CombiningNonTopAccents = [cedillacomb ogonekcomb];\012	sub [i j]' @CombiningTopAccents by [idotless jdotless];\012	sub [i j]' @CombiningNonTopAccents @CombiningTopAccents by [idotless jdotless];\012} ccmp_Other_1;\012";
name = ccmp;
},
{
automatic = 1;

glyphs = (
{
color = 4;
glyphname = A;
lastChange = "2022-04-19 08:20:07 +0000";
layers = (
{
associatedMasterId = "4C71D2F8-8800-4A35-9F40-3E8E498F68F0";
backgroundImage = {
imagePath = A.jpg;
locked = "1";
transform = "{6.16761, 0, 0, 6.16761, 0, -55}";
};
layerId = "07653F99-E010-4C6A-A192-CA449B490094";
name = "Sep 21 20, 12:02";
paths = (
{
closed = 1;
nodes = (
"516 0 LINE",
"350 700 LINE",
"270 700 LINE",
"405 0 LINE"
);
},
{
closed = 1;
nodes = (
"135 0 LINE",
"270 700 LINE",
"190 700 LINE",
"35 0 LINE"
);
},
{
closed = 1;
nodes = (
"425 225 LINE",
"425 295 LINE",
"145 295 LINE",
"145 225 LINE"
);
},
{
closed = 1;
nodes = (
"305 630 LINE",
"305 700 LINE",
"225 700 LINE",
"225 630 LINE"
);
}
);
width = 550;
},
{
associatedMasterId = "4C71D2F8-8800-4A35-9F40-3E8E498F68F0";
backgroundImage = {
imagePath = A.jpg;
locked = "1";
transform = "{6.16761, 0, 0, 6.16761, 0, -55}";
};
layerId = "AEEB3E96-5E02-4CC0-9283-CFA02F1C79DB";
name = "Sep 21 20, 12:03";
paths = (
{
closed = 1;
nodes = (
"515 0 LINE",
"370 700 LINE",
"280 700 LINE",
"405 0 LINE"
);
},
{
closed = 1;
nodes = (
"135 0 LINE",
"250 700 LINE",
"160 700 LINE",
"35 0 LINE"
);
},
{
closed = 1;
nodes = (
"425 225 LINE",
"425 295 LINE",
"145 295 LINE",
"145 225 LINE"
);
},
{
closed = 1;
nodes = (
"305 630 LINE",
"305 700 LINE",
"225 700 LINE",
"225 630 LINE"
);
}
);
width = 550;
},
{
associatedMasterId = "4C71D2F8-8800-4A35-9F40-3E8E498F68F0";
backgroundImage = {
imagePath = A.jpg;
locked = "1";
transform = "{6.16761, 0, 0, 6.16761, 0, -55}";
};
layerId = "946E7C7E-120F-4EA6-9F1D-4A855B1D225D";
name = "Sep 21 20, 12:06";
paths = (
{
closed = 1;
nodes = (
"520 0 LINE",
"380 700 LINE",
"300 700 LINE",
"410 0 LINE"
);
},
{
closed = 1;
nodes = (
"135 0 LINE",
"250 700 LINE",
"170 700 LINE",
"35 0 LINE"
);
},
{
closed = 1;
nodes = (
"425 225 LINE",
"425 295 LINE",
"145 295 LINE",
"145 225 LINE"
);
},
{
closed = 1;
nodes = (
"345 630 LINE",
"345 700 LINE",
"190 700 LINE",
"190 630 LINE"
);
}
);
width = 550;
},
{
associatedMasterId = "4C71D2F8-8800-4A35-9F40-3E8E498F68F0";
backgroundImage = {
imagePath = NEW/A.jpg;
locked = "1";
transform = "{6.16768, 0, 0, 6.16768, 25, -62}";
};
layerId = "A2D79E2D-881B-45B1-84F9-E0A938361793";
name = "Oct 8 20, 15:00";
paths = (
{
closed = 1;
nodes = (
"437 265 LINE",
"152 265 LINE",
"152 195 LINE",
"437 195 LINE"
);
},
{
closed = 1;
nodes = (
"160 0 LINE",
"291 674 LINE",
"237 630 LINE",
"357 630 LINE",
"303 674 LINE",
"435 0 LINE",
"535 0 LINE",
"369 700 LINE",
"225 700 LINE",
"65 0 LINE"
);
}
);
width = 600;
},
{
anchors = (
{
name = bottom;
position = "{300, 0}";
},
{
name = ogonek;
position = "{540, 10}";
},
{
name = top;
position = "{300, 700}";
}
);
associatedMasterId = "4C71D2F8-8800-4A35-9F40-3E8E498F68F0";
guideLines = (
{
position = "{315, 395}";
},
{
position = "{315, 65}";
}
);
layerId = "588A191F-62C1-44E7-89D4-DDFDC490DC7E";
name = "Dec 17 20, 18:00";
paths = (
{
closed = 1;
nodes = (
"137 0 LINE",
"152 65 LINE",
"176 195 LINE",
"190 266 LINE",
"228 395 LINE",
"282 630 LINE",
"312 630 LINE",
"367 395 LINE",
"404 264 LINE",
"419 195 LINE",
"443 65 LINE",
"458 0 LINE",
"555 0 LINE",
"369 700 LINE",
"225 700 LINE",
"45 0 LINE"
);
},
{
closed = 1;
nodes = (
"437 195 LINE",
"437 265 LINE",
"152 265 LINE",
"152 195 LINE"
);
}
);
width = 600;
},
{
anchors = (
{
name = bottom;
position = "{300, 0}";
},
{
name = ogonek;
position = "{540, 10}";
},
{
name = top;
position = "{300, 700}";
}
);
associatedMasterId = "4C71D2F8-8800-4A35-9F40-3E8E498F68F0";
guideLines = (
{
position = "{315, 395}";
},
{
position = "{315, 65}";
}
);
layerId = "5DDD6760-D6F2-461C-8A04-2D09E046E63C";
name = "Dec 17 20, 18:01";
paths = (
{
closed = 1;
nodes = (
"137 0 LINE",
"152 65 LINE",
"176 195 LINE",
"190 266 LINE",
"218 351 LINE",
"282 630 LINE",
"312 630 LINE",
"377 351 LINE",
"404 264 LINE",
"419 195 LINE",
"443 65 LINE",
"458 0 LINE",
"555 0 LINE",
"369 700 LINE",
"225 700 LINE",
"45 0 LINE"
);
},
{
closed = 1;
nodes = (
"437 195 LINE",
"437 265 LINE",
"152 265 LINE",
"152 195 LINE"
);
}
);
width = 600;
},
{
anchors = (
{
name = bottom;
position = "{300, 0}";
},
{
name = ogonek;
position = "{555, 0}";
},
{
name = top;
position = "{300, 700}";
}
);
guideLines = (
{
position = "{365, 110}";
},
{
position = "{137, 195}";
},
{
position = "{137, 265}";
},
{
position = "{315, 350}";
}
);
layerId = "4C71D2F8-8800-4A35-9F40-3E8E498F68F0";
paths = (
{
closed = 1;
nodes = (
"137 0 LINE",
"162 110 LINE",
"177 195 LINE",
"192 265 LINE",
"218 350 LINE",
"282 630 LINE",
"312 630 LINE",
"377 350 LINE",
"403 265 LINE",
"418 195 LINE",
"433 110 LINE",
"458 0 LINE",
"555 0 LINE",
"369 700 LINE",
"225 700 LINE",
"45 0 LINE"
);
},
{
closed = 1;
nodes = (
"437 195 LINE",
"437 265 LINE",
"152 265 LINE",
"152 195 LINE"
);
}
);
width = 600;
}
);
unicode = 0041;
},
{
color = 4;
glyphname = AE;
lastChange = "2022-04-19 08:20:07 +0000";
layers = (
{
guideLines = (
{
position = "{37, 110}";
},
{
position = "{87, 350}";
}
);
layerId = "4C71D2F8-8800-4A35-9F40-3E8E498F68F0";
paths = (
{
closed = 1;
nodes = (
"117 0 LINE",
"139 110 LINE",
"151 194 LINE",
"165 265 LINE",
"187 350 LINE",
"242 630 LINE",
"381 630 LINE",
"381 700 LINE",
"185 700 LINE",
"25 0 LINE"
);
},
{
closed = 1;
nodes = (
"394 0 LINE",
"394 60 LINE",
"400 165 LINE",
"400 215 LINE",
"315 195 LINE",
"310 110 LINE",
"310 0 LINE"
);
},
{
closed = 1;
nodes = (
"337 195 LINE",
"337 265 LINE",
"132 265 LINE",
"132 195 LINE"
);
},
{
closed = 1;
nodes = (
"575 0 LINE",
"575 75 LINE",
"345 75 LINE",
"345 0 LINE"
);
},
{
closed = 1;
nodes = (
"400 210 LINE",
"400 230 LINE",
"394 335 LINE",
"394 395 LINE",
"310 395 LINE",
"310 350 LINE",
"315 265 LINE",
"315 195 LINE"
);
},
{
closed = 1;
nodes = (
"394 385 LINE",
"400 490 LINE",
"400 510 LINE",
"310 510 LINE",
"310 350 LINE",
"394 325 LINE"
);
},
{
closed = 1;
nodes = (
"555 325 LINE",
"555 395 LINE",
"345 395 LINE",
"345 325 LINE"
);
},
{
closed = 1;
nodes = (
"400 495 LINE",
"400 535 LINE",
"394 640 LINE",
"394 700 LINE",
"310 700 LINE",
"316 640 LINE",
"310 535 LINE",
"310 495 LINE"
);
},
{
closed = 1;
nodes = (
"565 630 LINE",
"565 700 LINE",
"345 700 LINE",
"345 630 LINE"
);
}
);
width = 600;
},
{
associatedMasterId = "4C71D2F8-8800-4A35-9F40-3E8E498F68F0";
layerId = "20100067-F7D7-406D-B2C6-DFFD182EEC2A";
name = "Jan 3 21, 21:41";
paths = (
{
closed = 1;
nodes = (
"575 0 LINE",
"575 75 LINE",
"335 75 LINE",
"335 0 LINE"
);
},
{
closed = 1;
nodes = (
"384 0 LINE",
"384 60 LINE",
"390 165 LINE",
"390 215 LINE",
"300 215 LINE",
"300 0 LINE"
);
},
{
closed = 1;
nodes = (
"390 210 LINE",
"390 230 LINE",
"384 335 LINE",
"384 395 LINE",
"300 395 LINE",
"300 210 LINE"
);
},
{
closed = 1;
nodes = (
"384 325 LINE",
"384 385 LINE",
"390 490 LINE",
"390 510 LINE",
"300 510 LINE",
"300 325 LINE"
);
},
{
closed = 1;
nodes = (
"535 325 LINE",
"535 395 LINE",
"335 395 LINE",
"335 325 LINE"
);
},
{
closed = 1;
nodes = (
"390 495 LINE",
"390 535 LINE",
"384 640 LINE",
"384 700 LINE",
"300 700 LINE",
"300 495 LINE"
);
},
{
closed = 1;
nodes = (
"565 630 LINE",
"565 700 LINE",
"335 700 LINE",
"335 630 LINE"
);
},
{
closed = 1;
nodes = (
"327 265 LINE",
"132 265 LINE",
"132 195 LINE",
"327 195 LINE"
);
},
{
closed = 1;
nodes = (
"205 700 LINE",
"25 0 LINE",
"117 0 LINE",
"142 110 LINE",
"157 195 LINE",
"172 265 LINE",
"198 350 LINE",
"262 630 LINE",
"371 630 LINE",
"371 700 LINE"
);
}
);
width = 600;
}
);
unicode = 00C6;
},
{
color = 4;
glyphname = B;
lastChange = "2022-04-19 08:20:07 +0000";
layers = (
{
anchors = (
{
name = bottom;
position = "{300, 0}";
},
{
name = top;
position = "{300, 700}";
}
);
guideLines = (
{
angle = 90;
position = "{296, 355}";
}
);
layerId = "4C71D2F8-8800-4A35-9F40-3E8E498F68F0";
paths = (
{
closed = 1;
nodes = (
"310 0 LINE SMOOTH",
"463 0 OFFCURVE",
"535 107 OFFCURVE",
"535 211 CURVE SMOOTH",
"535 294 OFFCURVE",
"480 375 OFFCURVE",
"377 375 CURVE",
"377 405 LINE",
"447 405 OFFCURVE",
"490 463 OFFCURVE",
"490 535 CURVE SMOOTH",
"490 614 OFFCURVE",
"439 700 OFFCURVE",
"344 700 CURVE SMOOTH",
"120 700 LINE",
"120 630 LINE",
"310 630 LINE SMOOTH",
"370 630 OFFCURVE",
"400 584 OFFCURVE",
"400 535 CURVE SMOOTH",
"400 481 OFFCURVE",
"363 425 OFFCURVE",
"285 425 CURVE SMOOTH",
"120 425 LINE",
"120 355 LINE",
"285 355 LINE SMOOTH",
"393 355 OFFCURVE",
"445 285 OFFCURVE",
"445 211 CURVE SMOOTH",
"445 142 OFFCURVE",
"399 69 OFFCURVE",
"285 70 CURVE SMOOTH",
"120 71 LINE",
"120 0 LINE"
);
},
{
closed = 1;
nodes = (
"174 0 LINE",
"174 60 LINE",
"180 165 LINE",
"180 205 LINE",
"90 205 LINE",
"90 0 LINE"
);
},
{
closed = 1;
nodes = (
"180 200 LINE",
"180 260 LINE",
"174 365 LINE",
"174 425 LINE",
"90 425 LINE",
"90 200 LINE"
);
},
{
closed = 1;
nodes = (
"174 355 LINE",
"174 415 LINE",
"180 520 LINE",
"180 530 LINE",
"90 530 LINE",
"90 355 LINE"
);
},
{
closed = 1;
nodes = (
"180 525 LINE",
"180 535 LINE",
"174 640 LINE",
"174 700 LINE",
"90 700 LINE",
"90 525 LINE"
);
}
);
width = 600;
},
{
associatedMasterId = "4C71D2F8-8800-4A35-9F40-3E8E498F68F0";
backgroundImage = {
imagePath = BP.jpg;
locked = "1";
transform = "{6.16395, 0, 0, 6.16395, 30, -57}";
};
guideLines = (
{
position = "{40, 435}";
}
);
layerId = "3B2599D4-83E0-4CBF-B511-D685A0EC0906";
name = "Sep 21 20, 11:22";
paths = (
{
closed = 1;
nodes = (
"60 0 LINE",
"150 0 LINE",
"150 700 LINE",
"60 700 LINE"
);
},
{
closed = 1;
nodes = (
"100 0 LINE",
"241 0 LINE SMOOTH",
"383 0 OFFCURVE",
"507 88 OFFCURVE",
"507 221 CURVE SMOOTH",
"507 322 OFFCURVE",
"436 390 OFFCURVE",
"330 390 CURVE",
"330 410 LINE",
"430 410 OFFCURVE",
"497 472 OFFCURVE",
"497 566 CURVE SMOOTH",
"497 646 OFFCURVE",
"440 700 OFFCURVE",
"291 700 CURVE SMOOTH",
"100 700 LINE",
"100 630 LINE",
"291 630 LINE SMOOTH",
"387 630 OFFCURVE",
"417 593 OFFCURVE",
"417 555 CURVE SMOOTH",
"417 483 OFFCURVE",
"337 435 OFFCURVE",
"218 435 CURVE SMOOTH",
"100 435 LINE",
"100 365 LINE",
"218 365 LINE SMOOTH",
"343 365 OFFCURVE",
"427 307 OFFCURVE",
"427 221 CURVE SMOOTH",
"427 129 OFFCURVE",
"332 69 OFFCURVE",
"210 70 CURVE SMOOTH",
"100 71 LINE"
);
}
);
width = 600;
},
{
associatedMasterId = "4C71D2F8-8800-4A35-9F40-3E8E498F68F0";
backgroundImage = {
imagePath = BP.jpg;
locked = "1";
transform = "{6.16395, 0, 0, 6.16395, 30, -57}";
};
guideLines = (
{
position = "{40, 435}";
}
);
layerId = "6A9E72B8-3603-4FBC-88E7-8446777BBDAD";
name = "Sep 21 20, 11:24";
paths = (
{
closed = 1;
nodes = (
"60 0 LINE",
"150 0 LINE",
"150 700 LINE",
"60 700 LINE"
);
},
{
closed = 1;
nodes = (
"100 0 LINE",
"259 0 LINE SMOOTH",
"401 0 OFFCURVE",
"525 88 OFFCURVE",
"525 221 CURVE SMOOTH",
"525 322 OFFCURVE",
"454 390 OFFCURVE",
"348 390 CURVE",
"348 410 LINE",
"436 410 OFFCURVE",
"495 478 OFFCURVE",
"495 565 CURVE SMOOTH",
"495 645 OFFCURVE",
"438 700 OFFCURVE",
"289 700 CURVE SMOOTH",
"100 700 LINE",
"100 630 LINE",
"289 630 LINE SMOOTH",
"390 630 OFFCURVE",
"415 600 OFFCURVE",
"415 555 CURVE SMOOTH",
"415 483 OFFCURVE",
"343 435 OFFCURVE",
"236 435 CURVE SMOOTH",
"100 435 LINE",
"100 365 LINE",
"236 365 LINE SMOOTH",
"361 365 OFFCURVE",
"445 307 OFFCURVE",
"445 221 CURVE SMOOTH",
"445 129 OFFCURVE",
"350 69 OFFCURVE",
"228 70 CURVE SMOOTH",
"100 71 LINE"
);
}
);
width = 560;
},
{
associatedMasterId = "4C71D2F8-8800-4A35-9F40-3E8E498F68F0";
guideLines = (
{
position = "{35, 435}";
}
);
layerId = "9B5F055C-4039-4AF9-9759-47513C1B410E";
name = "Sep 21 20, 11:28";
paths = (
{
closed = 1;
nodes = (
"55 0 LINE",
"145 0 LINE",
"145 700 LINE",
"55 700 LINE"
);
},
{
closed = 1;
nodes = (
"95 0 LINE",
"249 0 LINE SMOOTH",
"391 0 OFFCURVE",
"525 88 OFFCURVE",
"525 221 CURVE SMOOTH",
"525 322 OFFCURVE",
"444 390 OFFCURVE",
"338 390 CURVE",
"338 410 LINE",
"426 410 OFFCURVE",
"495 478 OFFCURVE",
"495 565 CURVE SMOOTH",
"495 646 OFFCURVE",
"440 700 OFFCURVE",
"299 700 CURVE SMOOTH",
"95 700 LINE",
"95 630 LINE",
"279 630 LINE SMOOTH",
"380 630 OFFCURVE",
"405 600 OFFCURVE",
"405 555 CURVE SMOOTH",
"405 483 OFFCURVE",
"333 435 OFFCURVE",
"226 435 CURVE SMOOTH",
"95 435 LINE",
"95 365 LINE",
"226 365 LINE SMOOTH",
"351 365 OFFCURVE",
"435 307 OFFCURVE",
"435 221 CURVE SMOOTH",
"435 129 OFFCURVE",
"340 69 OFFCURVE",
"218 70 CURVE SMOOTH",
"95 71 LINE"
);
}
);
width = 550;
},
{
associatedMasterId = "4C71D2F8-8800-4A35-9F40-3E8E498F68F0";
guideLines = (
{
position = "{35, 435}";
}
);
layerId = "55315444-ADB2-4772-81B8-54258FE0DC91";
name = "Sep 21 20, 11:55";
paths = (
{
closed = 1;
nodes = (
"55 0 LINE",
"145 0 LINE",
"145 700 LINE",
"55 700 LINE"
);
},
{
closed = 1;
nodes = (
"95 0 LINE",
"294 0 LINE SMOOTH",
"436 0 OFFCURVE",
"520 88 OFFCURVE",
"520 221 CURVE SMOOTH",
"520 325 OFFCURVE",
"470 395 OFFCURVE",
"363 395 CURVE",
"363 415 LINE",
"439 415 OFFCURVE",
"490 472 OFFCURVE",
"490 558 CURVE SMOOTH",
"490 643 OFFCURVE",
"432 700 OFFCURVE",
"344 700 CURVE SMOOTH",
"95 700 LINE",
"95 630 LINE",
"328 630 LINE SMOOTH",
"380 630 OFFCURVE",
"410 601 OFFCURVE",
"410 558 CURVE SMOOTH",
"410 505 OFFCURVE",
"361 435 OFFCURVE",
"271 435 CURVE SMOOTH",
"95 435 LINE",
"95 365 LINE",
"271 365 LINE SMOOTH",
"396 365 OFFCURVE",
"430 307 OFFCURVE",
"430 221 CURVE SMOOTH",
"430 129 OFFCURVE",
"385 69 OFFCURVE",
"263 70 CURVE SMOOTH",
"95 71 LINE"
);
}
);
width = 550;
},
{
associatedMasterId = "4C71D2F8-8800-4A35-9F40-3E8E498F68F0";
guideLines = (
{
position = "{120, 395}";
}
);
layerId = "7D320962-661E-4724-8A1F-B521173A3128";
name = "Oct 6 20, 17:53";
paths = (
{
closed = 1;
nodes = (
"80 0 LINE",
"170 0 LINE",
"170 700 LINE",
"80 700 LINE"
);
},
{
closed = 1;
nodes = (
"120 0 LINE",
"319 0 LINE SMOOTH",
"461 0 OFFCURVE",
"545 88 OFFCURVE",
"545 221 CURVE SMOOTH",
"545 325 OFFCURVE",
"495 395 OFFCURVE",
"388 395 CURVE",
"388 415 LINE",
"453 415 OFFCURVE",
"495 488 OFFCURVE",
"495 560 CURVE SMOOTH",
"495 630 OFFCURVE",
"455 700 OFFCURVE",
"355 700 CURVE SMOOTH",
"120 700 LINE",
"120 630 LINE",
"323 630 LINE SMOOTH",
"384 630 OFFCURVE",
"410 592 OFFCURVE",
"410 550 CURVE SMOOTH",
"410 496 OFFCURVE",
"367 435 OFFCURVE",
"296 435 CURVE SMOOTH",
"120 435 LINE",
"120 365 LINE",
"296 365 LINE SMOOTH",
"421 365 OFFCURVE",
"455 307 OFFCURVE",
"455 221 CURVE SMOOTH",
"455 129 OFFCURVE",
"410 69 OFFCURVE",
"288 70 CURVE SMOOTH",
"120 71 LINE"
);
}
);
width = 600;
},
{
associatedMasterId = "4C71D2F8-8800-4A35-9F40-3E8E498F68F0";
guideLines = (
{
position = "{120, 395}";
}
);
layerId = "051D1D48-A1D6-4FC2-B58B-F69F851CD879";
name = "Oct 6 20, 17:55";
paths = (
{
closed = 1;
nodes = (
"80 0 LINE",
"170 0 LINE",
"170 700 LINE",
"80 700 LINE"
);
},
{
closed = 1;
nodes = (
"120 0 LINE",
"319 0 LINE SMOOTH",
"461 0 OFFCURVE",
"545 88 OFFCURVE",
"545 221 CURVE SMOOTH",
"545 313 OFFCURVE",
"482 375 OFFCURVE",
"388 375 CURVE",
"388 395 LINE",
"458 395 OFFCURVE",
"501 464 OFFCURVE",
"501 536 CURVE SMOOTH",
"501 616 OFFCURVE",
"450 700 OFFCURVE",
"355 700 CURVE SMOOTH",
"120 700 LINE",
"120 630 LINE",
"323 630 LINE SMOOTH",
"381 630 OFFCURVE",
"411 584 OFFCURVE",
"411 535 CURVE SMOOTH",
"411 481 OFFCURVE",
"374 425 OFFCURVE",
"296 425 CURVE SMOOTH",
"120 425 LINE",
"120 355 LINE",
"296 355 LINE SMOOTH",
"391 355 OFFCURVE",
"455 301 OFFCURVE",
"455 221 CURVE SMOOTH",
"455 129 OFFCURVE",
"410 69 OFFCURVE",
"288 70 CURVE SMOOTH",
"120 71 LINE"
);
}
);
width = 600;
}
);
unicode = 0042;
},
{
color = 4;
glyphname = C;
lastChange = "2022-04-19 08:20:07 +0000";
layers = (
{
anchors = (
{
name = bottom;
position = "{310, 0}";
},
{
name = top;
position = "{310, 700}";
}
);
guideLines = (
{
position = "{-30, 320}";
},
{
position = "{300, 710}";
},
{
position = "{300, -10}";
}
);
layerId = "4C71D2F8-8800-4A35-9F40-3E8E498F68F0";
paths = (
{
closed = 1;
nodes = (
"453 -10 OFFCURVE",
"525 76 OFFCURVE",
"525 270 CURVE",
"433 270 LINE",
"433 127 OFFCURVE",
"404 65 OFFCURVE",
"310 65 CURVE",
"310 -10 LINE"
);
},
{
closed = 1;
nodes = (
"75 85 OFFCURVE",
"161 -10 OFFCURVE",
"310 -10 CURVE",
"310 65 LINE",
"210 65 OFFCURVE",
"167 135 OFFCURVE",
"167 350 CURVE SMOOTH",
"167 565 OFFCURVE",
"210 640 OFFCURVE",
"310 640 CURVE SMOOTH",
"404 640 OFFCURVE",
"431 573 OFFCURVE",
"431 472 CURVE",
"523 472 LINE",
"523 624 OFFCURVE",
"453 710 OFFCURVE",
"310 710 CURVE SMOOTH",
"161 710 OFFCURVE",
"75 615 OFFCURVE",
"75 350 CURVE SMOOTH"
);
}
);
width = 600;
},
{
associatedMasterId = "4C71D2F8-8800-4A35-9F40-3E8E498F68F0";
layerId = "E7E97878-12D3-4366-AC39-72C8BC2E33E6";
name = "Sep 22 20, 14:11";
paths = (
{
closed = 1;
nodes = (
"40 91 OFFCURVE",
"106 -10 OFFCURVE",
"275 -10 CURVE SMOOTH",
"446 -10 OFFCURVE",
"500 114 OFFCURVE",
"500 300 CURVE",
"405 300 LINE",
"405 152 OFFCURVE",
"379 53 OFFCURVE",
"275 53 CURVE SMOOTH",
"174 53 OFFCURVE",
"135 136 OFFCURVE",
"135 350 CURVE",
"40 350 LINE"
);
},
{
closed = 1;
nodes = (
"493 637 OFFCURVE",
"416 710 OFFCURVE",
"275 710 CURVE SMOOTH",
"106 710 OFFCURVE",
"40 609 OFFCURVE",
"40 350 CURVE",
"135 350 LINE",
"135 564 OFFCURVE",
"174 647 OFFCURVE",
"275 647 CURVE SMOOTH",
"353 647 OFFCURVE",
"402 592 OFFCURVE",
"403 438 CURVE",
"497 438 LINE"
);
}
);
width = 550;
},
{
associatedMasterId = "4C71D2F8-8800-4A35-9F40-3E8E498F68F0";
guideLines = (
{
position = "{-32, 438}";
},
{
position = "{-30, 320}";
},
{
position = "{440, 710}";
}
);
layerId = "6639C485-53E9-4C97-B783-B674C929152C";
name = "Sep 26 20, 12:55";
paths = (
{
closed = 1;
nodes = (
"300 718 LINE",
"100 718 OFFCURVE",
"67 582 OFFCURVE",
"67 350 CURVE",
"163 350 LINE",
"163 521 OFFCURVE",
"168 648 OFFCURVE",
"300 648 CURVE"
);
},
{
closed = 1;
nodes = (
"528 632 OFFCURVE",
"459 718 OFFCURVE",
"300 718 CURVE",
"300 648 LINE",
"396 648 OFFCURVE",
"433 581 OFFCURVE",
"433 480 CURVE",
"528 480 LINE"
);
},
{
closed = 1;
nodes = (
"168 52 OFFCURVE",
"163 179 OFFCURVE",
"163 350 CURVE",
"67 350 LINE",
"67 118 OFFCURVE",
"100 -18 OFFCURVE",
"300 -18 CURVE",
"300 52 LINE"
);
},
{
closed = 1;
nodes = (
"433 220 LINE",
"433 119 OFFCURVE",
"396 52 OFFCURVE",
"300 52 CURVE",
"300 -18 LINE",
"459 -18 OFFCURVE",
"528 68 OFFCURVE",
"528 220 CURVE"
);
}
);
width = 600;
},
{
annotations = (
{
position = "{279.83, 360.831}";
text = "too wide ??";
type = Text;
}
);
associatedMasterId = "4C71D2F8-8800-4A35-9F40-3E8E498F68F0";
guideLines = (
{
position = "{-30, 320}";
},
{
position = "{300, 710}";
},
{
position = "{300, -10}";
}
);
layerId = "1234FF6F-3455-4353-8B32-59B7D74E135C";
name = "Oct 16 20, 18:47";
paths = (
{
closed = 1;
nodes = (
"523 624 OFFCURVE",
"453 710 OFFCURVE",
"310 710 CURVE",
"310 640 LINE",
"404 640 OFFCURVE",
"431 573 OFFCURVE",
"431 472 CURVE",
"523 472 LINE"
);
},
{
closed = 1;
nodes = (
"433 270 LINE",
"433 127 OFFCURVE",
"404 65 OFFCURVE",
"310 65 CURVE",
"310 -10 LINE",
"453 -10 OFFCURVE",
"525 76 OFFCURVE",
"525 270 CURVE"
);
},
{
closed = 1;
nodes = (
"310 710 LINE",
"161 710 OFFCURVE",
"75 615 OFFCURVE",
"75 350 CURVE",
"167 350 LINE",
"167 565 OFFCURVE",
"210 640 OFFCURVE",
"310 640 CURVE"
);
},
{
closed = 1;
nodes = (
"210 65 OFFCURVE",
"167 135 OFFCURVE",
"167 350 CURVE",
"75 350 LINE",
"75 85 OFFCURVE",
"161 -10 OFFCURVE",
"310 -10 CURVE",
"310 65 LINE"
);
}
);
width = 600;
}
);
unicode = 0043;
},
{
color = 4;
glyphname = D;
lastChange = "2022-04-19 08:20:07 +0000";
layers = (
{
anchors = (
{
name = bottom;
position = "{300, 0}";
},
{
name = center;
position = "{300, 350}";
},
{
name = top;
position = "{300, 700}";
}
);
layerId = "4C71D2F8-8800-4A35-9F40-3E8E498F68F0";
paths = (
{
closed = 1;
nodes = (
"265 0 LINE SMOOTH",
"421 0 OFFCURVE",
"525 150 OFFCURVE",
"525 376 CURVE SMOOTH",
"525 570 OFFCURVE",
"421 700 OFFCURVE",
"265 700 CURVE SMOOTH",
"85 700 LINE",
"85 0 LINE"
);
},
{
closed = 1;
nodes = (
"175 165 LINE",
"175 535 LINE",
"169 630 LINE",
"265 630 LINE SMOOTH",
"366 630 OFFCURVE",
"434 528 OFFCURVE",
"434 376 CURVE SMOOTH",
"434 192 OFFCURVE",
"366 70 OFFCURVE",
"265 70 CURVE SMOOTH",
"169 70 LINE"
);
}
);
width = 600;
},
{
associatedMasterId = "4C71D2F8-8800-4A35-9F40-3E8E498F68F0";
layerId = "6970BF16-033B-4474-AE3A-609EE645FE21";
name = "Sep 22 20, 14:58";
paths = (
{
closed = 1;
nodes = (
"55 0 LINE",
"145 0 LINE",
"145 700 LINE",
"55 700 LINE"
);
},
{
closed = 1;
nodes = (
"464 630 OFFCURVE",
"430 475 OFFCURVE",
"430 221 CURVE SMOOTH",
"430 129 OFFCURVE",
"385 69 OFFCURVE",
"263 70 CURVE SMOOTH",
"95 71 LINE",
"95 0 LINE",
"294 0 LINE SMOOTH",
"436 0 OFFCURVE",
"520 88 OFFCURVE",
"520 221 CURVE SMOOTH",
"520 508 OFFCURVE",
"518 700 OFFCURVE",
"263 700 CURVE",
"95 700 LINE",
"95 630 LINE",
"263 630 LINE"
);
}
);
width = 550;
}
);
unicode = 0044;
},
{
color = 4;
glyphname = Eth;
lastChange = "2022-04-19 08:20:07 +0000";
layers = (
{
layerId = "4C71D2F8-8800-4A35-9F40-3E8E498F68F0";
paths = (
{
closed = 1;
nodes = (
"286 0 LINE",
"442 0 OFFCURVE",
"546 150 OFFCURVE",
"546 376 CURVE SMOOTH",
"546 570 OFFCURVE",
"442 700 OFFCURVE",
"286 700 CURVE",
"158 700 LINE",
"158 630 LINE",
"286 630 LINE",
"387 630 OFFCURVE",
"455 528 OFFCURVE",
"455 376 CURVE SMOOTH",
"455 192 OFFCURVE",
"387 70 OFFCURVE",
"286 70 CURVE",
"158 70 LINE",
"158 0 LINE"
);
},
{
closed = 1;
nodes = (
"192 0 LINE",
"192 60 LINE",
"198 165 LINE",
"198 215 LINE",
"192 315 LINE",
"192 385 LINE",
"198 485 LINE",
"198 535 LINE",
"192 640 LINE",
"192 700 LINE",
"108 700 LINE",
"108 485 LINE",
"114 385 LINE",
"114 315 LINE",
"108 215 LINE",
"108 0 LINE"
);
},
{
closed = 1;
nodes = (
"342 315 LINE",
"342 385 LINE",
"44 385 LINE",
"44 315 LINE"
);
}
);
width = 600;
}
);
unicode = 00D0;
},
{
color = 4;
glyphname = E;
lastChange = "2022-04-19 08:20:07 +0000";
layers = (
{
anchors = (
{
name = bottom;
position = "{290, 0}";
},
{
name = ogonek;
position = "{515, 0}";
},
{
name = top;
position = "{300, 700}";
},
{
name = topleft;
position = "{20, 700}";
}
);
guideLines = (
{
position = "{445, 395}";
}
);
layerId = "4C71D2F8-8800-4A35-9F40-3E8E498F68F0";
paths = (
{
closed = 1;
nodes = (
"515 0 LINE",
"515 75 LINE",
"174 75 LINE",
"180 165 LINE",
"180 230 LINE",
"174 325 LINE",
"445 325 LINE",
"445 395 LINE",
"174 395 LINE",
"180 490 LINE",
"180 535 LINE",
"174 630 LINE",
"515 630 LINE",
"515 700 LINE",
"90 700 LINE",
"90 0 LINE"
);
}
);
width = 600;
}
);
unicode = 0045;
},
{
color = 4;
glyphname = F;
lastChange = "2022-04-19 08:20:07 +0000";
layers = (
{
anchors = (
{
name = bottom;
position = "{300, 0}";
},
{
name = top;
position = "{300, 700}";
}
);
layerId = "4C71D2F8-8800-4A35-9F40-3E8E498F68F0";
paths = (
{
closed = 1;
nodes = (
"180 0 LINE",
"180 210 LINE",
"174 305 LINE",
"435 305 LINE",
"435 375 LINE",
"174 375 LINE",
"180 470 LINE",
"180 535 LINE",
"174 630 LINE",
"515 630 LINE",
"515 700 LINE",
"90 700 LINE",
"90 0 LINE"
);
}
);
width = 600;
}
);
unicode = 0046;
},
{
color = 4;
glyphname = G;
lastChange = "2022-04-19 08:20:29 +0000";
layers = (
{
anchors = (
{
name = bottom;
position = "{310, 0}";
},
{
name = top;
position = "{310, 700}";
}
);
guideLines = (
{
position = "{110, 275}";
}
);
layerId = "4C71D2F8-8800-4A35-9F40-3E8E498F68F0";
paths = (
{
closed = 1;
nodes = (
"440 -10 OFFCURVE",
"525 62 OFFCURVE",
"525 275 CURVE SMOOTH",
"525 345 LINE",
"267 345 LINE",
"267 275 LINE",
"437 275 LINE",
"431 190 LINE",
"431 117 OFFCURVE",
"383 65 OFFCURVE",
"310 65 CURVE",
"310 -10 LINE"
);
},
{
closed = 1;
nodes = (
"75 85 OFFCURVE",
"161 -10 OFFCURVE",
"310 -10 CURVE",
"310 65 LINE",
"210 65 OFFCURVE",
"167 135 OFFCURVE",
"167 350 CURVE SMOOTH",
"167 565 OFFCURVE",
"210 640 OFFCURVE",
"310 640 CURVE SMOOTH",
"404 640 OFFCURVE",
"431 573 OFFCURVE",
"431 472 CURVE",
"523 472 LINE",
"523 624 OFFCURVE",
"453 710 OFFCURVE",
"310 710 CURVE SMOOTH",
"161 710 OFFCURVE",
"75 615 OFFCURVE",
"75 350 CURVE SMOOTH"
);
}
);
width = 600;
},
{
associatedMasterId = "4C71D2F8-8800-4A35-9F40-3E8E498F68F0";
backgroundImage = {
imagePath = OLD/G.jpg;
locked = "1";
transform = "{6.1661, 0, 0, 6.1661, 0, -43}";
};
layerId = "999FC3EF-5AF3-4458-ADAA-D8CA6CDF4324";
name = "Sep 22 20, 14:43";
paths = (
{
closed = 1;
nodes = (
"40 134 OFFCURVE",
"89 -10 OFFCURVE",
"285 -10 CURVE SMOOTH",
"420 -10 OFFCURVE",
"500 67 OFFCURVE",
"500 310 CURVE",
"405 310 LINE",
"405 156 OFFCURVE",
"384 53 OFFCURVE",
"285 53 CURVE SMOOTH",
"195 53 OFFCURVE",
"135 112 OFFCURVE",
"135 350 CURVE",
"40 350 LINE"
);
},
{
closed = 1;
nodes = (
"493 637 OFFCURVE",
"416 710 OFFCURVE",
"275 710 CURVE SMOOTH",
"106 710 OFFCURVE",
"40 609 OFFCURVE",
"40 350 CURVE",
"135 350 LINE",
"135 564 OFFCURVE",
"174 647 OFFCURVE",
"275 647 CURVE SMOOTH",
"353 647 OFFCURVE",
"402 592 OFFCURVE",
"403 438 CURVE",
"497 438 LINE"
);
},
{
closed = 1;
nodes = (
"245 285 LINE",
"480 285 LINE",
"500 310 LINE",
"500 355 LINE",
"245 355 LINE"
);
}
);
width = 550;
},
{
associatedMasterId = "4C71D2F8-8800-4A35-9F40-3E8E498F68F0";
backgroundImage = {
imagePath = OLD/G.jpg;
locked = "1";
transform = "{6.1661, 0, 0, 6.1661, 0, -43}";
};
guideLines = (
{
position = "{270, 285}";
}
);
layerId = "EEB3A003-5C7D-497C-8871-5986B3C59997";
name = "Sep 26 20, 12:54";
paths = (
{
closed = 1;
nodes = (
"267 280 LINE",
"484 280 LINE",
"484 350 LINE",
"267 350 LINE"
);
},
{
closed = 1;
nodes = (
"300 718 LINE",
"100 718 OFFCURVE",
"67 582 OFFCURVE",
"67 350 CURVE",
"163 350 LINE",
"163 521 OFFCURVE",
"168 648 OFFCURVE",
"300 648 CURVE"
);
},
{
closed = 1;
nodes = (
"168 52 OFFCURVE",
"163 179 OFFCURVE",
"163 350 CURVE",
"67 350 LINE",
"67 118 OFFCURVE",
"100 -18 OFFCURVE",
"300 -18 CURVE",
"300 52 LINE"
);
},
{
closed = 1;
nodes = (
"513 632 OFFCURVE",
"459 718 OFFCURVE",
"300 718 CURVE",
"300 648 LINE",
"396 648 OFFCURVE",
"425 581 OFFCURVE",
"433 480 CURVE",
"528 480 LINE"
);
},
{
closed = 1;
nodes = (
"300 -18 LINE",
"500 -18 OFFCURVE",
"533 118 OFFCURVE",
"533 350 CURVE",
"437 350 LINE",
"437 179 OFFCURVE",
"432 52 OFFCURVE",
"300 52 CURVE"
);
}
);
width = 600;
},
{
associatedMasterId = "4C71D2F8-8800-4A35-9F40-3E8E498F68F0";
backgroundImage = {
imagePath = OLD/G.jpg;
locked = "1";
transform = "{6.1661, 0, 0, 6.1661, 0, -43}";
};
guideLines = (
{
position = "{270, 285}";
}
);
layerId = "A394172E-F457-4AC6-A89D-DCDD9F014529";
name = "Sep 29 20, 17:27";
paths = (
{
closed = 1;
nodes = (
"267 280 LINE",
"484 280 LINE",
"484 350 LINE",
"267 350 LINE"
);
},
{
closed = 1;
nodes = (
"300 718 LINE",
"100 718 OFFCURVE",
"67 582 OFFCURVE",
"67 350 CURVE",
"163 350 LINE",
"163 521 OFFCURVE",
"168 648 OFFCURVE",
"300 648 CURVE"
);
},
{
closed = 1;
nodes = (
"168 52 OFFCURVE",
"163 179 OFFCURVE",
"163 350 CURVE",
"67 350 LINE",
"67 118 OFFCURVE",
"100 -18 OFFCURVE",
"300 -18 CURVE",
"300 52 LINE"
);
},
{
closed = 1;
nodes = (
"528 632 OFFCURVE",
"459 718 OFFCURVE",
"300 718 CURVE",
"300 648 LINE",
"396 648 OFFCURVE",
"433 581 OFFCURVE",
"433 480 CURVE",
"528 480 LINE"
);
},
{
closed = 1;
nodes = (
"300 -18 LINE",
"500 -18 OFFCURVE",
"533 118 OFFCURVE",
"533 350 CURVE",
"437 350 LINE",
"437 179 OFFCURVE",
"432 52 OFFCURVE",
"300 52 CURVE"
);
}
);
width = 600;
},
{
associatedMasterId = "4C71D2F8-8800-4A35-9F40-3E8E498F68F0";
backgroundImage = {
imagePath = OLD/G.jpg;
locked = "1";
transform = "{6.1661, 0, 0, 6.1661, 0, -43}";
};
guideLines = (
{
position = "{120, 336}";
},
{
position = "{110, 345}";
}
);
layerId = "8453E915-0BD3-46C3-B0F3-21EF3764305B";
name = "Oct 8 20, 10:19";
paths = (
{
closed = 1;
nodes = (
"267 275 LINE",
"435 275 LINE",
"435 270 LINE",
"530 270 LINE",
"530 345 LINE",
"267 345 LINE"
);
},
{
closed = 1;
nodes = (
"310 710 LINE",
"118 710 OFFCURVE",
"70 574 OFFCURVE",
"70 350 CURVE",
"166 350 LINE",
"166 513 OFFCURVE",
"176 640 OFFCURVE",
"310 640 CURVE"
);
},
{
closed = 1;
nodes = (
"525 624 OFFCURVE",
"462 710 OFFCURVE",
"310 710 CURVE",
"310 640 LINE",
"408 640 OFFCURVE",
"430 573 OFFCURVE",
"430 472 CURVE",
"525 472 LINE"
);
},
{
closed = 1;
nodes = (
"176 60 OFFCURVE",
"166 187 OFFCURVE",
"166 350 CURVE",
"70 350 LINE",
"70 126 OFFCURVE",
"118 -10 OFFCURVE",
"310 -10 CURVE",
"310 60 LINE"
);
},
{
closed = 1;
nodes = (
"435 270 LINE",
"435 127 OFFCURVE",
"408 60 OFFCURVE",
"310 60 CURVE",
"310 -10 LINE",
"462 -10 OFFCURVE",
"530 76 OFFCURVE",
"530 270 CURVE"
);
}
);
width = 600;
},
{
anchors = (
{
name = bottom;
position = "{300, 0}";
},
{
name = top;
position = "{300, 700}";
}
);
associatedMasterId = "4C71D2F8-8800-4A35-9F40-3E8E498F68F0";
backgroundImage = {
imagePath = OLD/G.jpg;
locked = "1";
transform = "{6.1661, 0, 0, 6.1661, 0, -43}";
};
guideLines = (
{
position = "{110, 345}";
}
);
layerId = "9154BA87-3D14-4A82-8E8A-3FB568A2168C";
name = "Dec 16 20, 22:36";
paths = (
{
closed = 1;
nodes = (
"440 -10 OFFCURVE",
"525 62 OFFCURVE",
"525 280 CURVE SMOOTH",
"525 350 LINE",
"267 350 LINE",
"267 280 LINE",
"433 280 LINE",
"433 123 OFFCURVE",
"404 65 OFFCURVE",
"310 65 CURVE",
"310 -10 LINE"
);
}
);
width = 600;
}
);
unicode = 0047;
},
{
color = 4;
glyphname = H;
lastChange = "2022-04-19 08:20:07 +0000";
layers = (
{
anchors = (
{
name = bottom;
position = "{300, 0}";
},
{
name = center;
position = "{300, 350}";
},
{
name = top;
position = "{300, 700}";
},
{
name = topleft;
position = "{20, 700}";
}
);
guideLines = (
{
position = "{125, 325}";
}
);
layerId = "4C71D2F8-8800-4A35-9F40-3E8E498F68F0";
paths = (
{
closed = 1;
nodes = (
"520 0 LINE",
"520 700 LINE",
"430 700 LINE",
"430 500 LINE",
"436 395 LINE",
"436 325 LINE",
"430 220 LINE",
"430 0 LINE"
);
},
{
closed = 1;
nodes = (
"170 0 LINE",
"170 220 LINE",
"164 325 LINE",
"164 395 LINE",
"170 500 LINE",
"170 700 LINE",
"80 700 LINE",
"80 0 LINE"
);
},
{
closed = 1;
nodes = (
"480 325 LINE",
"480 395 LINE",
"120 395 LINE",
"120 325 LINE"
);
}
);
width = 600;
}
);
unicode = 0048;
},
{
color = 4;
glyphname = Hbar;
lastChange = "2022-04-19 08:20:07 +0000";
layers = (
{
layerId = "4C71D2F8-8800-4A35-9F40-3E8E498F68F0";
paths = (
{
closed = 1;
nodes = (
"520 0 LINE",
"520 490 LINE",
"514 540 LINE",
"514 610 LINE",
"520 660 LINE",
"520 700 LINE",
"430 700 LINE",
"430 660 LINE",
"436 610 LINE",
"436 540 LINE",
"430 490 LINE",
"430 460 LINE",
"436 395 LINE",
"436 325 LINE",
"430 220 LINE",
"430 0 LINE"
);
},
{
closed = 1;
nodes = (
"170 0 LINE",
"170 220 LINE",
"164 325 LINE",
"164 395 LINE",
"170 460 LINE",
"170 490 LINE",
"164 540 LINE",
"164 610 LINE",
"170 660 LINE",
"170 700 LINE",
"80 700 LINE",
"80 660 LINE",
"86 610 LINE",
"86 540 LINE",
"80 490 LINE",
"80 0 LINE"
);
},
{
closed = 1;
nodes = (
"480 325 LINE",
"480 395 LINE",
"120 395 LINE",
"120 325 LINE"
);
},
{
closed = 1;
nodes = (
"561 540 LINE",
"561 610 LINE",
"39 610 LINE",
"39 540 LINE"
);
}
);
width = 600;
}
);
unicode = 0126;
},
{
color = 4;
glyphname = I;
lastChange = "2022-04-19 08:20:07 +0000";
layers = (
{
anchors = (
{
name = bottom;
position = "{300, 0}";
},
{
name = ogonek;
position = "{500, 0}";
},
{
name = top;
position = "{300, 700}";
},
{
name = topleft;
position = "{20, 700}";
}
);
guideLines = (
{
angle = 90;
position = "{345, 268}";
}
);
layerId = "4C71D2F8-8800-4A35-9F40-3E8E498F68F0";
paths = (
{
closed = 1;
nodes = (
"500 0 LINE",
"500 75 LINE",
"339 75 LINE",
"345 176 LINE",
"345 524 LINE",
"339 629 LINE",
"339 630 LINE",
"500 630 LINE",
"500 700 LINE",
"100 700 LINE",
"100 630 LINE",
"261 630 LINE",
"261 629 LINE",
"255 524 LINE",
"255 176 LINE",
"261 75 LINE",
"100 75 LINE",
"100 0 LINE"
);
}
);
width = 600;
},
{
anchors = (
{
name = bottom;
position = "{300, 0}";
},
{
name = ogonek;
position = "{540, 10}";
},
{
name = top;
position = "{300, 700}";
},
{
name = topleft;
position = "{20, 700}";
}
);
associatedMasterId = "4C71D2F8-8800-4A35-9F40-3E8E498F68F0";
layerId = "22E2F123-71E1-439B-863C-94DF12AC6CFD";
name = "Dec 14 20, 12:08";
paths = (
{
closed = 1;
nodes = (
"285 0 LINE",
"335 0 LINE",
"345 362 LINE",
"345 630 LINE",
"285 630 LINE"
);
},
{
closed = 1;
nodes = (
"500 0 LINE",
"500 75 LINE",
"100 75 LINE",
"100 0 LINE"
);
},
{
closed = 1;
nodes = (
"500 630 LINE",
"500 700 LINE",
"100 700 LINE",
"100 630 LINE"
);
},
{
closed = 1;
nodes = (
"315 630 LINE",
"265 630 LINE",
"255 268 LINE",
"255 0 LINE",
"315 0 LINE"
);
}
);
width = 600;
},
{
anchors = (
{
name = bottom;
position = "{300, 0}";
},
{
name = ogonek;
position = "{540, 10}";
},
{
name = top;
position = "{300, 700}";
},
{
name = topleft;
position = "{20, 700}";
}
);
associatedMasterId = "4C71D2F8-8800-4A35-9F40-3E8E498F68F0";
guideLines = (
{
angle = 90;
position = "{345, 268}";
}
);
layerId = "5EE61A3C-069A-4764-BE1A-88CB4D032CDE";
name = "Dec 15 20, 13:52";
paths = (
{
closed = 1;
nodes = (
"500 0 LINE",
"500 75 LINE",
"100 75 LINE",
"100 0 LINE"
);
},
{
closed = 1;
nodes = (
"500 630 LINE",
"500 700 LINE",
"100 700 LINE",
"100 630 LINE"
);
},
{
closed = 1;
nodes = (
"345 0 LINE",
"345 268 LINE",
"339 630 LINE",
"261 630 LINE",
"255 268 LINE",
"255 0 LINE"
);
},
{
closed = 1;
nodes = (
"345 134 LINE",
"345 524 LINE",
"339 629 LINE",
"339 700 LINE",
"285 700 LINE",
"285 134 LINE"
);
},
{
closed = 1;
nodes = (
"315 700 LINE",
"261 700 LINE",
"261 629 LINE",
"255 524 LINE",
"255 134 LINE",
"315 134 LINE"
);
}
);
width = 600;
}
);
unicode = 0049;
},
{
color = 4;
glyphname = IJ;
lastChange = "2022-04-19 08:20:07 +0000";
layers = (
{
layerId = "4C71D2F8-8800-4A35-9F40-3E8E498F68F0";
paths = (
{
closed = 1;
nodes = (
"300 65 LINE",
"206 65 OFFCURVE",
"177 117 OFFCURVE",
"177 260 CURVE",
"85 260 LINE",
"85 66 OFFCURVE",
"157 -10 OFFCURVE",
"300 -10 CURVE"
);
},
{
closed = 1;
nodes = (
"460 -10 OFFCURVE",
"510 95 OFFCURVE",
"510 248 CURVE",
"420 248 LINE",
"420 110 OFFCURVE",
"372 65 OFFCURVE",
"300 65 CURVE",
"300 -10 LINE"
);
},
{
closed = 1;
nodes = (
"510 248 LINE",
"510 700 LINE",
"426 700 LINE",
"426 629 LINE",
"420 524 LINE",
"420 248 LINE"
);
},
{
closed = 1;
nodes = (
"480 630 LINE",
"480 700 LINE",
"275 700 LINE",
"275 630 LINE"
);
},
{
closed = 1;
nodes = (
"175 360 LINE",
"175 700 LINE",
"85 700 LINE",
"85 360 LINE"
);
}
);
width = 600;
}
);
unicode = 0132;
},
{
color = 4;
glyphname = J;
lastChange = "2022-04-19 08:20:07 +0000";
layers = (
{
anchors = (
{
name = bottom;
position = "{300, 0}";
},
{
name = top;
position = "{300, 700}";
}
);
layerId = "4C71D2F8-8800-4A35-9F40-3E8E498F68F0";
paths = (
{
closed = 1;
nodes = (
"300 65 LINE",
"206 65 OFFCURVE",
"177 127 OFFCURVE",
"177 270 CURVE",
"85 270 LINE",
"85 76 OFFCURVE",
"157 -10 OFFCURVE",
"300 -10 CURVE"
);
},
{
closed = 1;
nodes = (
"460 -10 OFFCURVE",
"510 95 OFFCURVE",
"510 248 CURVE",
"420 248 LINE",
"420 110 OFFCURVE",
"372 65 OFFCURVE",
"300 65 CURVE",
"300 -10 LINE"
);
},
{
closed = 1;
nodes = (
"180 540 LINE",
"180 580 LINE",
"174 700 LINE",
"90 700 LINE",
"90 540 LINE"
);
},
{
closed = 1;
nodes = (
"510 248 LINE",
"510 700 LINE",
"426 700 LINE",
"426 629 LINE",
"420 524 LINE",
"420 248 LINE"
);
},
{
closed = 1;
nodes = (
"480 630 LINE",
"480 700 LINE",
"142 700 LINE",
"142 630 LINE"
);
}
);
width = 600;
},
{
associatedMasterId = "4C71D2F8-8800-4A35-9F40-3E8E498F68F0";
backgroundImage = {
imagePath = OLD/J.jpg;
locked = "1";
transform = "{6.12566, 0, 0, 6.12566, 23, -24}";
};
layerId = "69FC3F67-EF8B-4F5A-BD1D-BB3849A5DA66";
name = "Oct 6 20, 18:40";
paths = (
{
closed = 1;
nodes = (
"520 185 LINE",
"520 700 LINE",
"430 700 LINE",
"430 185 LINE"
);
},
{
closed = 1;
nodes = (
"490 630 LINE",
"490 700 LINE",
"180 700 LINE",
"180 630 LINE"
);
},
{
closed = 1;
nodes = (
"141 173 LINE",
"228 97 OFFCURVE",
"277 66 OFFCURVE",
"330 66 CURVE SMOOTH",
"390 66 OFFCURVE",
"430 114 OFFCURVE",
"430 185 CURVE",
"520 185 LINE",
"520 60 OFFCURVE",
"443 -24 OFFCURVE",
"328 -24 CURVE SMOOTH",
"249 -24 OFFCURVE",
"152 46 OFFCURVE",
"82 105 CURVE"
);
}
);
width = 600;
},
{
associatedMasterId = "4C71D2F8-8800-4A35-9F40-3E8E498F68F0";
backgroundImage = {
imagePath = OLD/J.jpg;
locked = "1";
transform = "{6.12566, 0, 0, 6.12566, 23, -24}";
};
layerId = "971CE34F-859D-4004-8E8C-CE84CC89BFFA";
name = "Oct 8 20, 09:39";
paths = (
{
closed = 1;
nodes = (
"520 235 LINE",
"520 700 LINE",
"430 700 LINE",
"430 235 LINE"
);
},
{
closed = 1;
nodes = (
"490 630 LINE",
"490 700 LINE",
"150 700 LINE",
"150 630 LINE"
);
},
{
closed = 1;
nodes = (
"305 52 LINE",
"217 52 OFFCURVE",
"190 137 OFFCURVE",
"180 205 CURVE",
"85 205 LINE",
"95 81 OFFCURVE",
"161 -18 OFFCURVE",
"305 -18 CURVE"
);
},
{
closed = 1;
nodes = (
"482 -18 OFFCURVE",
"520 93 OFFCURVE",
"520 235 CURVE",
"430 235 LINE",
"430 154 OFFCURVE",
"422 52 OFFCURVE",
"305 52 CURVE",
"305 -18 LINE"
);
}
);
width = 600;
},
{
anchors = (
{
name = bottom;
position = "{300, 0}";
},
{
name = top;
position = "{300, 700}";
}
);
associatedMasterId = "4C71D2F8-8800-4A35-9F40-3E8E498F68F0";
backgroundImage = {
imagePath = OLD/J.jpg;
locked = "1";
transform = "{6.12566, 0, 0, 6.12566, 23, -24}";
};
layerId = "D17F54C9-1D86-406B-8D23-1854899891D9";
name = "Dec 29 20, 10:18";
paths = (
{
closed = 1;
nodes = (
"300 65 LINE",
"206 65 OFFCURVE",
"177 127 OFFCURVE",
"177 270 CURVE",
"85 270 LINE",
"85 76 OFFCURVE",
"157 -10 OFFCURVE",
"300 -10 CURVE"
);
},
{
closed = 1;
nodes = (
"460 -10 OFFCURVE",
"510 95 OFFCURVE",
"510 248 CURVE",
"420 248 LINE",
"420 110 OFFCURVE",
"372 65 OFFCURVE",
"300 65 CURVE",
"300 -10 LINE"
);
},
{
closed = 1;
nodes = (
"182 540 LINE",
"182 700 LINE",
"92 700 LINE",
"92 540 LINE"
);
},
{
closed = 1;
nodes = (
"510 248 LINE",
"510 700 LINE",
"426 700 LINE",
"426 629 LINE",
"420 524 LINE",
"420 248 LINE"
);
},
{
closed = 1;
nodes = (
"480 630 LINE",
"480 700 LINE",
"142 700 LINE",
"142 630 LINE"
);
}
);
width = 600;
}
);
unicode = 004A;
},
{
color = 4;
glyphname = K;
lastChange = "2022-04-19 08:20:07 +0000";
layers = (
{
anchors = (
{
name = bottom;
position = "{300, 0}";
},
{
name = top;
position = "{300, 700}";
}
);
layerId = "4C71D2F8-8800-4A35-9F40-3E8E498F68F0";
paths = (
{
closed = 1;
nodes = (
"525 0 LINE",
"393 284 LINE SMOOTH",
"372 330 OFFCURVE",
"342 345 OFFCURVE",
"293 345 CURVE",
"293 375 LINE",
"339 375 OFFCURVE",
"372 390 OFFCURVE",
"393 436 CURVE SMOOTH",
"515 700 LINE",
"415 700 LINE",
"324 462 LINE SMOOTH",
"308 420 OFFCURVE",
"274 395 OFFCURVE",
"251 395 CURVE SMOOTH",
"160 395 LINE",
"160 325 LINE",
"251 325 LINE SMOOTH",
"274 325 OFFCURVE",
"308 299 OFFCURVE",
"324 258 CURVE SMOOTH",
"425 0 LINE"
);
},
{
closed = 1;
nodes = (
"180 0 LINE",
"180 220 LINE",
"174 325 LINE",
"174 385 LINE",
"90 385 LINE",
"90 0 LINE"
);
},
{
closed = 1;
nodes = (
"174 335 LINE",
"174 395 LINE",
"180 480 LINE",
"180 700 LINE",
"90 700 LINE",
"90 335 LINE"
);
}
);
width = 600;
},
{
associatedMasterId = "4C71D2F8-8800-4A35-9F40-3E8E498F68F0";
backgroundImage = {
imagePath = OLD/K.jpg;
locked = "1";
transform = "{6.15204, 0, 0, 6.15204, 0, -47}";
};
layerId = "A2E65AE1-FD11-4151-B871-2B62B11F13DD";
name = "Sep 22 20, 14:02";
paths = (
{
closed = 1;
nodes = (
"55 0 LINE",
"145 0 LINE",
"145 700 LINE",
"55 700 LINE"
);
},
{
closed = 1;
nodes = (
"95 365 LINE",
"265 365 LINE",
"265 377 LINE",
"228 389 LINE",
"228 409 LINE",
"265 426 LINE",
"265 435 LINE",
"95 435 LINE"
);
},
{
closed = 1;
nodes = (
"259 502 LINE SMOOTH",
"238 462 OFFCURVE",
"209 435 OFFCURVE",
"186 435 CURVE",
"228 409 LINE",
"264 409 OFFCURVE",
"290 421 OFFCURVE",
"328 476 CURVE SMOOTH",
"485 700 LINE",
"360 700 LINE"
);
},
{
closed = 1;
nodes = (
"485 0 LINE",
"328 324 LINE SMOOTH",
"300 382 OFFCURVE",
"264 391 OFFCURVE",
"228 391 CURVE",
"186 365 LINE",
"209 365 OFFCURVE",
"245 339 OFFCURVE",
"259 298 CURVE SMOOTH",
"360 0 LINE"
);
}
);
width = 600;
}
);
unicode = 004B;
},
{
color = 4;
glyphname = L;
lastChange = "2022-04-19 08:20:07 +0000";
layers = (
{
anchors = (
{
name = bottom;
position = "{300, 0}";
},
{
name = center;
position = "{300, 350}";
},
{
name = top;
position = "{135, 700}";
},
{
name = topright;
position = "{420, 600}";
}
);
guideLines = (
{
angle = 90;
position = "{420, 160}";
}
);
layerId = "4C71D2F8-8800-4A35-9F40-3E8E498F68F0";
paths = (
{
closed = 1;
nodes = (
"174 0 LINE",
"174 75 LINE",
"180 180 LINE",
"180 700 LINE",
"90 700 LINE",
"90 0 LINE"
);
},
{
closed = 1;
nodes = (
"510 0 LINE",
"510 75 LINE",
"150 75 LINE",
"150 0 LINE"
);
},
{
closed = 1;
nodes = (
"510 0 LINE",
"510 160 LINE",
"420 160 LINE",
"420 120 LINE",
"425 0 LINE"
);
}
);
width = 600;
}
);
unicode = 004C;
},
{
color = 4;
glyphname = Lslash;
lastChange = "2022-04-19 08:20:07 +0000";
layers = (
{
guideLines = (
{
angle = 90;
position = "{100, 331}";
},
{
angle = 90;
position = "{190, 331}";
}
);
layerId = "4C71D2F8-8800-4A35-9F40-3E8E498F68F0";
paths = (
{
closed = 1;
nodes = (
"64 179 LINE",
"100 216 LINE",
"190 296 LINE",
"226 321 LINE",
"392 467 LINE",
"392 560 LINE",
"226 414 LINE",
"190 376 LINE",
"100 297 LINE",
"64 272 LINE",
"50 260 LINE",
"50 167 LINE"
);
},
{
closed = 1;
nodes = (
"510 0 LINE",
"510 75 LINE",
"160 75 LINE",
"160 0 LINE"
);
},
{
closed = 1;
nodes = (
"184 0 LINE",
"184 75 LINE",
"190 180 LINE",
"190 700 LINE",
"100 700 LINE",
"100 0 LINE"
);
},
{
closed = 1;
nodes = (
"510 0 LINE",
"510 160 LINE",
"420 160 LINE",
"420 120 LINE",
"425 0 LINE"
);
}
);
width = 600;
}
);
unicode = 0141;
},
{
color = 4;
glyphname = M;
lastChange = "2022-04-19 08:20:07 +0000";
layers = (
{
anchors = (
{
name = bottom;
position = "{300, 0}";
},
{
name = top;
position = "{300, 700}";
}
);
layerId = "4C71D2F8-8800-4A35-9F40-3E8E498F68F0";
paths = (
{
closed = 1;
nodes = (
"160 0 LINE",
"160 268 LINE",
"136 630 LINE",
"166 630 LINE",
"239 268 LINE",
"361 268 LINE",
"434 630 LINE",
"464 630 LINE",
"440 268 LINE",
"440 0 LINE",
"530 0 LINE",
"530 700 LINE",
"386 700 LINE",
"315 338 LINE",
"285 338 LINE",
"214 700 LINE",
"70 700 LINE",
"70 0 LINE"
);
}
);
width = 600;
},
{
associatedMasterId = "4C71D2F8-8800-4A35-9F40-3E8E498F68F0";
backgroundImage = {
imagePath = OLD/M.jpg;
locked = "1";
transform = "{6.14354, 0, 0, 6.14354, 33, -30}";
};
layerId = "F3D391C1-4A78-4267-9B04-705574A9939F";
name = "Sep 22 20, 14:20";
paths = (
{
closed = 1;
nodes = (
"145 0 LINE",
"145 413 LINE",
"94 640 LINE",
"115 640 LINE",
"237 258 LINE",
"295 258 LINE",
"295 348 LINE",
"273 348 LINE",
"159 700 LINE",
"55 700 LINE",
"56 300 LINE",
"55 0 LINE"
);
}
);
width = 550;
},
{
associatedMasterId = "4C71D2F8-8800-4A35-9F40-3E8E498F68F0";
backgroundImage = {
imagePath = OLD/M.jpg;
locked = "1";
transform = "{6.14354, 0, 0, 6.14354, 33, -30}";
};
layerId = "36795D73-C0B5-45F3-8B68-82B87D1EC00B";
name = "Sep 22 20, 14:20";
paths = (
{
closed = 1;
nodes = (
"145 0 LINE",
"145 413 LINE",
"94 640 LINE",
"115 640 LINE",
"237 258 LINE",
"295 258 LINE",
"295 348 LINE",
"273 348 LINE",
"159 700 LINE",
"55 700 LINE",
"56 300 LINE",
"55 0 LINE"
);
},
{
closed = 1;
nodes = (
"494 300 LINE",
"495 700 LINE",
"391 700 LINE",
"277 348 LINE",
"255 348 LINE",
"255 258 LINE",
"313 258 LINE",
"435 640 LINE",
"456 640 LINE",
"405 413 LINE",
"405 0 LINE",
"495 0 LINE"
);
}
);
width = 550;
},
{
associatedMasterId = "4C71D2F8-8800-4A35-9F40-3E8E498F68F0";
backgroundImage = {
imagePath = OLD/M.jpg;
locked = "1";
transform = "{6.14354, 0, 0, 6.14354, 33, -30}";
};
layerId = "CAB888AF-A559-462B-A08C-09D3F8B88B0A";
name = "Sep 22 20, 14:22";
paths = (
{
closed = 1;
nodes = (
"145 0 LINE",
"145 335 LINE",
"114 640 LINE",
"135 640 LINE",
"227 258 LINE",
"295 258 LINE",
"295 348 LINE",
"263 348 LINE",
"189 700 LINE",
"55 700 LINE",
"56 300 LINE",
"55 0 LINE"
);
},
{
closed = 1;
nodes = (
"494 300 LINE",
"495 700 LINE",
"361 700 LINE",
"287 348 LINE",
"255 348 LINE",
"255 258 LINE",
"323 258 LINE",
"415 640 LINE",
"436 640 LINE",
"405 335 LINE",
"405 0 LINE",
"495 0 LINE"
);
}
);
width = 550;
},
{
associatedMasterId = "4C71D2F8-8800-4A35-9F40-3E8E498F68F0";
backgroundImage = {
imagePath = OLD/M.jpg;
locked = "1";
transform = "{6.14354, 0, 0, 6.14354, 33, -30}";
};
layerId = "D37CA428-768D-4FD7-A260-29DD1E464BDB";
name = "Oct 8 20, 09:05";
paths = (
{
closed = 1;
nodes = (
"170 0 LINE",
"170 268 LINE",
"140 630 LINE",
"175 630 LINE",
"246 268 LINE",
"320 268 LINE",
"320 338 LINE",
"293 338 LINE",
"224 700 LINE",
"80 700 LINE",
"80 0 LINE"
);
},
{
closed = 1;
nodes = (
"520 700 LINE",
"376 700 LINE",
"307 338 LINE",
"280 338 LINE",
"280 268 LINE",
"354 268 LINE",
"425 630 LINE",
"460 630 LINE",
"430 268 LINE",
"430 0 LINE",
"520 0 LINE"
);
}
);
width = 600;
},
{
associatedMasterId = "4C71D2F8-8800-4A35-9F40-3E8E498F68F0";
backgroundImage = {
imagePath = OLD/M.jpg;
locked = "1";
transform = "{6.14354, 0, 0, 6.14354, 33, -30}";
};
layerId = "6AEC0B5B-411E-4602-B011-5A3DE4693549";
name = "Oct 8 20, 15:19";
paths = (
{
closed = 1;
nodes = (
"160 0 LINE",
"160 268 LINE",
"130 630 LINE",
"160 630 LINE",
"243 268 LINE",
"300 268 LINE",
"300 338 LINE",
"290 338 LINE",
"209 700 LINE",
"70 700 LINE",
"70 0 LINE"
);
},
{
closed = 1;
nodes = (
"530 700 LINE",
"391 700 LINE",
"310 338 LINE",
"300 338 LINE",
"300 268 LINE",
"357 268 LINE",
"440 630 LINE",
"470 630 LINE",
"440 268 LINE",
"440 0 LINE",
"530 0 LINE"
);
}
);
width = 600;
}
);
unicode = 004D;
},
{
color = 4;
glyphname = N;
lastChange = "2022-04-19 08:20:07 +0000";
layers = (
{
anchors = (
{
name = bottom;
position = "{300, 0}";
},
{
name = top;
position = "{300, 700}";
}
);
guideLines = (
{
angle = 90;
position = "{362, -802}";
},
{
position = "{430, 432}";
}
);
layerId = "4C71D2F8-8800-4A35-9F40-3E8E498F68F0";
paths = (
{
closed = 1;
nodes = (
"175 0 LINE",
"175 268 LINE",
"151 630 LINE",
"181 630 LINE",
"360 0 LINE",
"515 0 LINE",
"515 700 LINE",
"425 700 LINE",
"425 432 LINE",
"449 70 LINE",
"419 70 LINE",
"240 700 LINE",
"85 700 LINE",
"85 0 LINE"
);
}
);
width = 600;
},
{
associatedMasterId = "4C71D2F8-8800-4A35-9F40-3E8E498F68F0";
backgroundImage = {
imagePath = OLD/N.jpg;
locked = "1";
transform = "{6.15437, 0, 0, 6.15437, 1, -43}";
};
layerId = "A4B5C1C6-CF57-4414-BB54-01098084986A";
name = "Sep 22 20, 15:25";
paths = (
{
closed = 1;
nodes = (
"405 200 LINE",
"495 200 LINE",
"495 700 LINE",
"405 700 LINE"
);
},
{
closed = 1;
nodes = (
"55 0 LINE",
"145 0 LINE",
"145 700 LINE",
"55 700 LINE"
);
},
{
closed = 1;
nodes = (
"173 630 LINE",
"342 -2 LINE",
"495 -2 LINE",
"495 181 LINE",
"495 257 LINE",
"405 257 LINE",
"405 141 LINE",
"442 5 LINE",
"475 88 LINE",
"390 88 LINE",
"226 700 LINE",
"105 700 LINE",
"105 630 LINE"
);
}
);
width = 550;
},
{
associatedMasterId = "4C71D2F8-8800-4A35-9F40-3E8E498F68F0";
backgroundImage = {
imagePath = OLD/N.jpg;
locked = "1";
transform = "{6.15437, 0, 0, 6.15437, 1, -43}";
};
guideLines = (
{
angle = 90;
position = "{362, -802}";
},
{
position = "{442, 68}";
}
);
layerId = "A8468005-9FC3-4897-9484-2BAE24B59A63";
name = "Oct 19 20, 18:55";
paths = (
{
closed = 1;
nodes = (
"80 0 LINE",
"170 0 LINE",
"170 700 LINE",
"80 700 LINE"
);
},
{
closed = 1;
nodes = (
"170 630 LINE",
"200 630 LINE",
"353 -2 LINE",
"520 -2 LINE",
"520 700 LINE",
"430 700 LINE",
"430 118 LINE",
"442 68 LINE",
"412 68 LINE",
"259 700 LINE",
"122 700 LINE"
);
}
);
width = 600;
}
);
unicode = 004E;
},
{
color = 4;
glyphname = Eng;
lastChange = "2022-04-19 08:20:07 +0000";
layers = (
{
layerId = "4C71D2F8-8800-4A35-9F40-3E8E498F68F0";
paths = (
{
closed = 1;
nodes = (
"175 0 LINE",
"175 268 LINE",
"151 630 LINE",
"181 630 LINE",
"360 0 LINE",
"515 0 LINE",
"515 700 LINE",
"425 700 LINE",
"425 432 LINE",
"449 70 LINE",
"419 70 LINE",
"240 700 LINE",
"85 700 LINE",
"85 0 LINE"
);
},
{
closed = 1;
nodes = (
"382 -180 LINE SMOOTH",
"468 -180 OFFCURVE",
"515 -141 OFFCURVE",
"515 -14 CURVE SMOOTH",
"515 0 LINE",
"449 0 LINE",
"449 -80 OFFCURVE",
"432 -105 OFFCURVE",
"382 -105 CURVE SMOOTH",
"351 -105 LINE",
"351 -180 LINE"
);
}
);
width = 600;
},
{
associatedMasterId = "4C71D2F8-8800-4A35-9F40-3E8E498F68F0";
layerId = "DFABA9A3-1980-40AB-9B15-65ADDC62715C";
name = "Sep 13 21, 09:54";
paths = (
{
closed = 1;
nodes = (
"175 0 LINE",
"175 268 LINE",
"151 630 LINE",
"181 630 LINE",
"360 0 LINE",
"515 0 LINE",
"515 700 LINE",
"425 700 LINE",
"425 432 LINE",
"449 70 LINE",
"419 70 LINE",
"240 700 LINE",
"85 700 LINE",
"85 0 LINE"
);
},
{
closed = 1;
nodes = (
"515 -14 LINE SMOOTH",
"515 -161 OFFCURVE",
"437 -200 OFFCURVE",
"351 -200 CURVE SMOOTH",
"320 -200 LINE",
"320 -125 LINE",
"351 -125 LINE SMOOTH",
"405 -125 OFFCURVE",
"424 -101 OFFCURVE",
"445 0 CURVE",
"515 0 LINE"
);
}
);
width = 600;
},
{
associatedMasterId = "4C71D2F8-8800-4A35-9F40-3E8E498F68F0";
layerId = "C2B8E5BA-DF9B-4588-BEFE-1A1E8FA71658";
name = "Sep 13 21, 09:55";
paths = (
{
closed = 1;
nodes = (
"175 0 LINE",
"175 268 LINE",
"151 630 LINE",
"181 630 LINE",
"360 0 LINE",
"515 0 LINE",
"515 700 LINE",
"425 700 LINE",
"425 432 LINE",
"449 70 LINE",
"419 70 LINE",
"240 700 LINE",
"85 700 LINE",
"85 0 LINE"
);
},
{
closed = 1;
nodes = (
"515 -14 LINE SMOOTH",
"515 -161 OFFCURVE",
"447 -200 OFFCURVE",
"361 -200 CURVE SMOOTH",
"330 -200 LINE",
"330 -125 LINE",
"361 -125 LINE SMOOTH",
"407 -125 OFFCURVE",
"424 -100 OFFCURVE",
"445 0 CURVE",
"515 0 LINE"
);
}
);
width = 600;
}
);
unicode = 014A;
},
{
color = 4;
glyphname = O;
lastChange = "2022-04-19 08:20:07 +0000";
layers = (
{
associatedMasterId = "4C71D2F8-8800-4A35-9F40-3E8E498F68F0";
backgroundImage = {
imagePath = O.jpg;
locked = "1";
transform = "{6.17164, 0, 0, 6.17164, 0, -37}";
};
layerId = "A12573A6-27A2-4601-8D3E-0E94ADD2322A";
name = "Sep 21 20, 11:03";
paths = (
{
closed = 1;
nodes = (
"150 350 LINE",
"150 537 OFFCURVE",
"181 661 OFFCURVE",
"280 661 CURVE",
"280 724 LINE",
"141 724 OFFCURVE",
"50 634 OFFCURVE",
"50 350 CURVE"
);
},
{
closed = 1;
nodes = (
"510 634 OFFCURVE",
"419 724 OFFCURVE",
"280 724 CURVE",
"280 661 LINE",
"379 661 OFFCURVE",
"410 537 OFFCURVE",
"410 350 CURVE",
"510 350 LINE"
);
},
{
closed = 1;
nodes = (
"50 66 OFFCURVE",
"141 -24 OFFCURVE",
"280 -24 CURVE",
"280 39 LINE",
"181 39 OFFCURVE",
"150 163 OFFCURVE",
"150 350 CURVE",
"50 350 LINE"
);
},
{
closed = 1;
nodes = (
"410 350 LINE",
"410 163 OFFCURVE",
"379 39 OFFCURVE",
"280 39 CURVE",
"280 -24 LINE",
"419 -24 OFFCURVE",
"510 66 OFFCURVE",
"510 350 CURVE"
);
}
);
width = 560;
},
{
associatedMasterId = "4C71D2F8-8800-4A35-9F40-3E8E498F68F0";
backgroundImage = {
imagePath = O.jpg;
locked = "1";
transform = "{6.17164, 0, 0, 6.17164, 0, -37}";
};
layerId = "F8822A96-64CC-4750-B1FA-C9D29F67BCE8";
name = "Sep 21 20, 11:05";
paths = (
{
closed = 1;
nodes = (
"150 350 LINE",
"150 531 OFFCURVE",
"181 651 OFFCURVE",
"280 651 CURVE",
"280 714 LINE",
"162 714 OFFCURVE",
"50 627 OFFCURVE",
"50 350 CURVE"
);
},
{
closed = 1;
nodes = (
"510 627 OFFCURVE",
"398 714 OFFCURVE",
"280 714 CURVE",
"280 651 LINE",
"379 651 OFFCURVE",
"410 531 OFFCURVE",
"410 350 CURVE",
"510 350 LINE"
);
},
{
closed = 1;
nodes = (
"50 73 OFFCURVE",
"142 -14 OFFCURVE",
"280 -14 CURVE",
"280 49 LINE",
"181 49 OFFCURVE",
"150 169 OFFCURVE",
"150 350 CURVE",
"50 350 LINE"
);
},
{
closed = 1;
nodes = (
"410 350 LINE",
"410 169 OFFCURVE",
"379 49 OFFCURVE",
"280 49 CURVE",
"280 -14 LINE",
"418 -14 OFFCURVE",
"510 73 OFFCURVE",
"510 350 CURVE"
);
}
);
width = 560;
},
{
associatedMasterId = "4C71D2F8-8800-4A35-9F40-3E8E498F68F0";
backgroundImage = {
imagePath = O.jpg;
locked = "1";
transform = "{6.17164, 0, 0, 6.17164, 0, -37}";
};
layerId = "2EA8DC0C-1BC3-4563-8D4F-118721629486";
name = "Sep 21 20, 11:24";
paths = (
{
closed = 1;
nodes = (
"150 350 LINE",
"150 531 OFFCURVE",
"181 651 OFFCURVE",
"280 651 CURVE SMOOTH",
"379 651 OFFCURVE",
"410 531 OFFCURVE",
"410 350 CURVE",
"510 350 LINE",
"510 627 OFFCURVE",
"398 714 OFFCURVE",
"280 714 CURVE SMOOTH",
"162 714 OFFCURVE",
"50 627 OFFCURVE",
"50 350 CURVE"
);
},
{
closed = 1;
nodes = (
"50 73 OFFCURVE",
"162 -14 OFFCURVE",
"280 -14 CURVE SMOOTH",
"398 -14 OFFCURVE",
"510 73 OFFCURVE",
"510 350 CURVE",
"410 350 LINE",
"410 169 OFFCURVE",
"379 49 OFFCURVE",
"280 49 CURVE SMOOTH",
"181 49 OFFCURVE",
"150 169 OFFCURVE",
"150 350 CURVE",
"50 350 LINE"
);
}
);
width = 560;
},
{
associatedMasterId = "4C71D2F8-8800-4A35-9F40-3E8E498F68F0";
backgroundImage = {
imagePath = O.jpg;
locked = "1";
transform = "{6.17164, 0, 0, 6.17164, -5, -37}";
};
layerId = "BA48AF76-80C7-447E-9CFB-887B1A59BFD3";
name = "Sep 21 20, 11:34";
paths = (
{
closed = 1;
nodes = (
"145 350 LINE",
"145 527 OFFCURVE",
"176 647 OFFCURVE",
"275 647 CURVE SMOOTH",
"374 647 OFFCURVE",
"405 527 OFFCURVE",
"405 350 CURVE",
"505 350 LINE",
"505 623 OFFCURVE",
"393 710 OFFCURVE",
"275 710 CURVE SMOOTH",
"157 710 OFFCURVE",
"45 623 OFFCURVE",
"45 350 CURVE"
);
},
{
closed = 1;
nodes = (
"45 77 OFFCURVE",
"157 -10 OFFCURVE",
"275 -10 CURVE SMOOTH",
"393 -10 OFFCURVE",
"505 77 OFFCURVE",
"505 350 CURVE",
"405 350 LINE",
"405 173 OFFCURVE",
"374 53 OFFCURVE",
"275 53 CURVE SMOOTH",
"176 53 OFFCURVE",
"145 173 OFFCURVE",
"145 350 CURVE",
"45 350 LINE"
);
}
);
width = 550;
},
{
associatedMasterId = "4C71D2F8-8800-4A35-9F40-3E8E498F68F0";
layerId = "91476977-51BB-4F6B-B858-2B25ADE9EECC";
name = "Sep 22 20, 14:44";
paths = (
{
closed = 1;
nodes = (
"125 350 LINE",
"125 564 OFFCURVE",
"174 647 OFFCURVE",
"275 647 CURVE SMOOTH",
"376 647 OFFCURVE",
"425 564 OFFCURVE",
"425 350 CURVE",
"520 350 LINE",
"520 609 OFFCURVE",
"444 710 OFFCURVE",
"275 710 CURVE SMOOTH",
"106 710 OFFCURVE",
"30 609 OFFCURVE",
"30 350 CURVE"
);
},
{
closed = 1;
nodes = (
"30 91 OFFCURVE",
"106 -10 OFFCURVE",
"275 -10 CURVE SMOOTH",
"444 -10 OFFCURVE",
"520 91 OFFCURVE",
"520 350 CURVE",
"425 350 LINE",
"425 136 OFFCURVE",
"376 53 OFFCURVE",
"275 53 CURVE SMOOTH",
"174 53 OFFCURVE",
"125 136 OFFCURVE",
"125 350 CURVE",
"30 350 LINE"
);
}
);
width = 550;
},
{
associatedMasterId = "4C71D2F8-8800-4A35-9F40-3E8E498F68F0";
layerId = "16898322-FD0B-4394-88B4-9465C922BEA6";
name = "Sep 22 20, 14:45";
paths = (
{
closed = 1;
nodes = (
"135 350 LINE",
"135 527 OFFCURVE",
"166 647 OFFCURVE",
"275 647 CURVE SMOOTH",
"384 647 OFFCURVE",
"415 527 OFFCURVE",
"415 350 CURVE",
"515 350 LINE",
"515 623 OFFCURVE",
"403 710 OFFCURVE",
"275 710 CURVE SMOOTH",
"147 710 OFFCURVE",
"35 623 OFFCURVE",
"35 350 CURVE"
);
},
{
closed = 1;
nodes = (
"35 77 OFFCURVE",
"147 -10 OFFCURVE",
"275 -10 CURVE SMOOTH",
"403 -10 OFFCURVE",
"515 77 OFFCURVE",
"515 350 CURVE",
"415 350 LINE",
"415 173 OFFCURVE",
"384 53 OFFCURVE",
"275 53 CURVE SMOOTH",
"166 53 OFFCURVE",
"135 173 OFFCURVE",
"135 350 CURVE",
"35 350 LINE"
);
}
);
width = 550;
},
{
anchors = (
{
name = bottom;
position = "{300, 0}";
},
{
name = center;
position = "{300, 350}";
},
{
name = ogonek;
position = "{540, 10}";
},
{
name = top;
position = "{300, 700}";
},
{
name = topleft;
position = "{20, 700}";
},
{
name = topright;
position = "{580, 700}";
}
);
guideLines = (
{
position = "{500, -10}";
}
);
layerId = "4C71D2F8-8800-4A35-9F40-3E8E498F68F0";
paths = (
{
closed = 1;
nodes = (
"535 350 LINE",
"535 615 OFFCURVE",
"449 710 OFFCURVE",
"300 710 CURVE",
"300 640 LINE",
"400 640 OFFCURVE",
"444 565 OFFCURVE",
"444 350 CURVE"
);
},
{
closed = 1;
nodes = (
"300 65 LINE",
"200 65 OFFCURVE",
"156 145 OFFCURVE",
"156 350 CURVE",
"65 350 LINE",
"65 85 OFFCURVE",
"151 -10 OFFCURVE",
"300 -10 CURVE"
);
},
{
closed = 1;
nodes = (
"449 -10 OFFCURVE",
"535 85 OFFCURVE",
"535 350 CURVE",
"444 350 LINE",
"444 145 OFFCURVE",
"400 65 OFFCURVE",
"300 65 CURVE",
"300 -10 LINE"
);
},
{
closed = 1;
nodes = (
"156 350 LINE",
"156 565 OFFCURVE",
"200 640 OFFCURVE",
"300 640 CURVE",
"300 710 LINE",
"151 710 OFFCURVE",
"65 615 OFFCURVE",
"65 350 CURVE"
);
}
);
width = 600;
},
{
associatedMasterId = "4C71D2F8-8800-4A35-9F40-3E8E498F68F0";
backgroundImage = {
imagePath = "NEW NEW/O.jpg";
locked = "1";
transform = "{0.89489, 0, 0, 0.89489, 31, -48}";
};
layerId = "61596715-59E0-4699-AE0D-F993169F4156";
name = "Sep 25 20, 19:54";
paths = (
{
closed = 1;
nodes = (
"259 52 OFFCURVE",
"229 66 OFFCURVE",
"209 92 CURVE SMOOTH",
"175 138 OFFCURVE",
"173 221 OFFCURVE",
"173 333 CURVE",
"77 333 LINE",
"77 188 OFFCURVE",
"91 90 OFFCURVE",
"140 34 CURVE SMOOTH",
"175 -5 OFFCURVE",
"228 -24 OFFCURVE",
"307 -24 CURVE",
"307 52 LINE"
);
},
{
closed = 1;
nodes = (
"293 -24 LINE",
"372 -24 OFFCURVE",
"425 -5 OFFCURVE",
"460 34 CURVE SMOOTH",
"509 90 OFFCURVE",
"523 188 OFFCURVE",
"523 333 CURVE",
"427 333 LINE",
"427 221 OFFCURVE",
"425 138 OFFCURVE",
"391 92 CURVE SMOOTH",
"371 66 OFFCURVE",
"341 52 OFFCURVE",
"293 52 CURVE"
);
}
);
width = 600;
},
{
associatedMasterId = "4C71D2F8-8800-4A35-9F40-3E8E498F68F0";
backgroundImage = {
imagePath = "NEW NEW/O.jpg";
locked = "1";
transform = "{0.89489, 0, 0, 0.89489, 31, -48}";
};
layerId = "BB6AD131-1A14-45E1-A84B-8933B7206DB8";
name = "Sep 25 20, 19:56";
paths = (
{
closed = 1;
nodes = (
"168 52 OFFCURVE",
"163 179 OFFCURVE",
"163 350 CURVE",
"67 350 LINE",
"67 118 OFFCURVE",
"100 -24 OFFCURVE",
"300 -24 CURVE",
"300 52 LINE"
);
},
{
closed = 1;
nodes = (
"300 -24 LINE",
"500 -24 OFFCURVE",
"533 118 OFFCURVE",
"533 350 CURVE",
"437 350 LINE",
"437 179 OFFCURVE",
"432 52 OFFCURVE",
"300 52 CURVE"
);
},
{
closed = 1;
nodes = (
"300 724 LINE",
"100 724 OFFCURVE",
"67 582 OFFCURVE",
"67 350 CURVE",
"163 350 LINE",
"163 521 OFFCURVE",
"168 648 OFFCURVE",
"300 648 CURVE"
);
},
{
closed = 1;
nodes = (
"432 648 OFFCURVE",
"437 521 OFFCURVE",
"437 350 CURVE",
"533 350 LINE",
"533 582 OFFCURVE",
"500 724 OFFCURVE",
"300 724 CURVE",
"300 648 LINE"
);
}
);
width = 600;
},
{
associatedMasterId = "4C71D2F8-8800-4A35-9F40-3E8E498F68F0";
backgroundImage = {
imagePath = "NEW NEW/O.jpg";
locked = "1";
transform = "{0.89489, 0, 0, 0.89489, 31, -48}";
};
guideLines = (
{
position = "{633, 480}";
}
);
layerId = "0B02E6E4-E184-416A-9DD2-846FAB77DC2D";
name = "Oct 1 20, 11:56";
paths = (
{
closed = 1;
nodes = (
"300 718 LINE",
"100 718 OFFCURVE",
"65 582 OFFCURVE",
"65 350 CURVE",
"161 350 LINE",
"161 521 OFFCURVE",
"168 648 OFFCURVE",
"300 648 CURVE"
);
},
{
closed = 1;
nodes = (
"432 648 OFFCURVE",
"439 521 OFFCURVE",
"439 350 CURVE",
"535 350 LINE",
"535 582 OFFCURVE",
"500 718 OFFCURVE",
"300 718 CURVE",
"300 648 LINE"
);
},
{
closed = 1;
nodes = (
"168 52 OFFCURVE",
"161 179 OFFCURVE",
"161 350 CURVE",
"65 350 LINE",
"65 118 OFFCURVE",
"100 -18 OFFCURVE",
"300 -18 CURVE",
"300 52 LINE"
);
},
{
closed = 1;
nodes = (
"300 -18 LINE",
"500 -18 OFFCURVE",
"535 118 OFFCURVE",
"535 350 CURVE",
"439 350 LINE",
"439 179 OFFCURVE",
"432 52 OFFCURVE",
"300 52 CURVE"
);
}
);
width = 600;
}
);
unicode = 004F;
},
{
color = 4;
glyphname = Oslash;
lastChange = "2022-04-19 08:20:07 +0000";
layers = (
{
layerId = "4C71D2F8-8800-4A35-9F40-3E8E498F68F0";
paths = (
{
closed = 1;
nodes = (
"152 0 LINE",
"161 35 LINE",
"177 71 LINE",
"260 202 LINE",
"404 469 LINE",
"448 574 LINE",
"478 621 LINE",
"528 700 LINE",
"448 700 LINE",
"439 665 LINE",
"423 629 LINE",
"340 498 LINE",
"196 231 LINE",
"152 126 LINE",
"122 79 LINE",
"72 0 LINE"
);
},
{
closed = 1;
nodes = (
"300 65 LINE",
"200 65 OFFCURVE",
"146 145 OFFCURVE",
"146 350 CURVE",
"65 350 LINE",
"65 85 OFFCURVE",
"151 -10 OFFCURVE",
"300 -10 CURVE"
);
},
{
closed = 1;
nodes = (
"449 -10 OFFCURVE",
"535 85 OFFCURVE",
"535 350 CURVE",
"454 350 LINE",
"454 145 OFFCURVE",
"400 65 OFFCURVE",
"300 65 CURVE",
"300 -10 LINE"
);
},
{
closed = 1;
nodes = (
"146 350 LINE",
"146 565 OFFCURVE",
"200 640 OFFCURVE",
"300 640 CURVE",
"300 710 LINE",
"151 710 OFFCURVE",
"65 615 OFFCURVE",
"65 350 CURVE"
);
},
{
closed = 1;
nodes = (
"535 350 LINE",
"535 615 OFFCURVE",
"449 710 OFFCURVE",
"300 710 CURVE",
"300 640 LINE",
"400 640 OFFCURVE",
"454 565 OFFCURVE",
"454 350 CURVE"
);
}
);
width = 600;
},
{
associatedMasterId = "4C71D2F8-8800-4A35-9F40-3E8E498F68F0";
layerId = "4E297D02-04B3-4546-9130-F1DFFD673B6F";
name = "Jun 29 21, 10:38";
paths = (
{
closed = 1;
nodes = (
"535 350 LINE",
"535 615 OFFCURVE",
"449 710 OFFCURVE",
"300 710 CURVE",
"300 640 LINE",
"400 640 OFFCURVE",
"454 565 OFFCURVE",
"454 350 CURVE"
);
},
{
closed = 1;
nodes = (
"300 65 LINE",
"200 65 OFFCURVE",
"146 145 OFFCURVE",
"146 350 CURVE",
"65 350 LINE",
"65 85 OFFCURVE",
"151 -10 OFFCURVE",
"300 -10 CURVE"
);
},
{
closed = 1;
nodes = (
"449 -10 OFFCURVE",
"535 85 OFFCURVE",
"535 350 CURVE",
"454 350 LINE",
"454 145 OFFCURVE",
"400 65 OFFCURVE",
"300 65 CURVE",
"300 -10 LINE"
);
},
{
closed = 1;
nodes = (
"146 350 LINE",
"146 565 OFFCURVE",
"200 640 OFFCURVE",
"300 640 CURVE",
"300 710 LINE",
"151 710 OFFCURVE",
"65 615 OFFCURVE",
"65 350 CURVE"
);
},
{
closed = 1;
nodes = (
"151 0 LINE",
"188 70 LINE",
"223 125 LINE",
"464 584 LINE",
"487 639 LINE",
"532 707 LINE",
"452 707 LINE",
"417 639 LINE",
"382 584 LINE",
"141 125 LINE",
"118 70 LINE",
"71 0 LINE"
);
}
);
width = 600;
},
{
associatedMasterId = "4C71D2F8-8800-4A35-9F40-3E8E498F68F0";
layerId = "081E7FE4-4A4F-4F00-8DB6-86295326A32F";
name = "Sep 14 21, 10:55";
paths = (
{
closed = 1;
nodes = (
"449 -10 OFFCURVE",
"535 85 OFFCURVE",
"535 350 CURVE",
"454 350 LINE",
"454 145 OFFCURVE",
"400 65 OFFCURVE",
"300 65 CURVE",
"300 -10 LINE"
);
},
{
closed = 1;
nodes = (
"146 350 LINE",
"146 565 OFFCURVE",
"200 640 OFFCURVE",
"300 640 CURVE",
"300 710 LINE",
"151 710 OFFCURVE",
"65 615 OFFCURVE",
"65 350 CURVE"
);
},
{
closed = 1;
nodes = (
"535 350 LINE",
"535 615 OFFCURVE",
"449 710 OFFCURVE",
"300 710 CURVE",
"300 640 LINE",
"400 640 OFFCURVE",
"454 565 OFFCURVE",
"454 350 CURVE"
);
},
{
closed = 1;
nodes = (
"300 65 LINE",
"200 65 OFFCURVE",
"146 145 OFFCURVE",
"146 350 CURVE",
"65 350 LINE",
"65 85 OFFCURVE",
"151 -10 OFFCURVE",
"300 -10 CURVE"
);
},
{
closed = 1;
nodes = (
"448 700 LINE",
"439 665 LINE",
"423 629 LINE",
"340 498 LINE",
"260 350 LINE",
"340 350 LINE",
"404 469 LINE",
"448 574 LINE",
"478 621 LINE",
"528 700 LINE"
);
},
{
closed = 1;
nodes = (
"152 0 LINE",
"161 35 LINE",
"177 71 LINE",
"260 202 LINE",
"340 350 LINE",
"260 350 LINE",
"196 231 LINE",
"152 126 LINE",
"122 79 LINE",
"72 0 LINE"
);
}
);
width = 600;
}
);
unicode = 00D8;
},
{
color = 4;
glyphname = OE;
lastChange = "2022-04-19 08:20:07 +0000";
layers = (
{
layerId = "4C71D2F8-8800-4A35-9F40-3E8E498F68F0";
paths = (
{
closed = 1;
nodes = (
"121 350 LINE",
"122 520 OFFCURVE",
"159 630 OFFCURVE",
"244 630 CURVE SMOOTH",
"262 630 OFFCURVE",
"282 625 OFFCURVE",
"305 605 CURVE",
"305 680 LINE",
"273 704 OFFCURVE",
"244 711 OFFCURVE",
"217 711 CURVE SMOOTH",
"95 711 OFFCURVE",
"30 568 OFFCURVE",
"30 350 CURVE"
);
},
{
closed = 1;
nodes = (
"244 -11 OFFCURVE",
"273 -4 OFFCURVE",
"305 20 CURVE",
"305 95 LINE",
"282 75 OFFCURVE",
"262 70 OFFCURVE",
"244 70 CURVE SMOOTH",
"159 70 OFFCURVE",
"122 180 OFFCURVE",
"121 350 CURVE",
"30 350 LINE",
"30 132 OFFCURVE",
"95 -11 OFFCURVE",
"217 -11 CURVE SMOOTH"
);
},
{
closed = 1;
nodes = (
"570 0 LINE",
"570 75 LINE",
"340 75 LINE",
"340 0 LINE"
);
},
{
closed = 1;
nodes = (
"389 0 LINE",
"389 60 LINE",
"395 165 LINE",
"395 230 LINE",
"389 335 LINE",
"389 385 LINE",
"395 490 LINE",
"395 535 LINE",
"389 640 LINE",
"389 700 LINE",
"311 700 LINE",
"305 680 LINE",
"305 20 LINE",
"311 0 LINE"
);
},
{
closed = 1;
nodes = (
"550 325 LINE",
"550 395 LINE",
"340 395 LINE",
"340 325 LINE"
);
},
{
closed = 1;
nodes = (
"560 630 LINE",
"560 700 LINE",
"340 700 LINE",
"340 630 LINE"
);
}
);
width = 600;
}
);
unicode = 0152;
},
{
color = 4;
glyphname = P;
lastChange = "2022-04-19 08:20:07 +0000";
layers = (
{
anchors = (
{
name = bottom;
position = "{300, 0}";
},
{
name = top;
position = "{300, 700}";
}
);
guideLines = (
{
position = "{74, 256}";
}
);
layerId = "4C71D2F8-8800-4A35-9F40-3E8E498F68F0";
paths = (
{
closed = 1;
nodes = (
"306 256 LINE SMOOTH",
"449 256 OFFCURVE",
"538 348 OFFCURVE",
"538 481 CURVE SMOOTH",
"538 625 OFFCURVE",
"434 700 OFFCURVE",
"307 700 CURVE SMOOTH",
"130 700 LINE",
"130 630 LINE",
"296 630 LINE SMOOTH",
"411 630 OFFCURVE",
"448 562 OFFCURVE",
"448 481 CURVE SMOOTH",
"448 389 OFFCURVE",
"400 326 OFFCURVE",
"288 326 CURVE SMOOTH",
"130 326 LINE",
"130 256 LINE"
);
},
{
closed = 1;
nodes = (
"180 0 LINE",
"180 161 LINE",
"174 266 LINE",
"174 326 LINE",
"90 326 LINE",
"90 0 LINE"
);
},
{
closed = 1;
nodes = (
"174 256 LINE",
"174 316 LINE",
"180 421 LINE",
"180 530 LINE",
"90 530 LINE",
"90 256 LINE"
);
},
{
closed = 1;
nodes = (
"180 525 LINE",
"180 535 LINE",
"174 640 LINE",
"174 700 LINE",
"90 700 LINE",
"90 525 LINE"
);
}
);
width = 600;
},
{
associatedMasterId = "4C71D2F8-8800-4A35-9F40-3E8E498F68F0";
layerId = "425B9520-1125-4FFF-B18B-568A6E636B1C";
name = "Sep 21 20, 11:36";
paths = (
{
closed = 1;
nodes = (
"145 0 LINE",
"145 700 LINE",
"55 700 LINE",
"55 0 LINE"
);
},
{
closed = 1;
nodes = (
"95 700 LINE",
"95 630 LINE",
"271 630 LINE SMOOTH",
"396 630 OFFCURVE",
"430 572 OFFCURVE",
"430 486 CURVE SMOOTH",
"430 394 OFFCURVE",
"385 334 OFFCURVE",
"263 335 CURVE SMOOTH",
"95 336 LINE",
"95 265 LINE",
"294 265 LINE SMOOTH",
"436 265 OFFCURVE",
"520 353 OFFCURVE",
"520 486 CURVE SMOOTH",
"520 630 OFFCURVE",
"420 700 OFFCURVE",
"271 700 CURVE SMOOTH"
);
}
);
width = 600;
}
);
unicode = 0050;
},
{
color = 4;
glyphname = Thorn;
lastChange = "2022-04-19 08:20:07 +0000";
layers = (
{
layerId = "4C71D2F8-8800-4A35-9F40-3E8E498F68F0";
paths = (
{
closed = 1;
nodes = (
"311 172 LINE SMOOTH",
"455 172 OFFCURVE",
"538 259 OFFCURVE",
"538 372 CURVE SMOOTH",
"538 496 OFFCURVE",
"439 566 OFFCURVE",
"312 566 CURVE SMOOTH",
"130 566 LINE",
"130 496 LINE",
"306 496 LINE SMOOTH",
"380 496 OFFCURVE",
"448 471 OFFCURVE",
"448 372 CURVE SMOOTH",
"448 268 OFFCURVE",
"376 242 OFFCURVE",
"298 242 CURVE SMOOTH",
"130 242 LINE",
"130 172 LINE"
);
},
{
closed = 1;
nodes = (
"180 0 LINE",
"180 77 LINE",
"174 182 LINE",
"174 242 LINE",
"90 242 LINE",
"90 0 LINE"
);
},
{
closed = 1;
nodes = (
"174 172 LINE",
"174 232 LINE",
"180 337 LINE",
"180 396 LINE",
"90 396 LINE",
"90 172 LINE"
);
},
{
closed = 1;
nodes = (
"180 391 LINE",
"180 401 LINE",
"174 506 LINE",
"174 566 LINE",
"90 566 LINE",
"90 391 LINE"
);
},
{
closed = 1;
nodes = (
"174 506 LINE",
"174 566 LINE",
"180 660 LINE",
"180 700 LINE",
"90 700 LINE",
"90 506 LINE"
);
}
);
width = 600;
}
);
unicode = 00DE;
},
{
color = 4;
glyphname = Q;
lastChange = "2022-04-19 08:20:07 +0000";
layers = (
{
associatedMasterId = "4C71D2F8-8800-4A35-9F40-3E8E498F68F0";
components = (
{
name = O;
}
);
layerId = "BAD2DBCA-8A52-4B4A-975D-DB2AA1C495EF";
name = "Oct 10 20, 23:07";
paths = (
{
closed = 1;
nodes = (
"321 37 LINE",
"356 -90 LINE",
"441 -90 LINE",
"371 37 LINE",
"331 180 LINE",
"256 180 LINE"
);
}
);
width = 600;
},
{
associatedMasterId = "4C71D2F8-8800-4A35-9F40-3E8E498F68F0";
components = (
{
name = O;
}
);
layerId = "11433C16-E391-4A7B-B46F-4041C296200D";
name = "Oct 10 20, 23:17";
paths = (
{
closed = 1;
nodes = (
"321 37 LINE",
"356 -90 LINE",
"441 -90 LINE",
"371 37 LINE",
"331 180 LINE",
"256 180 LINE"
);
}
);
width = 600;
},
{
associatedMasterId = "4C71D2F8-8800-4A35-9F40-3E8E498F68F0";
components = (
{
name = O;
}
);
layerId = "4657408F-7568-471A-946C-8C3178ABDAF1";
name = "Oct 19 20, 16:37";
paths = (
{
closed = 1;
nodes = (
"327 41 LINE",
"375 -90 LINE",
"470 -90 LINE",
"380 41 LINE",
"330 190 LINE",
"240 190 LINE"
);
}
);
width = 600;
},
{
anchors = (
{
name = bottom;
position = "{300, 0}";
},
{
name = top;
position = "{300, 700}";
}
);
components = (
{
name = O;
}
);
layerId = "4C71D2F8-8800-4A35-9F40-3E8E498F68F0";
paths = (
{
closed = 1;
nodes = (
"475 -90 LINE",
"399 43 LINE",
"325 200 LINE",
"265 200 LINE",
"329 43 LINE",
"375 -90 LINE"
);
}
);
width = 600;
},
{
anchors = (
{
name = bottom;
position = "{300, 0}";
},
{
name = top;
position = "{300, 700}";
}
);
associatedMasterId = "4C71D2F8-8800-4A35-9F40-3E8E498F68F0";
backgroundImage = {
imagePath = "20201006_163515.jpg";
locked = "1";
transform = "{0.86887, 0, 0, 0.86887, -136, -152}";
};
components = (
{
name = O;
}
);
layerId = "11201699-53AE-4198-9C22-FC911BFF6827";
name = "Dec 15 20, 14:50";
paths = (
{
closed = 1;
nodes = (
"475 -90 LINE",
"325 200 LINE",
"265 200 LINE",
"375 -90 LINE"
);
}
);
width = 600;
}
);
unicode = 0051;
},
{
color = 4;
glyphname = R;
lastChange = "2022-04-19 08:20:07 +0000";
layers = (
{
associatedMasterId = "4C71D2F8-8800-4A35-9F40-3E8E498F68F0";
backgroundImage = {
imagePath = OLD/R.jpg;
locked = "1";
transform = "{6.11019, 0, 0, 6.11019, 0, -73.828}";
};
guideLines = (
{
position = "{440, 375}";
}
);
layerId = "BA3772BB-5A3C-44E1-9CE6-AF48F430059A";
name = "Oct 6 20, 17:51";
paths = (
{
closed = 1;
nodes = (
"306 321 LINE",
"306 355 LINE",
"565 355 OFFCURVE",
"570 700 OFFCURVE",
"365 700 CURVE SMOOTH",
"130 700 LINE",
"130 630 LINE",
"333 630 LINE SMOOTH",
"468 630 OFFCURVE",
"443 391 OFFCURVE",
"306 391 CURVE SMOOTH",
"130 391 LINE",
"130 321 LINE"
);
},
{
closed = 1;
nodes = (
"180 0 LINE",
"180 700 LINE",
"90 700 LINE",
"90 0 LINE"
);
},
{
closed = 1;
nodes = (
"525 0 LINE",
"393 269 LINE SMOOTH",
"370 315 OFFCURVE",
"338 336 OFFCURVE",
"293 336 CURVE",
"241 321 LINE",
"264 321 OFFCURVE",
"296 294 OFFCURVE",
"314 254 CURVE SMOOTH",
"425 0 LINE"
);
}
);
width = 600;
},
{
annotations = (
{
position = "{680.984, 159.055}";
type = Text;
}
);
associatedMasterId = "4C71D2F8-8800-4A35-9F40-3E8E498F68F0";
guideLines = (
{
position = "{440, 375}";
},
{
position = "{120, 336}";
}
);
layerId = "FAC10188-9F68-4834-B047-42F3140059A8";
name = "Oct 8 20, 09:10";
paths = (
{
closed = 1;
nodes = (
"170 0 LINE",
"170 700 LINE",
"80 700 LINE",
"80 0 LINE"
);
},
{
closed = 1;
nodes = (
"260 266 LINE SMOOTH",
"314 266 OFFCURVE",
"352 235 OFFCURVE",
"366 200 CURVE SMOOTH",
"448 0 LINE",
"548 0 LINE",
"441 221 LINE SMOOTH",
"424 257 OFFCURVE",
"396 286 OFFCURVE",
"352 286 CURVE",
"352 306 LINE",
"447 306 OFFCURVE",
"510 384 OFFCURVE",
"510 500 CURVE SMOOTH",
"510 620 OFFCURVE",
"447 700 OFFCURVE",
"285 700 CURVE SMOOTH",
"110 700 LINE",
"110 629 LINE",
"260 630 LINE SMOOTH",
"356 631 OFFCURVE",
"420 595 OFFCURVE",
"420 500 CURVE SMOOTH",
"420 398 OFFCURVE",
"356 336 OFFCURVE",
"260 336 CURVE SMOOTH",
"110 336 LINE",
"110 266 LINE"
);
}
);
width = 600;
},
{
annotations = (
{
position = "{680.984, 159.055}";
type = Text;
}
);
associatedMasterId = "4C71D2F8-8800-4A35-9F40-3E8E498F68F0";
guideLines = (
{
position = "{440, 375}";
},
{
position = "{120, 336}";
}
);
layerId = "C2148A77-9DC0-40C1-AA0A-5C5E59F1CAE1";
name = "Oct 8 20, 09:10";
paths = (
{
closed = 1;
nodes = (
"170 0 LINE",
"170 700 LINE",
"80 700 LINE",
"80 0 LINE"
);
},
{
closed = 1;
nodes = (
"260 266 LINE SMOOTH",
"314 266 OFFCURVE",
"352 235 OFFCURVE",
"366 200 CURVE SMOOTH",
"448 0 LINE",
"548 0 LINE",
"441 221 LINE SMOOTH",
"424 257 OFFCURVE",
"396 286 OFFCURVE",
"352 286 CURVE",
"352 306 LINE",
"447 306 OFFCURVE",
"510 384 OFFCURVE",
"510 500 CURVE SMOOTH",
"510 620 OFFCURVE",
"447 700 OFFCURVE",
"285 700 CURVE SMOOTH",
"110 700 LINE",
"110 629 LINE",
"260 630 LINE SMOOTH",
"356 631 OFFCURVE",
"420 595 OFFCURVE",
"420 500 CURVE SMOOTH",
"420 398 OFFCURVE",
"356 336 OFFCURVE",
"260 336 CURVE SMOOTH",
"110 336 LINE",
"110 266 LINE"
);
}
);
width = 600;
},
{
anchors = (
{
name = bottom;
position = "{300, 0}";
},
{
name = top;
position = "{300, 700}";
}
);
layerId = "4C71D2F8-8800-4A35-9F40-3E8E498F68F0";
paths = (
{
closed = 1;
nodes = (
"550 0 LINE",
"443 230 LINE SMOOTH",
"426 266 OFFCURVE",
"398 295 OFFCURVE",
"354 295 CURVE",
"354 325 LINE",
"449 325 OFFCURVE",
"512 393 OFFCURVE",
"512 500 CURVE SMOOTH",
"512 614 OFFCURVE",
"440 700 OFFCURVE",
"287 700 CURVE SMOOTH",
"110 700 LINE",
"110 629 LINE",
"262 629 LINE SMOOTH",
"376 629 OFFCURVE",
"422 579 OFFCURVE",
"422 500 CURVE SMOOTH",
"422 407 OFFCURVE",
"358 345 OFFCURVE",
"262 345 CURVE SMOOTH",
"110 345 LINE",
"110 275 LINE",
"262 275 LINE SMOOTH",
"316 275 OFFCURVE",
"354 244 OFFCURVE",
"368 209 CURVE SMOOTH",
"450 0 LINE"
);
},
{
closed = 1;
nodes = (
"180 0 LINE",
"180 170 LINE",
"174 275 LINE",
"174 335 LINE",
"90 335 LINE",
"90 0 LINE"
);
},
{
closed = 1;
nodes = (
"174 285 LINE",
"174 345 LINE",
"180 430 LINE",
"180 443 LINE",
"90 443 LINE",
"90 285 LINE"
);
},
{
closed = 1;
nodes = (
"180 434 LINE",
"180 524 LINE",
"174 629 LINE",
"174 700 LINE",
"90 700 LINE",
"90 434 LINE"
);
}
);
width = 600;
},
{
anchors = (
{
name = bottom;
position = "{300, 0}";
},
{
name = top;
position = "{300, 700}";
}
);
annotations = (
{
position = "{680.984, 159.055}";
type = Text;
}
);
associatedMasterId = "4C71D2F8-8800-4A35-9F40-3E8E498F68F0";
layerId = "D902B4AE-9DBF-4CD8-9F5C-792BBFA3F568";
name = "Dec 15 20, 13:49";
paths = (
{
closed = 1;
nodes = (
"170 0 LINE",
"170 700 LINE",
"80 700 LINE",
"80 0 LINE"
);
},
{
closed = 1;
nodes = (
"262 275 LINE SMOOTH",
"316 275 OFFCURVE",
"354 244 OFFCURVE",
"368 209 CURVE SMOOTH",
"450 0 LINE",
"550 0 LINE",
"443 230 LINE SMOOTH",
"426 266 OFFCURVE",
"398 295 OFFCURVE",
"354 295 CURVE",
"354 325 LINE",
"449 325 OFFCURVE",
"512 393 OFFCURVE",
"512 500 CURVE SMOOTH",
"512 614 OFFCURVE",
"440 700 OFFCURVE",
"287 700 CURVE SMOOTH",
"110 700 LINE",
"110 629 LINE",
"262 630 LINE SMOOTH",
"376 631 OFFCURVE",
"422 579 OFFCURVE",
"422 500 CURVE SMOOTH",
"422 407 OFFCURVE",
"358 345 OFFCURVE",
"262 345 CURVE SMOOTH",
"110 345 LINE",
"110 275 LINE"
);
}
);
width = 600;
}
);
unicode = 0052;
},
{
color = 4;
glyphname = S;
lastChange = "2022-04-19 08:20:07 +0000";
layers = (
{
anchors = (
{
name = bottom;
position = "{300, 0}";
},
{
name = top;
position = "{300, 700}";
}
);
annotations = (
{
position = "{337.867, 785.073}";
text = "do not touch the S";
type = Text;
}
);
guideLines = (
{
position = "{0, -10}";
},
{
angle = 90;
position = "{80, 208}";
}
);
layerId = "4C71D2F8-8800-4A35-9F40-3E8E498F68F0";
paths = (
{
closed = 1;
nodes = (
"448 -10 OFFCURVE",
"518 82 OFFCURVE",
"518 196 CURVE SMOOTH",
"518 295 OFFCURVE",
"454 367 OFFCURVE",
"355 391 CURVE SMOOTH",
"267 412 LINE SMOOTH",
"193 430 OFFCURVE",
"167 470 OFFCURVE",
"167 517 CURVE SMOOTH",
"167 591 OFFCURVE",
"234 640 OFFCURVE",
"300 640 CURVE SMOOTH",
"367 640 OFFCURVE",
"427 598 OFFCURVE",
"423 500 CURVE",
"515 500 LINE",
"519 646 OFFCURVE",
"409 710 OFFCURVE",
"301 710 CURVE SMOOTH",
"184 710 OFFCURVE",
"82 633 OFFCURVE",
"82 512 CURVE SMOOTH",
"82 419 OFFCURVE",
"146 348 OFFCURVE",
"234 327 CURVE SMOOTH",
"322 306 LINE SMOOTH",
"386 291 OFFCURVE",
"433 251 OFFCURVE",
"433 190 CURVE SMOOTH",
"433 124 OFFCURVE",
"378 65 OFFCURVE",
"303 65 CURVE SMOOTH",
"215 65 OFFCURVE",
"164 114 OFFCURVE",
"174 208 CURVE",
"82 208 LINE",
"64 82 OFFCURVE",
"158 -10 OFFCURVE",
"303 -10 CURVE SMOOTH"
);
}
);
width = 600;
},
{
anchors = (
{
name = bottom;
position = "{300, 0}";
},
{
name = top;
position = "{300, 700}";
}
);
annotations = (
{
position = "{337.867, 785.073}";
text = "do not touch the S";
type = Text;
}
);
associatedMasterId = "4C71D2F8-8800-4A35-9F40-3E8E498F68F0";
guideLines = (
{
position = "{0, -10}";
},
{
angle = 90;
position = "{80, 208}";
},
{
angle = 90;
position = "{303, 65}";
},
{
angle = 90;
position = "{520, 186}";
}
);
layerId = "65BBC3F3-8BC4-4EB4-A8AB-F72E203FBF98";
name = "Dec 15 20, 10:43";
paths = (
{
closed = 1;
nodes = (
"64 82 OFFCURVE",
"158 -10 OFFCURVE",
"303 -10 CURVE SMOOTH",
"448 -10 OFFCURVE",
"520 82 OFFCURVE",
"520 196 CURVE SMOOTH",
"520 295 OFFCURVE",
"454 367 OFFCURVE",
"355 391 CURVE SMOOTH",
"267 412 LINE SMOOTH",
"193 430 OFFCURVE",
"172 470 OFFCURVE",
"172 517 CURVE SMOOTH",
"172 591 OFFCURVE",
"234 640 OFFCURVE",
"300 640 CURVE SMOOTH",
"367 640 OFFCURVE",
"427 598 OFFCURVE",
"423 500 CURVE",
"515 500 LINE",
"519 646 OFFCURVE",
"409 710 OFFCURVE",
"301 710 CURVE SMOOTH",
"184 710 OFFCURVE",
"82 633 OFFCURVE",
"82 512 CURVE SMOOTH",
"82 419 OFFCURVE",
"146 349 OFFCURVE",
"234 328 CURVE SMOOTH",
"322 307 LINE SMOOTH",
"386 292 OFFCURVE",
"428 251 OFFCURVE",
"428 190 CURVE SMOOTH",
"428 124 OFFCURVE",
"378 65 OFFCURVE",
"303 65 CURVE SMOOTH",
"215 65 OFFCURVE",
"164 114 OFFCURVE",
"174 208 CURVE",
"82 208 LINE"
);
}
);
width = 600;
}
);
unicode = 0053;
},
{
color = 4;
glyphname = Germandbls;
lastChange = "2022-04-19 08:20:07 +0000";
layers = (
{
guideLines = (
{
position = "{180, 535}";
},
{
position = "{174, 640}";
},
{
angle = 90;
position = "{275, 70}";
},
{
position = "{342, 414}";
}
);
layerId = "4C71D2F8-8800-4A35-9F40-3E8E498F68F0";
paths = (
{
closed = 1;
nodes = (
"160 0 LINE",
"160 422 LINE",
"70 422 LINE",
"70 0 LINE"
);
},
{
closed = 1;
nodes = (
"160 422 LINE",
"160 560 OFFCURVE",
"203 630 OFFCURVE",
"275 630 CURVE",
"275 700 LINE",
"115 700 OFFCURVE",
"70 575 OFFCURVE",
"70 422 CURVE"
);
},
{
closed = 1;
nodes = (
"313 0 LINE SMOOTH",
"467 0 OFFCURVE",
"540 101 OFFCURVE",
"540 206 CURVE SMOOTH",
"540 306 OFFCURVE",
"474 383 OFFCURVE",
"342 384 CURVE",
"342 414 LINE",
"360 414 OFFCURVE",
"380 424 OFFCURVE",
"413 469 CURVE SMOOTH",
"510 600 LINE",
"510 700 LINE",
"275 700 LINE",
"275 630 LINE",
"433 630 LINE",
"275 425 LINE",
"275 355 LINE",
"394 355 OFFCURVE",
"449 283 OFFCURVE",
"449 206 CURVE SMOOTH",
"449 136 OFFCURVE",
"404 75 OFFCURVE",
"313 75 CURVE SMOOTH",
"275 75 LINE",
"275 0 LINE"
);
}
);
width = 600;
},
{
associatedMasterId = "4C71D2F8-8800-4A35-9F40-3E8E498F68F0";
layerId = "B59CFF75-B08C-4B5E-8BDB-6767C7FE812F";
name = "Sep 14 21, 15:25";
paths = (
{
closed = 1;
nodes = (
"310 0 LINE",
"463 0 OFFCURVE",
"535 107 OFFCURVE",
"535 211 CURVE SMOOTH",
"535 294 OFFCURVE",
"480 375 OFFCURVE",
"377 375 CURVE",
"285 355 LINE",
"393 355 OFFCURVE",
"445 285 OFFCURVE",
"445 211 CURVE SMOOTH",
"445 142 OFFCURVE",
"399 67 OFFCURVE",
"285 70 CURVE",
"285 0 LINE"
);
},
{
closed = 1;
nodes = (
"170 0 LINE",
"170 442 LINE",
"80 442 LINE",
"80 0 LINE"
);
},
{
closed = 0;
nodes = (
"271 433 LINE"
);
},
{
closed = 1;
nodes = (
"170 442 LINE",
"170 580 OFFCURVE",
"218 630 OFFCURVE",
"290 630 CURVE",
"290 700 LINE",
"130 700 OFFCURVE",
"80 595 OFFCURVE",
"80 442 CURVE"
);
},
{
closed = 1;
nodes = (
"293 375 LINE",
"339 375 OFFCURVE",
"372 390 OFFCURVE",
"393 436 CURVE SMOOTH",
"515 700 LINE",
"415 700 LINE",
"324 462 LINE SMOOTH",
"308 420 OFFCURVE",
"274 395 OFFCURVE",
"251 395 CURVE",
"293 345 LINE"
);
},
{
closed = 1;
nodes = (
"453 630 LINE",
"453 700 LINE",
"290 700 LINE",
"290 630 LINE"
);
}
);
width = 600;
},
{
associatedMasterId = "4C71D2F8-8800-4A35-9F40-3E8E498F68F0";
guideLines = (
{
position = "{180, 535}";
},
{
position = "{174, 640}";
}
);
layerId = "FA4FF0EF-8228-40A7-B3E6-A1AF15BA53E9";
name = "Sep 15 21, 08:46";
paths = (
{
closed = 1;
nodes = (
"310 0 LINE",
"463 0 OFFCURVE",
"535 107 OFFCURVE",
"535 211 CURVE SMOOTH",
"535 294 OFFCURVE",
"480 375 OFFCURVE",
"377 375 CURVE",
"285 355 LINE",
"393 355 OFFCURVE",
"445 285 OFFCURVE",
"445 211 CURVE SMOOTH",
"445 142 OFFCURVE",
"399 67 OFFCURVE",
"285 70 CURVE",
"285 0 LINE"
);
},
{
closed = 1;
nodes = (
"170 0 LINE",
"170 442 LINE",
"80 442 LINE",
"80 0 LINE"
);
},
{
closed = 1;
nodes = (
"170 442 LINE",
"170 580 OFFCURVE",
"218 630 OFFCURVE",
"290 630 CURVE",
"290 700 LINE",
"130 700 OFFCURVE",
"80 595 OFFCURVE",
"80 442 CURVE"
);
},
{
closed = 1;
nodes = (
"293 375 LINE",
"393 436 LINE",
"515 700 LINE",
"415 700 LINE",
"398 640 LINE",
"352 535 LINE",
"308 420 LINE"
);
},
{
closed = 1;
nodes = (
"453 630 LINE",
"453 700 LINE",
"290 700 LINE",
"290 630 LINE"
);
}
);
width = 600;
},
{
associatedMasterId = "4C71D2F8-8800-4A35-9F40-3E8E498F68F0";
guideLines = (
{
position = "{180, 535}";
},
{
position = "{174, 640}";
},
{
angle = 90;
position = "{275, 70}";
},
{
position = "{342, 414}";
}
);
layerId = "0A98D5D9-5003-46AC-A44C-F9954B2021DB";
name = "Sep 21 21, 13:58";
paths = (
{
closed = 1;
nodes = (
"160 0 LINE",
"160 422 LINE",
"70 422 LINE",
"70 0 LINE"
);
},
{
closed = 1;
nodes = (
"160 422 LINE",
"160 560 OFFCURVE",
"203 630 OFFCURVE",
"275 630 CURVE",
"275 700 LINE",
"115 700 OFFCURVE",
"70 575 OFFCURVE",
"70 422 CURVE"
);
},
{
closed = 1;
nodes = (
"332 355 LINE",
"332 414 LINE",
"350 414 OFFCURVE",
"368 427 OFFCURVE",
"403 469 CURVE SMOOTH",
"510 600 LINE",
"510 700 LINE",
"275 700 LINE",
"275 630 LINE",
"433 630 LINE",
"265 425 LINE",
"265 355 LINE"
);
},
{
closed = 1;
nodes = (
"465 0 OFFCURVE",
"540 100 OFFCURVE",
"540 198 CURVE SMOOTH",
"540 291 OFFCURVE",
"473 383 OFFCURVE",
"332 384 CURVE",
"332 414 LINE",
"265 355 LINE",
"393 355 OFFCURVE",
"450 278 OFFCURVE",
"450 205 CURVE SMOOTH",
"450 139 OFFCURVE",
"403 75 OFFCURVE",
"303 75 CURVE SMOOTH",
"265 75 LINE",
"265 0 LINE",
"303 0 LINE SMOOTH"
);
}
);
width = 600;
}
);
unicode = 1E9E;
},
{
color = 4;
glyphname = T;
lastChange = "2022-04-19 08:20:07 +0000";
layers = (
{
anchors = (
{
name = bottom;
position = "{300, 0}";
},
{
name = center;
position = "{300, 350}";
},
{
name = top;
position = "{300, 700}";
}
);
layerId = "4C71D2F8-8800-4A35-9F40-3E8E498F68F0";
paths = (
{
closed = 1;
nodes = (
"345 0 LINE",
"345 524 LINE",
"339 629 LINE",
"339 700 LINE",
"261 700 LINE",
"261 629 LINE",
"255 524 LINE",
"255 0 LINE"
);
},
{
closed = 1;
nodes = (
"530 630 LINE",
"530 700 LINE",
"70 700 LINE",
"70 630 LINE"
);
}
);
width = 600;
},
{
anchors = (
{
name = bottom;
position = "{300, 0}";
},
{
name = center;
position = "{300, 350}";
},
{
name = top;
position = "{300, 700}";
}
);
associatedMasterId = "4C71D2F8-8800-4A35-9F40-3E8E498F68F0";
layerId = "EE799BD1-1FE0-46DE-B3CA-5BB3E16E1D75";
name = "Dec 15 20, 13:52";
paths = (
{
closed = 1;
nodes = (
"70 630 LINE",
"530 630 LINE",
"530 700 LINE",
"70 700 LINE"
);
},
{
closed = 1;
nodes = (
"345 0 LINE",
"345 268 LINE",
"339 630 LINE",
"261 630 LINE",
"255 268 LINE",
"255 0 LINE"
);
}
);
width = 600;
}
);
unicode = 0054;
},
{
color = 4;
glyphname = Tbar;
lastChange = "2022-04-19 08:20:07 +0000";
layers = (
{
layerId = "4C71D2F8-8800-4A35-9F40-3E8E498F68F0";
paths = (
{
closed = 1;
nodes = (
"345 0 LINE",
"345 240 LINE",
"339 290 LINE",
"339 360 LINE",
"345 420 LINE",
"345 524 LINE",
"339 629 LINE",
"339 700 LINE",
"261 700 LINE",
"261 629 LINE",
"255 524 LINE",
"255 420 LINE",
"261 360 LINE",
"261 290 LINE",
"255 240 LINE",
"255 0 LINE"
);
},
{
closed = 1;
nodes = (
"471 290 LINE",
"471 360 LINE",
"129 360 LINE",
"129 290 LINE"
);
},
{
closed = 1;
nodes = (
"530 630 LINE",
"530 700 LINE",
"70 700 LINE",
"70 630 LINE"
);
}
);
width = 600;
}
);
unicode = 0166;
},
{
color = 4;
glyphname = Tcedilla;
lastChange = "2022-04-19 08:20:07 +0000";
layers = (
{
components = (
{
name = T;
}
);
layerId = "4C71D2F8-8800-4A35-9F40-3E8E498F68F0";
paths = (
{
closed = 1;
nodes = (
"425 -146 LINE",
"425 -91 OFFCURVE",
"377 -54 OFFCURVE",
"298 -54 CURVE SMOOTH",
"286 -54 OFFCURVE",
"275 -57 OFFCURVE",
"260 -62 CURVE",
"253 -92 LINE",
"261 -91 OFFCURVE",
"270 -90 OFFCURVE",
"275 -90 CURVE SMOOTH",
"326 -90 OFFCURVE",
"355 -112 OFFCURVE",
"355 -146 CURVE"
);
},
{
closed = 1;
nodes = (
"303 -200 LINE",
"269 -200 OFFCURVE",
"251 -178 OFFCURVE",
"251 -146 CURVE",
"181 -146 LINE",
"181 -202 OFFCURVE",
"227 -245 OFFCURVE",
"303 -245 CURVE"
);
},
{
closed = 1;
nodes = (
"374 -245 OFFCURVE",
"425 -202 OFFCURVE",
"425 -146 CURVE",
"355 -146 LINE",
"355 -178 OFFCURVE",
"337 -200 OFFCURVE",
"303 -200 CURVE",
"303 -245 LINE"
);
},
{
closed = 1;
nodes = (
"276 -83 LINE",
"303 -92 LINE",
"345 0 LINE",
"255 31 LINE",
"253 -92 LINE"
);
}
);
width = 600;
}
);
unicode = 0162;
},
{
color = 4;
glyphname = U;
lastChange = "2022-04-19 08:20:07 +0000";
layers = (
{
anchors = (
{
name = bottom;
position = "{300, 0}";
},
{
name = ogonek;
position = "{407, 10}";
},
{
name = top;
position = "{300, 700}";
},
{
name = topright;
position = "{580, 700}";
}
);
guideLines = (
{
position = "{0, -10}";
}
);
layerId = "4C71D2F8-8800-4A35-9F40-3E8E498F68F0";
paths = (
{
closed = 1;
nodes = (
"460 -10 OFFCURVE",
"510 85 OFFCURVE",
"510 228 CURVE",
"420 228 LINE",
"420 100 OFFCURVE",
"372 65 OFFCURVE",
"300 65 CURVE",
"300 -10 LINE"
);
},
{
closed = 1;
nodes = (
"300 65 LINE",
"228 65 OFFCURVE",
"180 100 OFFCURVE",
"180 228 CURVE",
"90 228 LINE",
"90 85 OFFCURVE",
"140 -10 OFFCURVE",
"300 -10 CURVE"
);
},
{
closed = 1;
nodes = (
"180 228 LINE",
"180 700 LINE",
"90 700 LINE",
"90 228 LINE"
);
},
{
closed = 1;
nodes = (
"510 228 LINE",
"510 700 LINE",
"420 700 LINE",
"420 228 LINE"
);
}
);
width = 600;
},
{
associatedMasterId = "4C71D2F8-8800-4A35-9F40-3E8E498F68F0";
backgroundImage = {
imagePath = OLD/U.jpg;
locked = "1";
transform = "{6.21383, 0, 0, 6.21383, 30, -34.7}";
};
layerId = "6C97FAB0-2568-49BA-9B47-ED05B1DB1991";
name = "Sep 22 20, 14:04";
paths = (
{
closed = 1;
nodes = (
"55 91 OFFCURVE",
"121 -10 OFFCURVE",
"270 -10 CURVE SMOOTH",
"419 -10 OFFCURVE",
"485 91 OFFCURVE",
"485 350 CURVE",
"395 350 LINE",
"395 116 OFFCURVE",
"351 53 OFFCURVE",
"270 53 CURVE SMOOTH",
"189 53 OFFCURVE",
"145 116 OFFCURVE",
"145 350 CURVE",
"55 350 LINE"
);
},
{
closed = 1;
nodes = (
"55 350 LINE",
"145 350 LINE",
"145 700 LINE",
"55 700 LINE"
);
},
{
closed = 1;
nodes = (
"395 350 LINE",
"485 350 LINE",
"485 700 LINE",
"395 700 LINE"
);
}
);
width = 600;
},
{
associatedMasterId = "4C71D2F8-8800-4A35-9F40-3E8E498F68F0";
backgroundImage = {
imagePath = OLD/U.jpg;
locked = "1";
transform = "{6.21383, 0, 0, 6.21383, 30, -34.7}";
};
layerId = "4BE8FEA2-87EC-47E7-9705-029430DC2E02";
name = "Sep 26 20, 12:56";
paths = (
{
closed = 1;
nodes = (
"90 350 LINE",
"180 350 LINE",
"180 700 LINE",
"90 700 LINE"
);
},
{
closed = 1;
nodes = (
"178 52 OFFCURVE",
"180 179 OFFCURVE",
"180 350 CURVE",
"90 350 LINE",
"90 118 OFFCURVE",
"110 -18 OFFCURVE",
"300 -18 CURVE",
"300 52 LINE"
);
},
{
closed = 1;
nodes = (
"420 700 LINE",
"420 350 LINE",
"510 350 LINE",
"510 700 LINE"
);
},
{
closed = 1;
nodes = (
"300 -18 LINE",
"490 -18 OFFCURVE",
"510 118 OFFCURVE",
"510 350 CURVE",
"420 350 LINE",
"420 179 OFFCURVE",
"422 52 OFFCURVE",
"300 52 CURVE"
);
}
);
width = 600;
},
{
associatedMasterId = "4C71D2F8-8800-4A35-9F40-3E8E498F68F0";
backgroundImage = {
imagePath = OLD/U.jpg;
locked = "1";
transform = "{6.21383, 0, 0, 6.21383, 30, -34.7}";
};
layerId = "68B900F9-B473-474F-A18F-A36C776F4653";
name = "Oct 6 20, 18:42";
paths = (
{
closed = 1;
nodes = (
"90 330 LINE",
"180 330 LINE",
"180 700 LINE",
"90 700 LINE"
);
},
{
closed = 1;
nodes = (
"178 52 OFFCURVE",
"180 159 OFFCURVE",
"180 330 CURVE",
"90 330 LINE",
"90 98 OFFCURVE",
"110 -18 OFFCURVE",
"300 -18 CURVE",
"300 52 LINE"
);
},
{
closed = 1;
nodes = (
"420 700 LINE",
"420 330 LINE",
"510 330 LINE",
"510 700 LINE"
);
},
{
closed = 1;
nodes = (
"300 -18 LINE",
"490 -18 OFFCURVE",
"510 98 OFFCURVE",
"510 330 CURVE",
"420 330 LINE",
"420 159 OFFCURVE",
"422 52 OFFCURVE",
"300 52 CURVE"
);
}
);
width = 600;
}
);
unicode = 0055;
},
{
color = 4;
glyphname = V;
lastChange = "2022-04-19 08:20:07 +0000";
layers = (
{
anchors = (
{
name = bottom;
position = "{300, 0}";
},
{
name = top;
position = "{300, 700}";
}
);
layerId = "4C71D2F8-8800-4A35-9F40-3E8E498F68F0";
paths = (
{
closed = 1;
nodes = (
"375 0 LINE",
"555 700 LINE",
"460 700 LINE",
"318 70 LINE",
"288 70 LINE",
"145 700 LINE",
"45 700 LINE",
"230 0 LINE"
);
}
);
width = 600;
},
{
associatedMasterId = "4C71D2F8-8800-4A35-9F40-3E8E498F68F0";
layerId = "E5A7B4C1-48F7-4F5B-A307-866084D3B228";
name = "Oct 8 20, 14:59";
paths = (
{
closed = 1;
nodes = (
"440 700 LINE",
"309 26 LINE",
"363 75 LINE",
"243 75 LINE",
"297 26 LINE",
"165 700 LINE",
"65 700 LINE",
"231 0 LINE",
"375 0 LINE",
"535 700 LINE"
);
}
);
width = 600;
},
{
associatedMasterId = "4C71D2F8-8800-4A35-9F40-3E8E498F68F0";
layerId = "57159434-0FB5-473E-8509-1C8EEC9D1470";
name = "Oct 8 20, 14:59";
paths = (
{
closed = 1;
nodes = (
"440 700 LINE",
"309 26 LINE",
"363 75 LINE",
"243 75 LINE",
"297 26 LINE",
"165 700 LINE",
"65 700 LINE",
"231 0 LINE",
"375 0 LINE",
"535 700 LINE"
);
}
);
width = 600;
},
{
associatedMasterId = "4C71D2F8-8800-4A35-9F40-3E8E498F68F0";
layerId = "1B261E36-2911-41F0-9E04-85928CFCFEBE";
name = "Oct 8 20, 15:00";
paths = (
{
closed = 1;
nodes = (
"440 700 LINE",
"309 26 LINE",
"363 75 LINE",
"243 75 LINE",
"297 26 LINE",
"165 700 LINE",
"65 700 LINE",
"231 0 LINE",
"375 0 LINE",
"535 700 LINE"
);
}
);
width = 600;
},
{
associatedMasterId = "4C71D2F8-8800-4A35-9F40-3E8E498F68F0";
layerId = "81524351-F08B-4184-BB4A-814342E0F32D";
name = "Nov 4 20, 18:21";
paths = (
{
closed = 1;
nodes = (
"460 700 LINE",
"319 26 LINE",
"363 75 LINE",
"243 75 LINE",
"287 26 LINE",
"145 700 LINE",
"45 700 LINE",
"221 0 LINE",
"385 0 LINE",
"555 700 LINE"
);
}
);
width = 600;
}
);
unicode = 0056;
},
{
color = 4;
glyphname = W;
lastChange = "2022-04-19 08:20:07 +0000";
layers = (
{
anchors = (
{
name = bottom;
position = "{300, 0}";
},
{
name = top;
position = "{300, 700}";
}
);
layerId = "4C71D2F8-8800-4A35-9F40-3E8E498F68F0";
paths = (
{
closed = 1;
nodes = (
"241 0 LINE",
"285 356 LINE",
"315 356 LINE",
"359 0 LINE",
"504 0 LINE",
"555 700 LINE",
"455 700 LINE",
"441 75 LINE",
"411 75 LINE",
"366 426 LINE",
"234 426 LINE",
"189 75 LINE",
"159 75 LINE",
"145 700 LINE",
"45 700 LINE",
"96 0 LINE"
);
}
);
width = 600;
},
{
anchors = (
{
name = bottom;
position = "{300, 0}";
},
{
name = top;
position = "{300, 700}";
}
);
associatedMasterId = "4C71D2F8-8800-4A35-9F40-3E8E498F68F0";
backgroundImage = {
imagePath = OLD/W.jpg;
locked = "1";
transform = "{-6.15872, 0, 0, -6.15872, 579, 750}";
};
layerId = "FF9CE79C-67AB-490D-B281-3015E52041DA";
name = "Dec 29 20, 09:23";
paths = (
{
closed = 1;
nodes = (
"513 -1 LINE",
"564 700 LINE",
"464 700 LINE",
"450 74 LINE",
"420 74 LINE",
"366 426 LINE",
"300 426 LINE",
"300 356 LINE",
"315 356 LINE",
"368 -1 LINE"
);
},
{
closed = 1;
nodes = (
"232 -1 LINE",
"285 356 LINE",
"300 356 LINE",
"300 426 LINE",
"234 426 LINE",
"180 74 LINE",
"150 74 LINE",
"136 700 LINE",
"36 700 LINE",
"87 -1 LINE"
);
}
);
width = 600;
}
);
unicode = 0057;
},
{
color = 4;
glyphname = X;
lastChange = "2022-04-19 08:20:07 +0000";
layers = (
{
anchors = (
{
name = bottom;
position = "{300, 0}";
},
{
name = top;
position = "{300, 700}";
}
);
layerId = "4C71D2F8-8800-4A35-9F40-3E8E498F68F0";
paths = (
{
closed = 1;
nodes = (
"160 0 LINE",
"285 323 LINE",
"315 323 LINE",
"445 0 LINE",
"540 0 LINE",
"365 393 LINE",
"235 393 LINE",
"60 0 LINE"
);
},
{
closed = 1;
nodes = (
"365 323 LINE",
"540 700 LINE",
"445 700 LINE",
"315 393 LINE",
"285 393 LINE",
"160 700 LINE",
"60 700 LINE",
"235 323 LINE"
);
}
);
width = 600;
},
{
associatedMasterId = "4C71D2F8-8800-4A35-9F40-3E8E498F68F0";
layerId = "382D039D-CA36-4043-B9E4-86307069C2E4";
name = "Oct 6 20, 17:31";
paths = (
{
closed = 1;
nodes = (
"97 -1 LINE",
"192 -1 LINE",
"290 311 LINE",
"310 311 LINE",
"398 -1 LINE",
"503 -1 LINE",
"354 381 LINE",
"246 381 LINE"
);
},
{
closed = 1;
nodes = (
"354 311 LINE",
"503 700 LINE",
"398 700 LINE",
"310 381 LINE",
"290 381 LINE",
"192 700 LINE",
"97 700 LINE",
"246 311 LINE"
);
}
);
width = 600;
},
{
associatedMasterId = "4C71D2F8-8800-4A35-9F40-3E8E498F68F0";
layerId = "E96D6159-1DDD-4F6D-A2C1-5A5B6A6254E5";
name = "Oct 6 20, 17:44";
paths = (
{
closed = 1;
nodes = (
"85 -1 LINE",
"180 -1 LINE",
"290 344 LINE",
"310 344 LINE",
"410 -1 LINE",
"515 -1 LINE",
"354 414 LINE",
"246 414 LINE"
);
},
{
closed = 1;
nodes = (
"354 344 LINE",
"515 700 LINE",
"410 700 LINE",
"310 414 LINE",
"290 414 LINE",
"180 700 LINE",
"85 700 LINE",
"246 344 LINE"
);
}
);
width = 600;
},
{
anchors = (
{
name = bottom;
position = "{300, 0}";
},
{
name = top;
position = "{300, 700}";
}
);
associatedMasterId = "4C71D2F8-8800-4A35-9F40-3E8E498F68F0";
layerId = "A2212C4E-BBE3-4CBE-BFEB-070F8495CA07";
name = "Dec 15 20, 14:05";
paths = (
{
closed = 1;
nodes = (
"236 313 LINE",
"364 313 LINE",
"530 700 LINE",
"435 700 LINE",
"315 388 LINE",
"285 388 LINE",
"170 700 LINE",
"70 700 LINE"
);
},
{
closed = 1;
nodes = (
"364 388 LINE",
"236 388 LINE",
"70 0 LINE",
"165 0 LINE",
"285 313 LINE",
"315 313 LINE",
"430 0 LINE",
"530 0 LINE"
);
}
);
width = 600;
},
{
anchors = (
{
name = bottom;
position = "{300, 0}";
},
{
name = top;
position = "{300, 700}";
}
);
associatedMasterId = "4C71D2F8-8800-4A35-9F40-3E8E498F68F0";
layerId = "77E506C2-05F2-4316-8ADB-DD1BAAD5687F";
name = "Apr 14 21, 11:28";
paths = (
{
closed = 1;
nodes = (
"160 0 LINE",
"240 200 LINE",
"285 323 LINE",
"315 323 LINE",
"360 200 LINE",
"445 0 LINE",
"540 0 LINE",
"365 393 LINE",
"235 393 LINE",
"60 0 LINE"
);
},
{
closed = 1;
nodes = (
"365 323 LINE",
"540 700 LINE",
"445 700 LINE",
"355 500 LINE",
"315 393 LINE",
"285 393 LINE",
"244 500 LINE",
"160 700 LINE",
"60 700 LINE",
"235 323 LINE"
);
}
);
width = 600;
}
);
unicode = 0058;
},
{
color = 4;
glyphname = Y;
lastChange = "2022-04-19 08:20:07 +0000";
layers = (
{
associatedMasterId = "4C71D2F8-8800-4A35-9F40-3E8E498F68F0";
layerId = "1F19F818-0F39-42DA-B783-FD1BC4A3A1C3";
name = "Sep 22 20, 16:01";
paths = (
{
closed = 1;
nodes = (
"30 700 LINE",
"180 200 LINE",
"260 200 LINE",
"140 700 LINE"
);
},
{
closed = 1;
nodes = (
"415 700 LINE",
"290 200 LINE",
"370 200 LINE",
"515 700 LINE"
);
},
{
closed = 1;
nodes = (
"215 275 LINE",
"215 200 LINE",
"350 200 LINE",
"350 275 LINE"
);
},
{
closed = 1;
nodes = (
"230 0 LINE",
"320 0 LINE",
"320 240 LINE",
"230 240 LINE"
);
}
);
width = 550;
},
{
associatedMasterId = "4C71D2F8-8800-4A35-9F40-3E8E498F68F0";
backgroundImage = {
imagePath = "NEW NEW/Y.jpg";
locked = "1";
transform = "{0.88736, 0, 0, 0.88736, 30, -15}";
};
layerId = "4B129C26-9C59-4B31-A70E-0587BE498287";
name = "Oct 6 20, 18:00";
paths = (
{
closed = 1;
nodes = (
"255 310 LINE",
"255 0 LINE",
"345 0 LINE",
"345 310 LINE"
);
},
{
closed = 1;
nodes = (
"309 250 LINE",
"345 250 LINE",
"530 700 LINE",
"435 700 LINE",
"309 355 LINE"
);
},
{
closed = 1;
nodes = (
"165 700 LINE",
"70 700 LINE",
"255 250 LINE",
"291 250 LINE",
"291 355 LINE"
);
}
);
width = 600;
},
{
associatedMasterId = "4C71D2F8-8800-4A35-9F40-3E8E498F68F0";
backgroundImage = {
imagePath = "NEW NEW/Y.jpg";
locked = "1";
transform = "{0.88736, 0, 0, 0.88736, 30, -15}";
};
layerId = "B163676B-31BD-409A-A8DF-F8F40FFB91FF";
name = "Oct 6 20, 18:02";
paths = (
{
closed = 1;
nodes = (
"255 320 LINE",
"255 0 LINE",
"345 0 LINE",
"345 320 LINE"
);
},
{
closed = 1;
nodes = (
"291 341 OFFCURVE",
"285 372 OFFCURVE",
"276 397 CURVE",
"155 700 LINE",
"60 700 LINE",
"255 250 LINE",
"291 320 LINE"
);
},
{
closed = 1;
nodes = (
"345 250 LINE",
"540 700 LINE",
"445 700 LINE",
"324 397 LINE",
"315 372 OFFCURVE",
"309 341 OFFCURVE",
"309 320 CURVE"
);
}
);
width = 600;
},
{
associatedMasterId = "4C71D2F8-8800-4A35-9F40-3E8E498F68F0";
layerId = "EEA97BE6-0FD4-4895-9517-6F8F09E10BBA";
name = "Oct 8 20, 15:09";
paths = (
{
closed = 1;
nodes = (
"255 300 LINE",
"255 0 LINE",
"345 0 LINE",
"345 300 LINE"
);
},
{
closed = 1;
nodes = (
"291 321 OFFCURVE",
"285 352 OFFCURVE",
"276 377 CURVE",
"155 700 LINE",
"60 700 LINE",
"255 230 LINE",
"291 300 LINE"
);
},
{
closed = 1;
nodes = (
"345 230 LINE",
"540 700 LINE",
"445 700 LINE",
"324 377 LINE",
"315 352 OFFCURVE",
"309 321 OFFCURVE",
"309 300 CURVE"
);
}
);
width = 600;
},
{
anchors = (
{
name = bottom;
position = "{300, 0}";
},
{
name = top;
position = "{300, 700}";
},
{
name = topleft;
position = "{20, 700}";
}
);
associatedMasterId = "4C71D2F8-8800-4A35-9F40-3E8E498F68F0";
guideLines = (
{
position = "{345, 130}";
},
{
position = "{413, 448}";
}
);
layerId = "BF1E023D-D37A-4857-A2A5-ED5A0165F1DC";
name = "Apr 14 21, 11:21";
paths = (
{
closed = 1;
nodes = (
"324 130 LINE",
"540 700 LINE",
"448 700 LINE",
"356 439 LINE",
"315 305 LINE",
"285 305 LINE",
"244 439 LINE",
"157 700 LINE",
"60 700 LINE",
"276 130 LINE"
);
},
{
closed = 1;
nodes = (
"345 0 LINE",
"345 130 LINE",
"339 235 LINE",
"339 305 LINE",
"261 305 LINE",
"261 235 LINE",
"255 130 LINE",
"255 0 LINE"
);
}
);
width = 600;
},
{
anchors = (
{
name = bottom;
position = "{300, 0}";
},
{
name = top;
position = "{300, 700}";
},
{
name = topleft;
position = "{45, 700}";
}
);
associatedMasterId = "4C71D2F8-8800-4A35-9F40-3E8E498F68F0";
guideLines = (
{
position = "{345, 130}";
},
{
position = "{413, 448}";
}
);
layerId = "F0559F6B-F628-4BB6-90CD-9054C75E4AF8";
name = "Apr 14 21, 11:29";
paths = (
{
closed = 1;
nodes = (
"345 0 LINE",
"345 151 LINE",
"339 286 LINE",
"261 286 LINE",
"255 151 LINE",
"255 0 LINE"
);
},
{
closed = 1;
nodes = (
"327 241 LINE",
"540 700 LINE",
"445 700 LINE",
"355 500 LINE",
"315 393 LINE",
"285 393 LINE",
"244 500 LINE",
"160 700 LINE",
"60 700 LINE",
"273 241 LINE"
);
}
);
width = 600;
},
{
anchors = (
{
name = bottom;
position = "{300, 0}";
},
{
name = top;
position = "{300, 700}";
},
{
name = topleft;
position = "{45, 700}";
}
);
associatedMasterId = "4C71D2F8-8800-4A35-9F40-3E8E498F68F0";
guideLines = (
{
position = "{345, 130}";
},
{
position = "{413, 448}";
}
);
layerId = "CF4110DB-ACD2-4FFD-8F80-6CAAE4F525A9";
name = "Apr 14 21, 11:29";
paths = (
{
closed = 1;
nodes = (
"345 0 LINE",
"345 151 LINE",
"339 286 LINE",
"261 286 LINE",
"255 151 LINE",
"255 0 LINE"
);
},
{
closed = 1;
nodes = (
"327 241 LINE",
"540 700 LINE",
"445 700 LINE",
"355 500 LINE",
"315 393 LINE",
"285 393 LINE",
"244 500 LINE",
"160 700 LINE",
"60 700 LINE",
"273 241 LINE"
);
}
);
width = 600;
},
{
anchors = (
{
name = bottom;
position = "{300, 0}";
},
{
name = top;
position = "{300, 700}";
},
{
name = topleft;
position = "{45, 700}";
}
);
guideLines = (
{
position = "{345, 130}";
},
{
position = "{413, 448}";
}
);
layerId = "4C71D2F8-8800-4A35-9F40-3E8E498F68F0";
paths = (
{
closed = 1;
nodes = (
"324 210 LINE",
"555 700 LINE",
"463 700 LINE",
"315 355 LINE",
"285 355 LINE",
"142 700 LINE",
"45 700 LINE",
"276 210 LINE"
);
},
{
closed = 1;
nodes = (
"345 0 LINE",
"345 151 LINE",
"339 286 LINE",
"261 286 LINE",
"255 151 LINE",
"255 0 LINE"
);
}
);
width = 600;
}
);
unicode = 0059;
},
{
color = 4;
glyphname = Z;
lastChange = "2022-04-19 08:20:07 +0000";
layers = (
{
associatedMasterId = "4C71D2F8-8800-4A35-9F40-3E8E498F68F0";
layerId = "D387D496-6F7E-4E7B-8A50-99954E16418D";
name = "Oct 7 20, 17:22";
paths = (
{
closed = 1;
nodes = (
"80 0 LINE",
"520 0 LINE",
"520 75 LINE",
"80 75 LINE"
);
},
{
closed = 1;
nodes = (
"80 630 LINE",
"520 630 LINE",
"520 700 LINE",
"80 700 LINE"
);
},
{
closed = 1;
nodes = (
"185 89 LINE",
"520 616 LINE",
"415 616 LINE",
"80 89 LINE"
);
},
{
closed = 1;
nodes = (
"80 75 LINE",
"185 75 LINE",
"185 89 LINE",
"80 89 LINE"
);
},
{
closed = 1;
nodes = (
"415 616 LINE",
"520 616 LINE",
"520 630 LINE",
"415 630 LINE"
);
}
);
width = 600;
},
{
associatedMasterId = "4C71D2F8-8800-4A35-9F40-3E8E498F68F0";
layerId = "4C59AE46-2F62-4C35-B2D3-9648B056E0E7";
name = "Oct 8 20, 15:50";
paths = (
{
closed = 1;
nodes = (
"80 -900 LINE",
"520 -900 LINE",
"520 -825 LINE",
"80 -825 LINE"
);
},
{
closed = 1;
nodes = (
"80 -270 LINE",
"520 -270 LINE",
"520 -200 LINE",
"80 -200 LINE"
);
},
{
closed = 1;
nodes = (
"185 -825 LINE",
"185 -795 LINE",
"520 -270 LINE",
"415 -270 LINE",
"415 -300 LINE",
"80 -825 LINE"
);
},
{
closed = 1;
nodes = (
"150 570 LINE",
"150 480 LINE",
"450 480 LINE",
"450 570 LINE"
);
},
{
closed = 1;
nodes = (
"450 0 LINE",
"450 90 LINE",
"268 90 LINE",
"218 78 LINE",
"218 108 LINE",
"450 391 LINE",
"450 528 LINE",
"380 480 LINE",
"380 450 LINE",
"148 167 LINE",
"148 0 LINE"
);
}
);
width = 600;
},
{
associatedMasterId = "4C71D2F8-8800-4A35-9F40-3E8E498F68F0";
layerId = "7FED7548-1221-4905-ACB7-13F057046F06";
name = "Oct 8 20, 16:00";
paths = (
{
closed = 1;
nodes = (
"82 700 LINE",
"82 630 LINE",
"434 630 LINE",
"458 658 LINE",
"520 640 LINE",
"520 700 LINE"
);
},
{
closed = 1;
nodes = (
"520 0 LINE",
"520 75 LINE",
"166 75 LINE",
"139 42 LINE",
"139 72 LINE",
"520 569 LINE",
"520 678 LINE",
"458 658 LINE",
"458 628 LINE",
"80 136 LINE",
"80 0 LINE"
);
}
);
width = 600;
},
{
associatedMasterId = "4C71D2F8-8800-4A35-9F40-3E8E498F68F0";
layerId = "73C57350-FD59-4942-9B9B-E55CD47F5F17";
name = "Oct 8 20, 16:00";
paths = (
{
closed = 1;
nodes = (
"82 700 LINE",
"82 630 LINE",
"434 630 LINE",
"458 658 LINE",
"520 640 LINE",
"520 700 LINE"
);
},
{
closed = 1;
nodes = (
"520 0 LINE",
"520 75 LINE",
"166 75 LINE",
"139 42 LINE",
"139 72 LINE",
"520 569 LINE",
"520 678 LINE",
"458 658 LINE",
"458 628 LINE",
"80 136 LINE",
"80 0 LINE"
);
}
);
width = 600;
},
{
anchors = (
{
name = bottom;
position = "{300, 0}";
},
{
name = center;
position = "{300, 350}";
},
{
name = top;
position = "{305, 700}";
}
);
guideLines = (
{
angle = 90;
position = "{520, 440}";
},
{
angle = 90;
position = "{80, 440}";
}
);
layerId = "4C71D2F8-8800-4A35-9F40-3E8E498F68F0";
paths = (
{
closed = 1;
nodes = (
"520 0 LINE",
"520 75 LINE",
"165 75 LINE",
"335 321 LINE",
"520 600 LINE",
"520 700 LINE",
"80 700 LINE",
"80 630 LINE",
"438 630 LINE",
"260 371 LINE",
"80 101 LINE",
"80 0 LINE"
);
}
);
width = 600;
},
{
associatedMasterId = "4C71D2F8-8800-4A35-9F40-3E8E498F68F0";
layerId = "9C1DCCCE-2E92-4FE1-88E2-A471FEAEF0D0";
name = "Oct 9 20, 15:45";
paths = (
{
closed = 1;
nodes = (
"82 700 LINE",
"82 630 LINE",
"434 630 LINE",
"444 640 LINE",
"520 640 LINE",
"520 700 LINE"
);
},
{
closed = 1;
nodes = (
"520 0 LINE",
"520 75 LINE",
"166 75 LINE",
"156 65 LINE",
"156 95 LINE",
"520 569 LINE",
"520 678 LINE",
"444 640 LINE",
"444 610 LINE",
"80 136 LINE",
"80 0 LINE"
);
}
);
width = 600;
},
{
associatedMasterId = "4C71D2F8-8800-4A35-9F40-3E8E498F68F0";
layerId = "2FAF1FE8-3CB0-4D5E-9273-3DF432411280";
name = "Oct 10 20, 22:43";
paths = (
{
closed = 1;
nodes = (
"520 0 LINE",
"520 75 LINE",
"181 75 LINE",
"156 45 LINE",
"156 75 LINE",
"520 584 LINE",
"520 700 LINE",
"80 700 LINE",
"80 625 LINE",
"419 625 LINE",
"444 655 LINE",
"444 625 LINE",
"80 116 LINE",
"80 0 LINE"
);
}
);
width = 600;
},
{
annotations = (
{
position = "{356, 239}";
text = "TOO WIDE TOO DISHEVELED";
type = Text;
}
);
associatedMasterId = "4C71D2F8-8800-4A35-9F40-3E8E498F68F0";
layerId = "C160FA33-B96F-4259-B4FF-06AB2BC9FAFD";
name = "Oct 17 20, 12:13";
paths = (
{
closed = 1;
nodes = (
"520 0 LINE",
"520 75 LINE",
"190 75 LINE",
"172 56 LINE",
"142 56 LINE",
"520 584 LINE",
"520 700 LINE",
"80 700 LINE",
"80 630 LINE",
"414 630 LINE",
"435 655 LINE",
"465 655 LINE",
"80 116 LINE",
"80 0 LINE"
);
}
);
width = 600;
},
{
annotations = (
{
position = "{356, 239}";
text = "TOO WIDE TOO DISHEVELED";
type = Text;
}
);
associatedMasterId = "4C71D2F8-8800-4A35-9F40-3E8E498F68F0";
layerId = "58237002-3A3A-46EE-905E-886EC4AD91CB";
name = "Oct 17 20, 12:15";
paths = (
{
closed = 1;
nodes = (
"518 0 LINE",
"518 90 LINE",
"80 90 LINE",
"80 0 LINE"
);
},
{
closed = 1;
nodes = (
"150 90 LINE",
"150 120 LINE",
"520 533 LINE",
"520 700 LINE",
"80 700 LINE",
"80 610 LINE",
"400 610 LINE",
"450 622 LINE",
"450 592 LINE",
"80 179 LINE",
"80 42 LINE"
);
}
);
width = 600;
},
{
annotations = (
{
position = "{356, 239}";
text = "TOO WIDE TOO DISHEVELED";
type = Text;
}
);
associatedMasterId = "4C71D2F8-8800-4A35-9F40-3E8E498F68F0";
layerId = "7670CE10-406D-48C9-B7EC-4F6D59E72387";
name = "Oct 19 20, 16:38";
paths = (
{
closed = 1;
nodes = (
"508 0 LINE",
"508 75 LINE",
"182 75 LINE",
"182 105 LINE",
"510 575 LINE",
"510 700 LINE",
"90 700 LINE",
"90 630 LINE",
"368 630 LINE",
"418 642 LINE",
"418 614 LINE",
"90 125 LINE",
"90 0 LINE"
);
}
);
width = 600;
},
{
annotations = (
{
position = "{356, 239}";
text = "TOO WIDE TOO DISHEVELED";
type = Text;
}
);
associatedMasterId = "4C71D2F8-8800-4A35-9F40-3E8E498F68F0";
guideLines = (
{
angle = 90;
position = "{520, 440}";
},
{
angle = 90;
position = "{80, 440}";
}
);
layerId = "DF58C197-8167-4190-A7BF-1AAFCF599136";
name = "Oct 19 20, 17:30";
paths = (
{
closed = 1;
nodes = (
"510 0 LINE",
"510 75 LINE",
"195 75 LINE",
"182 56 LINE",
"152 56 LINE",
"520 599 LINE",
"520 700 LINE",
"80 700 LINE",
"80 630 LINE",
"408 630 LINE",
"425 655 LINE",
"455 655 LINE",
"80 101 LINE",
"80 0 LINE"
);
}
);
width = 600;
},
{
anchors = (
{
name = bottom;
position = "{300, 0}";
},
{
name = center;
position = "{300, 350}";
},
{
name = top;
position = "{300, 700}";
}
);
associatedMasterId = "4C71D2F8-8800-4A35-9F40-3E8E498F68F0";
guideLines = (
{
angle = 90;
position = "{520, 440}";
},
{
angle = 90;
position = "{80, 440}";
}
);
layerId = "A28D3C55-50BE-4E10-9BA2-1815BE14F142";
name = "Dec 31 20, 13:48";
paths = (
{
closed = 1;
nodes = (
"520 0 LINE",
"520 75 LINE",
"165 75 LINE",
"335 321 LINE",
"520 600 LINE",
"520 700 LINE",
"80 700 LINE",
"80 630 LINE",
"438 630 LINE",
"260 371 LINE",
"80 101 LINE",
"80 0 LINE"
);
},
{
closed = 1;
nodes = (
"170 540 LINE",
"170 580 LINE",
"165 700 LINE",
"80 700 LINE",
"80 540 LINE"
);
}
);
width = 600;
}
);
unicode = 005A;
},
{
color = 4;
glyphname = G.ss02;
lastChange = "2022-04-19 08:20:29 +0000";
layers = (
{
anchors = (
{
name = bottom;
position = "{310, 0}";
},
{
name = top;
position = "{310, 700}";
}
);
guideLines = (
{
position = "{351, 350}";
},
{
angle = 90;
position = "{523, 472}";
}
);
layerId = "4C71D2F8-8800-4A35-9F40-3E8E498F68F0";
paths = (
{
closed = 1;
nodes = (
"411 -10 OFFCURVE",
"461 57 OFFCURVE",
"446 120 CURVE",
"476 120 LINE",
"525 350 LINE",
"433 350 LINE",
"459 207 OFFCURVE",
"441 65 OFFCURVE",
"310 65 CURVE",
"310 -10 LINE"
);
},
{
closed = 1;
nodes = (
"525 0 LINE",
"525 350 LINE",
"453 350 LINE",
"453 275 LINE",
"483 275 LINE",
"476 120 LINE",
"495 0 LINE"
);
},
{
closed = 1;
nodes = (
"75 85 OFFCURVE",
"161 -10 OFFCURVE",
"310 -10 CURVE",
"310 65 LINE",
"210 65 OFFCURVE",
"167 135 OFFCURVE",
"167 350 CURVE SMOOTH",
"167 565 OFFCURVE",
"210 640 OFFCURVE",
"310 640 CURVE SMOOTH",
"404 640 OFFCURVE",
"431 573 OFFCURVE",
"431 472 CURVE",
"523 472 LINE",
"523 624 OFFCURVE",
"453 710 OFFCURVE",
"310 710 CURVE SMOOTH",
"161 710 OFFCURVE",
"75 615 OFFCURVE",
"75 350 CURVE SMOOTH"
);
}
);
width = 600;
},
{
associatedMasterId = "4C71D2F8-8800-4A35-9F40-3E8E498F68F0";
backgroundImage = {
imagePath = OLD/G.jpg;
locked = "1";
transform = "{6.166, 0, 0, 6.166, 0, -43}";
};
layerId = "999FC3EF-5AF3-4458-ADAA-D8CA6CDF4324";
name = "Sep 22 20, 14:43";
paths = (
{
closed = 1;
nodes = (
"40 134 OFFCURVE",
"89 -10 OFFCURVE",
"285 -10 CURVE SMOOTH",
"420 -10 OFFCURVE",
"500 67 OFFCURVE",
"500 310 CURVE",
"405 310 LINE",
"405 156 OFFCURVE",
"384 53 OFFCURVE",
"285 53 CURVE SMOOTH",
"195 53 OFFCURVE",
"135 112 OFFCURVE",
"135 350 CURVE",
"40 350 LINE"
);
},
{
closed = 1;
nodes = (
"493 637 OFFCURVE",
"416 710 OFFCURVE",
"275 710 CURVE SMOOTH",
"106 710 OFFCURVE",
"40 609 OFFCURVE",
"40 350 CURVE",
"135 350 LINE",
"135 564 OFFCURVE",
"174 647 OFFCURVE",
"275 647 CURVE SMOOTH",
"353 647 OFFCURVE",
"402 592 OFFCURVE",
"403 438 CURVE",
"497 438 LINE"
);
},
{
closed = 1;
nodes = (
"245 285 LINE",
"480 285 LINE",
"500 310 LINE",
"500 355 LINE",
"245 355 LINE"
);
}
);
width = 550;
},
{
associatedMasterId = "4C71D2F8-8800-4A35-9F40-3E8E498F68F0";
backgroundImage = {
imagePath = OLD/G.jpg;
locked = "1";
transform = "{6.166, 0, 0, 6.166, 0, -43}";
};
guideLines = (
{
position = "{270, 285}";
}
);
layerId = "EEB3A003-5C7D-497C-8871-5986B3C59997";
name = "Sep 26 20, 12:54";
paths = (
{
closed = 1;
nodes = (
"267 280 LINE",
"484 280 LINE",
"484 350 LINE",
"267 350 LINE"
);
},
{
closed = 1;
nodes = (
"300 718 LINE",
"100 718 OFFCURVE",
"67 582 OFFCURVE",
"67 350 CURVE",
"163 350 LINE",
"163 521 OFFCURVE",
"168 648 OFFCURVE",
"300 648 CURVE"
);
},
{
closed = 1;
nodes = (
"168 52 OFFCURVE",
"163 179 OFFCURVE",
"163 350 CURVE",
"67 350 LINE",
"67 118 OFFCURVE",
"100 -18 OFFCURVE",
"300 -18 CURVE",
"300 52 LINE"
);
},
{
closed = 1;
nodes = (
"513 632 OFFCURVE",
"459 718 OFFCURVE",
"300 718 CURVE",
"300 648 LINE",
"396 648 OFFCURVE",
"425 581 OFFCURVE",
"433 480 CURVE",
"528 480 LINE"
);
},
{
closed = 1;
nodes = (
"300 -18 LINE",
"500 -18 OFFCURVE",
"533 118 OFFCURVE",
"533 350 CURVE",
"437 350 LINE",
"437 179 OFFCURVE",
"432 52 OFFCURVE",
"300 52 CURVE"
);
}
);
width = 600;
},
{
associatedMasterId = "4C71D2F8-8800-4A35-9F40-3E8E498F68F0";
backgroundImage = {
imagePath = OLD/G.jpg;
locked = "1";
transform = "{6.166, 0, 0, 6.166, 0, -43}";
};
guideLines = (
{
position = "{270, 285}";
}
);
layerId = "A394172E-F457-4AC6-A89D-DCDD9F014529";
name = "Sep 29 20, 17:27";
paths = (
{
closed = 1;
nodes = (
"267 280 LINE",
"484 280 LINE",
"484 350 LINE",
"267 350 LINE"
);
},
{
closed = 1;
nodes = (
"300 718 LINE",
"100 718 OFFCURVE",
"67 582 OFFCURVE",
"67 350 CURVE",
"163 350 LINE",
"163 521 OFFCURVE",
"168 648 OFFCURVE",
"300 648 CURVE"
);
},
{
closed = 1;
nodes = (
"168 52 OFFCURVE",
"163 179 OFFCURVE",
"163 350 CURVE",
"67 350 LINE",
"67 118 OFFCURVE",
"100 -18 OFFCURVE",
"300 -18 CURVE",
"300 52 LINE"
);
},
{
closed = 1;
nodes = (
"528 632 OFFCURVE",
"459 718 OFFCURVE",
"300 718 CURVE",
"300 648 LINE",
"396 648 OFFCURVE",
"433 581 OFFCURVE",
"433 480 CURVE",
"528 480 LINE"
);
},
{
closed = 1;
nodes = (
"300 -18 LINE",
"500 -18 OFFCURVE",
"533 118 OFFCURVE",
"533 350 CURVE",
"437 350 LINE",
"437 179 OFFCURVE",
"432 52 OFFCURVE",
"300 52 CURVE"
);
}
);
width = 600;
},
{
associatedMasterId = "4C71D2F8-8800-4A35-9F40-3E8E498F68F0";
backgroundImage = {
imagePath = OLD/G.jpg;
locked = "1";
transform = "{6.166, 0, 0, 6.166, 0, -43}";
};
guideLines = (
{
position = "{120, 336}";
},
{
position = "{110, 345}";
}
);
layerId = "8453E915-0BD3-46C3-B0F3-21EF3764305B";
name = "Oct 8 20, 10:19";
paths = (
{
closed = 1;
nodes = (
"267 275 LINE",
"435 275 LINE",
"435 270 LINE",
"530 270 LINE",
"530 345 LINE",
"267 345 LINE"
);
},
{
closed = 1;
nodes = (
"310 710 LINE",
"118 710 OFFCURVE",
"70 574 OFFCURVE",
"70 350 CURVE",
"166 350 LINE",
"166 513 OFFCURVE",
"176 640 OFFCURVE",
"310 640 CURVE"
);
},
{
closed = 1;
nodes = (
"525 624 OFFCURVE",
"462 710 OFFCURVE",
"310 710 CURVE",
"310 640 LINE",
"408 640 OFFCURVE",
"430 573 OFFCURVE",
"430 472 CURVE",
"525 472 LINE"
);
},
{
closed = 1;
nodes = (
"176 60 OFFCURVE",
"166 187 OFFCURVE",
"166 350 CURVE",
"70 350 LINE",
"70 126 OFFCURVE",
"118 -10 OFFCURVE",
"310 -10 CURVE",
"310 60 LINE"
);
},
{
closed = 1;
nodes = (
"435 270 LINE",
"435 127 OFFCURVE",
"408 60 OFFCURVE",
"310 60 CURVE",
"310 -10 LINE",
"462 -10 OFFCURVE",
"530 76 OFFCURVE",
"530 270 CURVE"
);
}
);
width = 600;
},
{
anchors = (
{
name = bottom;
position = "{300, 0}";
},
{
name = top;
position = "{300, 700}";
}
);
associatedMasterId = "4C71D2F8-8800-4A35-9F40-3E8E498F68F0";
backgroundImage = {
imagePath = OLD/G.jpg;
locked = "1";
transform = "{6.166, 0, 0, 6.166, 0, -43}";
};
guideLines = (
{
position = "{110, 345}";
}
);
layerId = "9154BA87-3D14-4A82-8E8A-3FB568A2168C";
name = "Dec 16 20, 22:36";
paths = (
{
closed = 1;
nodes = (
"440 -10 OFFCURVE",
"525 62 OFFCURVE",
"525 280 CURVE SMOOTH",
"525 350 LINE",
"267 350 LINE",
"267 280 LINE",
"433 280 LINE",
"433 123 OFFCURVE",
"404 65 OFFCURVE",
"310 65 CURVE",
"310 -10 LINE"
);
}
);
width = 600;
},
{
anchors = (
{
name = bottom;
position = "{300, 0}";
},
{
name = top;
position = "{300, 700}";
}
);
associatedMasterId = "4C71D2F8-8800-4A35-9F40-3E8E498F68F0";
guideLines = (
{
position = "{110, 345}";
}
);
layerId = "8790D52B-7063-4850-AF9B-B59BBB068236";
name = "Sep 11 21, 15:25";
paths = (
{
closed = 1;
nodes = (
"464 -10 OFFCURVE",
"451 91 OFFCURVE",
"430 233 CURVE SMOOTH",
"423 280 LINE",
"454 280 LINE",
"498 350 LINE",
"361 350 LINE",
"372 280 LINE SMOOTH",
"403 82 OFFCURVE",
"371 65 OFFCURVE",
"307 65 CURVE",
"307 -10 LINE"
);
},
{
closed = 1;
nodes = (
"525 0 LINE",
"525 350 LINE",
"443 350 LINE",
"495 0 LINE"
);
},
{
closed = 1;
nodes = (
"525 280 LINE",
"525 350 LINE",
"267 350 LINE",
"267 280 LINE"
);
},
{
closed = 1;
nodes = (
"167 350 LINE",
"167 565 OFFCURVE",
"210 640 OFFCURVE",
"310 640 CURVE",
"310 710 LINE",
"161 710 OFFCURVE",
"75 615 OFFCURVE",
"75 350 CURVE"
);
},
{
closed = 1;
nodes = (
"307 65 LINE",
"207 65 OFFCURVE",
"167 135 OFFCURVE",
"167 350 CURVE",
"75 350 LINE",
"75 85 OFFCURVE",
"158 -10 OFFCURVE",
"307 -10 CURVE"
);
},
{
closed = 1;
nodes = (
"523 472 LINE",
"523 624 OFFCURVE",
"453 710 OFFCURVE",
"310 710 CURVE",
"310 640 LINE",
"404 640 OFFCURVE",
"431 573 OFFCURVE",
"431 472 CURVE"
);
}
);
width = 600;
},
{
anchors = (
{
name = bottom;
position = "{300, 0}";
},
{
name = top;
position = "{300, 700}";
}
);
associatedMasterId = "4C71D2F8-8800-4A35-9F40-3E8E498F68F0";
guideLines = (
{
position = "{351, 350}";
},
{
angle = 90;
position = "{523, 472}";
}
);
layerId = "7037DE56-B550-4D17-9583-972DEC21D9C9";
name = "Sep 13 21, 09:20";
paths = (
{
closed = 1;
nodes = (
"454 -10 OFFCURVE",
"452 86 OFFCURVE",
"430 233 CURVE SMOOTH",
"423 280 LINE",
"454 280 LINE",
"498 350 LINE",
"356 350 LINE",
"367 280 LINE SMOOTH",
"398 82 OFFCURVE",
"356 65 OFFCURVE",
"305 65 CURVE",
"305 -10 LINE"
);
},
{
closed = 1;
nodes = (
"525 0 LINE",
"525 350 LINE",
"443 350 LINE",
"495 0 LINE"
);
},
{
closed = 1;
nodes = (
"167 350 LINE",
"167 565 OFFCURVE",
"210 640 OFFCURVE",
"310 640 CURVE",
"310 710 LINE",
"161 710 OFFCURVE",
"75 615 OFFCURVE",
"75 350 CURVE"
);
},
{
closed = 1;
nodes = (
"305 65 LINE",
"205 65 OFFCURVE",
"167 135 OFFCURVE",
"167 350 CURVE",
"75 350 LINE",
"75 85 OFFCURVE",
"156 -10 OFFCURVE",
"305 -10 CURVE"
);
},
{
closed = 1;
nodes = (
"525 472 LINE",
"525 624 OFFCURVE",
"455 710 OFFCURVE",
"310 710 CURVE",
"310 640 LINE",
"406 640 OFFCURVE",
"433 573 OFFCURVE",
"433 472 CURVE"
);
}
);
width = 600;
},
{
anchors = (
{
name = bottom;
position = "{300, 0}";
},
{
name = top;
position = "{300, 700}";
}
);
associatedMasterId = "4C71D2F8-8800-4A35-9F40-3E8E498F68F0";
guideLines = (
{
position = "{351, 350}";
},
{
angle = 90;
position = "{523, 472}";
}
);
layerId = "7317C687-F803-48BC-8F70-5AC79B713F78";
name = "Sep 13 21, 09:23";
paths = (
{
closed = 1;
nodes = (
"525 0 LINE",
"525 350 LINE",
"443 350 LINE",
"443 233 LINE",
"473 233 LINE",
"468 180 LINE",
"495 0 LINE"
);
},
{
closed = 1;
nodes = (
"440 -10 OFFCURVE",
"525 62 OFFCURVE",
"525 280 CURVE SMOOTH",
"525 350 LINE",
"411 350 LINE",
"431 195 LINE",
"431 117 OFFCURVE",
"383 65 OFFCURVE",
"310 65 CURVE",
"310 -10 LINE"
);
}
);
width = 600;
},
{
anchors = (
{
name = bottom;
position = "{300, 0}";
},
{
name = top;
position = "{300, 700}";
}
);
associatedMasterId = "4C71D2F8-8800-4A35-9F40-3E8E498F68F0";
guideLines = (
{
position = "{351, 350}";
},
{
angle = 90;
position = "{523, 472}";
}
);
layerId = "B5D450C2-440D-48CD-8B3F-FBF33D25F75C";
name = "Sep 13 21, 09:29";
paths = (
{
closed = 1;
nodes = (
"525 0 LINE",
"525 350 LINE",
"453 350 LINE",
"453 275 LINE",
"483 275 LINE",
"478 120 LINE",
"495 0 LINE"
);
},
{
closed = 1;
nodes = (
"439 -10 OFFCURVE",
"525 85 OFFCURVE",
"525 350 CURVE",
"433 350 LINE",
"433 135 OFFCURVE",
"390 65 OFFCURVE",
"290 65 CURVE",
"290 -10 LINE"
);
}
);
width = 600;
},
{
anchors = (
{
name = bottom;
position = "{300, 0}";
},
{
name = top;
position = "{300, 700}";
}
);
associatedMasterId = "4C71D2F8-8800-4A35-9F40-3E8E498F68F0";
guideLines = (
{
position = "{351, 350}";
},
{
angle = 90;
position = "{523, 472}";
}
);
layerId = "B7F61660-F7A3-423B-9698-961C727628FF";
name = "Sep 13 21, 09:32";
paths = (
{
closed = 1;
nodes = (
"525 0 LINE",
"525 350 LINE",
"453 350 LINE",
"453 275 LINE",
"483 275 LINE",
"476 120 LINE",
"495 0 LINE"
);
},
{
closed = 1;
nodes = (
"372 -10 OFFCURVE",
"441 12 OFFCURVE",
"461 102 CURVE",
"463 13 LINE",
"446 120 LINE",
"476 120 LINE",
"525 350 LINE",
"433 350 LINE",
"433 135 OFFCURVE",
"390 65 OFFCURVE",
"290 65 CURVE",
"290 -10 LINE"
);
}
);
width = 600;
},
{
anchors = (
{
name = bottom;
position = "{300, 0}";
},
{
name = top;
position = "{300, 700}";
}
);
associatedMasterId = "4C71D2F8-8800-4A35-9F40-3E8E498F68F0";
guideLines = (
{
position = "{351, 350}";
},
{
angle = 90;
position = "{523, 472}";
}
);
layerId = "3BFD3E93-9396-4DF9-AD8D-886B8FC7AD63";
name = "Sep 13 21, 09:34";
paths = (
{
closed = 1;
nodes = (
"525 0 LINE",
"525 350 LINE",
"453 350 LINE",
"453 275 LINE",
"483 275 LINE",
"476 120 LINE",
"495 0 LINE"
);
},
{
closed = 1;
nodes = (
"372 -10 OFFCURVE",
"441 12 OFFCURVE",
"461 102 CURVE",
"463 13 LINE",
"446 120 LINE",
"476 120 LINE",
"525 350 LINE",
"433 350 LINE",
"504 106 OFFCURVE",
"390 65 OFFCURVE",
"310 65 CURVE",
"310 -10 LINE"
);
}
);
width = 600;
}
);
},
{
color = 4;
glyphname = V_T_F.dlig;
lastChange = "2022-04-19 08:20:07 +0000";
layers = (
{
guideLines = (
{
angle = 90;
position = "{70, 303}";
},
{
angle = 90;
position = "{530, 450}";
}
);
layerId = "4C71D2F8-8800-4A35-9F40-3E8E498F68F0";
paths = (
{
closed = 1;
nodes = (
"375 490 LINE",
"555 800 LINE",
"463 800 LINE",
"318 560 LINE",
"288 560 LINE",
"142 800 LINE",
"45 800 LINE",
"231 490 LINE"
);
},
{
closed = 1;
nodes = (
"160 -200 LINE",
"160 -181 LINE",
"154 -116 LINE",
"154 39 LINE",
"154 110 LINE",
"70 110 LINE",
"70 -200 LINE"
);
},
{
closed = 1;
nodes = (
"454 -116 LINE",
"454 -46 LINE",
"70 -46 LINE",
"70 -116 LINE"
);
},
{
closed = 1;
nodes = (
"530 40 LINE",
"530 110 LINE",
"70 110 LINE",
"70 40 LINE"
);
},
{
closed = 1;
nodes = (
"345 150 LINE",
"345 314 LINE",
"339 379 LINE",
"339 450 LINE",
"261 450 LINE",
"261 379 LINE",
"255 314 LINE",
"255 150 LINE"
);
},
{
closed = 1;
nodes = (
"530 380 LINE",
"530 450 LINE",
"70 450 LINE",
"70 380 LINE"
);
}
);
width = 600;
}
);
},
{
color = 4;
glyphname = a;
lastChange = "2022-04-19 08:20:07 +0000";
layers = (
{
anchors = (
{
name = bottom;
position = "{292, 0}";
},
{
name = ogonek;
position = "{535, 0}";
},
{
name = top;
position = "{292, 550}";
}
);
guideLines = (
{
position = "{304, 355}";
}
);
layerId = "4C71D2F8-8800-4A35-9F40-3E8E498F68F0";
paths = (
{
closed = 1;
nodes = (
"304 -10 OFFCURVE",
"380 64 OFFCURVE",
"400 145 CURVE",
"430 145 LINE",
"430 29 OFFCURVE",
"449 0 OFFCURVE",
"535 0 CURVE",
"535 75 LINE",
"484 75 OFFCURVE",
"470 91 OFFCURVE",
"470 145 CURVE SMOOTH",
"470 355 LINE SMOOTH",
"469 484 OFFCURVE",
"405 550 OFFCURVE",
"292 550 CURVE SMOOTH",
"179 550 OFFCURVE",
"108 485 OFFCURVE",
"108 355 CURVE",
"198 355 LINE",
"198 411 OFFCURVE",
"210 480 OFFCURVE",
"292 480 CURVE SMOOTH",
"341 480 OFFCURVE",
"380 455 OFFCURVE",
"380 355 CURVE",
"396 210 LINE",
"373 210 LINE",
"332 266 OFFCURVE",
"268 302 OFFCURVE",
"212 302 CURVE SMOOTH",
"134 302 OFFCURVE",
"65 252 OFFCURVE",
"65 147 CURVE SMOOTH",
"65 65 OFFCURVE",
"128 -10 OFFCURVE",
"223 -10 CURVE SMOOTH"
);
},
{
closed = 1;
nodes = (
"153 211 OFFCURVE",
"185 244 OFFCURVE",
"236 244 CURVE SMOOTH",
"268 244 OFFCURVE",
"314 226 OFFCURVE",
"358 184 CURVE",
"333 98 OFFCURVE",
"271 65 OFFCURVE",
"223 65 CURVE SMOOTH",
"178 65 OFFCURVE",
"153 91 OFFCURVE",
"153 147 CURVE SMOOTH"
);
}
);
width = 600;
},
{
associatedMasterId = "4C71D2F8-8800-4A35-9F40-3E8E498F68F0";
backgroundImage = {
imagePath = a3.jpeg;
locked = "1";
transform = "{4.573, 0, 0, 4.573, 80, -50}";
};
layerId = "D5F14923-DF4E-43FF-8290-284E37170913";
name = "May 31 21, 16:31";
paths = (
{
closed = 1;
nodes = (
"258 65 LINE",
"213 65 OFFCURVE",
"177 97 OFFCURVE",
"177 137 CURVE",
"89 137 LINE",
"89 55 OFFCURVE",
"163 -10 OFFCURVE",
"258 -10 CURVE"
);
},
{
closed = 1;
nodes = (
"222 325 LINE",
"222 381 OFFCURVE",
"241 450 OFFCURVE",
"320 450 CURVE",
"320 520 LINE",
"192 520 OFFCURVE",
"132 432 OFFCURVE",
"132 325 CURVE"
);
},
{
closed = 1;
nodes = (
"490 305 LINE",
"490 414 OFFCURVE",
"432 520 OFFCURVE",
"320 520 CURVE",
"320 450 LINE",
"382 450 OFFCURVE",
"400 375 OFFCURVE",
"400 305 CURVE"
);
},
{
closed = 1;
nodes = (
"332 -10 OFFCURVE",
"393 64 OFFCURVE",
"413 145 CURVE",
"443 145 LINE",
"443 29 OFFCURVE",
"464 0 OFFCURVE",
"550 0 CURVE",
"550 75 LINE",
"499 75 OFFCURVE",
"489 91 OFFCURVE",
"489 145 CURVE SMOOTH",
"490 305 LINE",
"400 305 LINE",
"400 169 OFFCURVE",
"337 65 OFFCURVE",
"258 65 CURVE",
"258 -10 LINE"
);
}
);
width = 600;
},
{
associatedMasterId = "4C71D2F8-8800-4A35-9F40-3E8E498F68F0";
backgroundImage = {
imagePath = a3.jpeg;
locked = "1";
transform = "{4.573, 0, 0, 4.573, 80, -50}";
};
layerId = "006FD0E5-4702-43C8-B027-68C8504DDE75";
name = "May 31 21, 16:32";
paths = (
{
closed = 1;
nodes = (
"248 65 LINE",
"203 65 OFFCURVE",
"187 97 OFFCURVE",
"187 137 CURVE",
"99 137 LINE",
"99 55 OFFCURVE",
"153 -10 OFFCURVE",
"248 -10 CURVE"
);
},
{
closed = 1;
nodes = (
"222 325 LINE",
"222 381 OFFCURVE",
"241 450 OFFCURVE",
"320 450 CURVE",
"320 520 LINE",
"192 520 OFFCURVE",
"132 432 OFFCURVE",
"132 325 CURVE"
);
},
{
closed = 1;
nodes = (
"490 305 LINE",
"490 414 OFFCURVE",
"432 520 OFFCURVE",
"320 520 CURVE",
"320 450 LINE",
"382 450 OFFCURVE",
"400 375 OFFCURVE",
"400 305 CURVE"
);
},
{
closed = 1;
nodes = (
"322 -10 OFFCURVE",
"393 64 OFFCURVE",
"413 145 CURVE",
"443 145 LINE",
"443 29 OFFCURVE",
"464 0 OFFCURVE",
"550 0 CURVE",
"550 75 LINE",
"499 75 OFFCURVE",
"489 91 OFFCURVE",
"489 145 CURVE SMOOTH",
"490 305 LINE",
"400 305 LINE",
"400 169 OFFCURVE",
"327 65 OFFCURVE",
"248 65 CURVE",
"248 -10 LINE"
);
},
{
closed = 1;
nodes = (
"153 284 OFFCURVE",
"99 219 OFFCURVE",
"99 137 CURVE",
"187 137 LINE",
"187 177 OFFCURVE",
"213 214 OFFCURVE",
"258 214 CURVE",
"434 214 LINE",
"434 284 LINE",
"248 284 LINE"
);
}
);
width = 600;
},
{
associatedMasterId = "4C71D2F8-8800-4A35-9F40-3E8E498F68F0";
backgroundImage = {
imagePath = a2.jpeg;
locked = "1";
transform = "{6.04787, 0, 0, 6.04787, 80, -119}";
};
layerId = "2E54F619-D27B-4FD7-980A-CAA86AD5FDD1";
name = "May 31 21, 16:37";
paths = (
{
closed = 1;
nodes = (
"322 -10 OFFCURVE",
"393 64 OFFCURVE",
"413 145 CURVE",
"443 145 LINE",
"443 29 OFFCURVE",
"464 0 OFFCURVE",
"550 0 CURVE",
"550 75 LINE",
"499 75 OFFCURVE",
"489 91 OFFCURVE",
"489 145 CURVE SMOOTH",
"490 305 LINE",
"400 305 LINE",
"400 169 OFFCURVE",
"327 65 OFFCURVE",
"248 65 CURVE",
"248 -10 LINE"
);
},
{
closed = 1;
nodes = (
"248 65 LINE",
"203 65 OFFCURVE",
"187 97 OFFCURVE",
"187 137 CURVE",
"99 137 LINE",
"99 55 OFFCURVE",
"153 -10 OFFCURVE",
"248 -10 CURVE"
);
},
{
closed = 1;
nodes = (
"187 137 LINE",
"187 177 OFFCURVE",
"223 209 OFFCURVE",
"268 209 CURVE",
"248 279 LINE",
"153 279 OFFCURVE",
"99 219 OFFCURVE",
"99 137 CURVE"
);
},
{
closed = 1;
nodes = (
"393 230 LINE",
"363 230 LINE",
"324 264 OFFCURVE",
"299 279 OFFCURVE",
"248 279 CURVE",
"268 209 LINE",
"317 209 OFFCURVE",
"341 194 OFFCURVE",
"358 164 CURVE",
"400 164 LINE"
);
},
{
closed = 1;
nodes = (
"222 325 LINE",
"222 381 OFFCURVE",
"241 450 OFFCURVE",
"320 450 CURVE",
"320 520 LINE",
"192 520 OFFCURVE",
"132 432 OFFCURVE",
"132 325 CURVE"
);
},
{
closed = 1;
nodes = (
"490 305 LINE",
"490 414 OFFCURVE",
"432 520 OFFCURVE",
"320 520 CURVE",
"320 450 LINE",
"382 450 OFFCURVE",
"400 375 OFFCURVE",
"400 305 CURVE"
);
}
);
width = 600;
},
{
associatedMasterId = "4C71D2F8-8800-4A35-9F40-3E8E498F68F0";
backgroundImage = {
imagePath = a2.jpeg;
locked = "1";
transform = "{6.04787, 0, 0, 6.04787, 80, -119}";
};
layerId = "CD7C2478-3344-48DE-B08E-BD0FDC2C288C";
name = "May 31 21, 16:38";
paths = (
{
closed = 1;
nodes = (
"322 -10 OFFCURVE",
"393 64 OFFCURVE",
"413 145 CURVE",
"443 145 LINE",
"443 29 OFFCURVE",
"464 0 OFFCURVE",
"550 0 CURVE",
"550 75 LINE",
"499 75 OFFCURVE",
"489 91 OFFCURVE",
"489 145 CURVE SMOOTH",
"490 305 LINE",
"400 305 LINE",
"398 230 LINE",
"415 184 LINE",
"371 184 LINE",
"366 98 OFFCURVE",
"289 65 OFFCURVE",
"248 65 CURVE",
"248 -10 LINE"
);
},
{
closed = 1;
nodes = (
"248 65 LINE",
"203 65 OFFCURVE",
"187 97 OFFCURVE",
"187 137 CURVE",
"99 137 LINE",
"99 55 OFFCURVE",
"153 -10 OFFCURVE",
"248 -10 CURVE"
);
},
{
closed = 1;
nodes = (
"222 325 LINE",
"222 381 OFFCURVE",
"241 450 OFFCURVE",
"320 450 CURVE",
"320 520 LINE",
"192 520 OFFCURVE",
"132 432 OFFCURVE",
"132 325 CURVE"
);
},
{
closed = 1;
nodes = (
"490 305 LINE",
"490 414 OFFCURVE",
"432 520 OFFCURVE",
"320 520 CURVE",
"320 450 LINE",
"382 450 OFFCURVE",
"400 375 OFFCURVE",
"400 305 CURVE"
);
},
{
closed = 1;
nodes = (
"187 137 LINE",
"187 212 OFFCURVE",
"353 246 OFFCURVE",
"388 184 CURVE",
"430 184 LINE",
"398 230 LINE",
"368 230 LINE",
"329 264 OFFCURVE",
"299 279 OFFCURVE",
"258 279 CURVE SMOOTH",
"153 279 OFFCURVE",
"99 219 OFFCURVE",
"99 137 CURVE"
);
}
);
width = 600;
},
{
associatedMasterId = "4C71D2F8-8800-4A35-9F40-3E8E498F68F0";
backgroundImage = {
imagePath = a3.jpeg;
locked = "1";
transform = "{4.573, 0, 0, 4.573, 80, -50}";
};
layerId = "3E455DD8-C8D4-4B4D-842A-7363FA074791";
name = "May 31 21, 16:41";
paths = (
{
closed = 1;
nodes = (
"248 65 LINE",
"203 65 OFFCURVE",
"187 97 OFFCURVE",
"187 137 CURVE",
"99 137 LINE",
"99 55 OFFCURVE",
"153 -10 OFFCURVE",
"248 -10 CURVE"
);
},
{
closed = 1;
nodes = (
"222 325 LINE",
"222 381 OFFCURVE",
"241 450 OFFCURVE",
"320 450 CURVE",
"320 520 LINE",
"192 520 OFFCURVE",
"132 432 OFFCURVE",
"132 325 CURVE"
);
},
{
closed = 1;
nodes = (
"490 305 LINE",
"490 414 OFFCURVE",
"432 520 OFFCURVE",
"320 520 CURVE",
"320 450 LINE",
"382 450 OFFCURVE",
"400 375 OFFCURVE",
"400 305 CURVE"
);
},
{
closed = 1;
nodes = (
"322 -10 OFFCURVE",
"393 64 OFFCURVE",
"413 145 CURVE",
"443 145 LINE",
"443 29 OFFCURVE",
"464 0 OFFCURVE",
"550 0 CURVE",
"550 75 LINE",
"499 75 OFFCURVE",
"489 91 OFFCURVE",
"489 145 CURVE SMOOTH",
"490 305 LINE",
"400 305 LINE",
"400 169 OFFCURVE",
"327 65 OFFCURVE",
"248 65 CURVE",
"248 -10 LINE"
);
},
{
closed = 1;
nodes = (
"153 284 OFFCURVE",
"99 219 OFFCURVE",
"99 137 CURVE",
"187 137 LINE",
"187 177 OFFCURVE",
"213 214 OFFCURVE",
"258 214 CURVE",
"434 214 LINE",
"434 284 LINE",
"248 284 LINE"
);
}
);
width = 600;
},
{
associatedMasterId = "4C71D2F8-8800-4A35-9F40-3E8E498F68F0";
backgroundImage = {
imagePath = a2.jpeg;
locked = "1";
transform = "{6.04787, 0, 0, 6.04787, 80, -119}";
};
layerId = "E561808A-8DB0-4B38-980B-D55D7C22C2C7";
name = "May 31 21, 16:41";
paths = (
{
closed = 1;
nodes = (
"322 -10 OFFCURVE",
"393 64 OFFCURVE",
"413 145 CURVE",
"443 145 LINE",
"443 29 OFFCURVE",
"464 0 OFFCURVE",
"550 0 CURVE",
"550 75 LINE",
"499 75 OFFCURVE",
"489 91 OFFCURVE",
"489 145 CURVE SMOOTH",
"490 305 LINE",
"400 305 LINE",
"406 210 LINE",
"392 125 OFFCURVE",
"341 65 OFFCURVE",
"248 65 CURVE",
"248 -10 LINE"
);
},
{
closed = 1;
nodes = (
"248 65 LINE",
"203 65 OFFCURVE",
"187 105 OFFCURVE",
"187 139 CURVE",
"99 139 LINE",
"99 58 OFFCURVE",
"153 -10 OFFCURVE",
"248 -10 CURVE"
);
},
{
closed = 1;
nodes = (
"222 325 LINE",
"222 381 OFFCURVE",
"241 450 OFFCURVE",
"320 450 CURVE",
"320 520 LINE",
"192 520 OFFCURVE",
"132 432 OFFCURVE",
"132 325 CURVE"
);
},
{
closed = 1;
nodes = (
"490 305 LINE",
"490 414 OFFCURVE",
"432 520 OFFCURVE",
"320 520 CURVE",
"320 450 LINE",
"382 450 OFFCURVE",
"400 375 OFFCURVE",
"400 305 CURVE"
);
},
{
closed = 1;
nodes = (
"187 139 LINE",
"187 187 OFFCURVE",
"219 212 OFFCURVE",
"262 212 CURVE SMOOTH",
"296 212 OFFCURVE",
"369 197 OFFCURVE",
"386 166 CURVE",
"428 166 LINE",
"431 210 LINE",
"406 210 LINE",
"369 251 OFFCURVE",
"297 280 OFFCURVE",
"239 280 CURVE SMOOTH",
"160 280 OFFCURVE",
"99 225 OFFCURVE",
"99 139 CURVE"
);
}
);
width = 600;
},
{
associatedMasterId = "4C71D2F8-8800-4A35-9F40-3E8E498F68F0";
backgroundImage = {
imagePath = a2.jpeg;
locked = "1";
transform = "{6.04787, 0, 0, 6.04787, 80, -119}";
};
layerId = "AC692E60-29B2-445A-AC26-F418C87FD8B2";
name = "May 31 21, 16:44";
paths = (
{
closed = 1;
nodes = (
"322 -10 OFFCURVE",
"393 64 OFFCURVE",
"413 145 CURVE",
"443 145 LINE",
"443 29 OFFCURVE",
"464 0 OFFCURVE",
"550 0 CURVE",
"550 75 LINE",
"499 75 OFFCURVE",
"489 91 OFFCURVE",
"489 145 CURVE SMOOTH",
"490 305 LINE",
"400 305 LINE",
"400 192 OFFCURVE",
"370 65 OFFCURVE",
"248 65 CURVE",
"248 -10 LINE"
);
},
{
closed = 1;
nodes = (
"248 65 LINE",
"203 65 OFFCURVE",
"187 105 OFFCURVE",
"187 139 CURVE",
"99 139 LINE",
"99 58 OFFCURVE",
"153 -10 OFFCURVE",
"248 -10 CURVE"
);
},
{
closed = 1;
nodes = (
"222 325 LINE",
"222 381 OFFCURVE",
"241 450 OFFCURVE",
"320 450 CURVE",
"320 520 LINE",
"192 520 OFFCURVE",
"132 432 OFFCURVE",
"132 325 CURVE"
);
},
{
closed = 1;
nodes = (
"490 305 LINE",
"490 414 OFFCURVE",
"432 520 OFFCURVE",
"320 520 CURVE",
"320 450 LINE",
"382 450 OFFCURVE",
"400 375 OFFCURVE",
"400 305 CURVE"
);
},
{
closed = 1;
nodes = (
"187 139 LINE",
"187 187 OFFCURVE",
"219 212 OFFCURVE",
"262 212 CURVE SMOOTH",
"296 212 OFFCURVE",
"373 197 OFFCURVE",
"390 166 CURVE",
"432 166 LINE",
"425 232 LINE",
"395 232 LINE",
"357 265 OFFCURVE",
"281 280 OFFCURVE",
"240 280 CURVE SMOOTH",
"164 280 OFFCURVE",
"99 228 OFFCURVE",
"99 139 CURVE"
);
}
);
width = 600;
},
{
associatedMasterId = "4C71D2F8-8800-4A35-9F40-3E8E498F68F0";
backgroundImage = {
imagePath = a3.jpeg;
locked = "1";
transform = "{4.573, 0, 0, 4.573, 80, -50}";
};
layerId = "901C7714-CE6E-4912-85C4-11D16E9019B1";
name = "May 31 21, 16:47";
paths = (
{
closed = 1;
nodes = (
"248 65 LINE",
"203 65 OFFCURVE",
"187 106 OFFCURVE",
"187 137 CURVE",
"95 137 LINE",
"95 55 OFFCURVE",
"153 -10 OFFCURVE",
"248 -10 CURVE"
);
},
{
closed = 1;
nodes = (
"322 -10 OFFCURVE",
"393 64 OFFCURVE",
"413 145 CURVE",
"443 145 LINE",
"443 29 OFFCURVE",
"464 0 OFFCURVE",
"550 0 CURVE",
"550 75 LINE",
"499 75 OFFCURVE",
"489 91 OFFCURVE",
"489 145 CURVE SMOOTH",
"490 305 LINE",
"400 305 LINE",
"405 263 LINE",
"405 230 LINE",
"381 191 LINE",
"355 115 OFFCURVE",
"303 65 OFFCURVE",
"248 65 CURVE",
"248 -10 LINE"
);
},
{
closed = 1;
nodes = (
"296 295 OFFCURVE",
"95 294 OFFCURVE",
"95 137 CURVE",
"187 137 LINE",
"187 224 OFFCURVE",
"314 246 OFFCURVE",
"434 214 CURVE",
"434 254 LINE"
);
},
{
closed = 1;
nodes = (
"222 325 LINE",
"222 381 OFFCURVE",
"237 450 OFFCURVE",
"316 450 CURVE SMOOTH",
"398 450 OFFCURVE",
"400 375 OFFCURVE",
"400 305 CURVE",
"490 305 LINE",
"490 414 OFFCURVE",
"448 520 OFFCURVE",
"316 520 CURVE SMOOTH",
"195 520 OFFCURVE",
"132 432 OFFCURVE",
"132 325 CURVE"
);
}
);
width = 600;
},
{
associatedMasterId = "4C71D2F8-8800-4A35-9F40-3E8E498F68F0";
backgroundImage = {
imagePath = a3.jpeg;
locked = "1";
transform = "{4.573, 0, 0, 4.573, 80, -50}";
};
layerId = "F8F0B48E-5A59-40F1-BBF0-7E60E6BE2B8E";
name = "May 31 21, 16:48";
paths = (
{
closed = 1;
nodes = (
"248 65 LINE",
"203 65 OFFCURVE",
"187 97 OFFCURVE",
"187 137 CURVE",
"99 137 LINE",
"99 55 OFFCURVE",
"153 -10 OFFCURVE",
"248 -10 CURVE"
);
},
{
closed = 1;
nodes = (
"222 325 LINE",
"222 381 OFFCURVE",
"241 450 OFFCURVE",
"320 450 CURVE",
"320 520 LINE",
"192 520 OFFCURVE",
"132 432 OFFCURVE",
"132 325 CURVE"
);
},
{
closed = 1;
nodes = (
"490 305 LINE",
"490 414 OFFCURVE",
"432 520 OFFCURVE",
"320 520 CURVE",
"320 450 LINE",
"382 450 OFFCURVE",
"400 375 OFFCURVE",
"400 305 CURVE"
);
},
{
closed = 1;
nodes = (
"322 -10 OFFCURVE",
"393 64 OFFCURVE",
"413 145 CURVE",
"443 145 LINE",
"443 29 OFFCURVE",
"464 0 OFFCURVE",
"550 0 CURVE",
"550 75 LINE",
"499 75 OFFCURVE",
"489 91 OFFCURVE",
"489 145 CURVE SMOOTH",
"490 305 LINE",
"400 305 LINE",
"405 284 LINE",
"405 214 LINE",
"381 191 LINE",
"355 115 OFFCURVE",
"303 65 OFFCURVE",
"248 65 CURVE",
"248 -10 LINE"
);
},
{
closed = 1;
nodes = (
"153 284 OFFCURVE",
"99 219 OFFCURVE",
"99 137 CURVE",
"187 137 LINE",
"187 177 OFFCURVE",
"213 214 OFFCURVE",
"258 214 CURVE",
"434 214 LINE",
"434 284 LINE",
"248 284 LINE"
);
}
);
width = 600;
},
{
associatedMasterId = "4C71D2F8-8800-4A35-9F40-3E8E498F68F0";
backgroundImage = {
imagePath = a3.jpeg;
locked = "1";
transform = "{4.573, 0, 0, 4.573, 80, -50}";
};
layerId = "E0294402-B9E6-48CD-8AD4-285D77DEB5D7";
name = "May 31 21, 16:51";
paths = (
{
closed = 1;
nodes = (
"248 65 LINE",
"203 65 OFFCURVE",
"187 106 OFFCURVE",
"187 137 CURVE",
"95 137 LINE",
"95 55 OFFCURVE",
"153 -10 OFFCURVE",
"248 -10 CURVE"
);
},
{
closed = 1;
nodes = (
"222 325 LINE",
"222 381 OFFCURVE",
"251 450 OFFCURVE",
"330 450 CURVE",
"330 520 LINE",
"202 520 OFFCURVE",
"132 432 OFFCURVE",
"132 325 CURVE"
);
},
{
closed = 1;
nodes = (
"490 305 LINE",
"490 414 OFFCURVE",
"442 520 OFFCURVE",
"330 520 CURVE",
"330 450 LINE",
"392 450 OFFCURVE",
"400 375 OFFCURVE",
"400 305 CURVE"
);
},
{
closed = 1;
nodes = (
"322 -10 OFFCURVE",
"393 64 OFFCURVE",
"413 145 CURVE",
"443 145 LINE",
"443 29 OFFCURVE",
"464 0 OFFCURVE",
"550 0 CURVE",
"550 75 LINE",
"499 75 OFFCURVE",
"489 91 OFFCURVE",
"489 145 CURVE SMOOTH",
"490 305 LINE",
"400 305 LINE",
"405 263 LINE",
"405 230 LINE",
"381 191 LINE",
"355 115 OFFCURVE",
"303 65 OFFCURVE",
"248 65 CURVE",
"248 -10 LINE"
);
},
{
closed = 1;
nodes = (
"296 295 OFFCURVE",
"95 294 OFFCURVE",
"95 137 CURVE",
"187 137 LINE",
"187 225 OFFCURVE",
"314 246 OFFCURVE",
"434 214 CURVE",
"434 254 LINE"
);
}
);
width = 600;
},
{
associatedMasterId = "4C71D2F8-8800-4A35-9F40-3E8E498F68F0";
backgroundImage = {
imagePath = a2.jpeg;
locked = "1";
transform = "{6.04787, 0, 0, 6.04787, 80, -119}";
};
layerId = "A0019209-C4E1-4C4E-B948-7747FECA1E8A";
name = "May 31 21, 16:53";
paths = (
{
closed = 1;
nodes = (
"322 -10 OFFCURVE",
"393 64 OFFCURVE",
"413 145 CURVE",
"443 145 LINE",
"443 29 OFFCURVE",
"464 0 OFFCURVE",
"550 0 CURVE",
"550 75 LINE",
"499 75 OFFCURVE",
"489 91 OFFCURVE",
"489 145 CURVE SMOOTH",
"490 305 LINE",
"400 305 LINE",
"398 230 LINE",
"415 184 LINE",
"371 184 LINE",
"366 98 OFFCURVE",
"289 65 OFFCURVE",
"248 65 CURVE",
"248 -10 LINE"
);
},
{
closed = 1;
nodes = (
"248 65 LINE",
"203 65 OFFCURVE",
"187 97 OFFCURVE",
"187 137 CURVE",
"99 137 LINE",
"99 55 OFFCURVE",
"153 -10 OFFCURVE",
"248 -10 CURVE"
);
},
{
closed = 1;
nodes = (
"222 325 LINE",
"222 381 OFFCURVE",
"241 450 OFFCURVE",
"320 450 CURVE",
"320 520 LINE",
"192 520 OFFCURVE",
"132 432 OFFCURVE",
"132 325 CURVE"
);
},
{
closed = 1;
nodes = (
"490 305 LINE",
"490 414 OFFCURVE",
"432 520 OFFCURVE",
"320 520 CURVE",
"320 450 LINE",
"382 450 OFFCURVE",
"400 375 OFFCURVE",
"400 305 CURVE"
);
},
{
closed = 1;
nodes = (
"187 137 LINE",
"187 212 OFFCURVE",
"353 246 OFFCURVE",
"388 184 CURVE",
"430 184 LINE",
"398 230 LINE",
"368 230 LINE",
"329 264 OFFCURVE",
"299 279 OFFCURVE",
"258 279 CURVE SMOOTH",
"153 279 OFFCURVE",
"99 219 OFFCURVE",
"99 137 CURVE"
);
}
);
width = 600;
},
{
associatedMasterId = "4C71D2F8-8800-4A35-9F40-3E8E498F68F0";
backgroundImage = {
imagePath = a2.jpeg;
locked = "1";
transform = "{6.04787, 0, 0, 6.04787, 80, -119}";
};
layerId = "A7D5B35F-A557-48B7-8487-25461C43B8B3";
name = "May 31 21, 18:59";
paths = (
{
closed = 1;
nodes = (
"322 -10 OFFCURVE",
"393 64 OFFCURVE",
"413 145 CURVE",
"443 145 LINE",
"443 29 OFFCURVE",
"464 0 OFFCURVE",
"550 0 CURVE",
"550 75 LINE",
"499 75 OFFCURVE",
"490 91 OFFCURVE",
"490 145 CURVE SMOOTH",
"490 305 LINE",
"400 305 LINE",
"406 220 LINE",
"415 184 LINE",
"371 184 LINE",
"366 98 OFFCURVE",
"289 65 OFFCURVE",
"248 65 CURVE",
"248 -10 LINE"
);
},
{
closed = 1;
nodes = (
"248 65 LINE",
"203 65 OFFCURVE",
"188 97 OFFCURVE",
"188 137 CURVE",
"100 137 LINE",
"100 55 OFFCURVE",
"153 -10 OFFCURVE",
"248 -10 CURVE"
);
},
{
closed = 1;
nodes = (
"188 137 LINE",
"188 212 OFFCURVE",
"258 260 OFFCURVE",
"371 184 CURVE",
"430 184 LINE",
"406 220 LINE",
"376 220 LINE",
"272 333 OFFCURVE",
"100 280 OFFCURVE",
"100 137 CURVE"
);
},
{
closed = 1;
nodes = (
"222 325 LINE",
"222 381 OFFCURVE",
"237 450 OFFCURVE",
"316 450 CURVE SMOOTH",
"398 450 OFFCURVE",
"400 375 OFFCURVE",
"400 305 CURVE",
"490 305 LINE",
"490 414 OFFCURVE",
"448 520 OFFCURVE",
"316 520 CURVE SMOOTH",
"195 520 OFFCURVE",
"132 432 OFFCURVE",
"132 325 CURVE"
);
}
);
width = 600;
},
{
associatedMasterId = "4C71D2F8-8800-4A35-9F40-3E8E498F68F0";
backgroundImage = {
imagePath = a2.jpeg;
locked = "1";
transform = "{6.04787, 0, 0, 6.04787, 80, -119}";
};
layerId = "2EDAA085-EA3F-419C-A219-FA5C8924B562";
name = "Jun 1 21, 09:57";
paths = (
{
closed = 1;
nodes = (
"309 -10 OFFCURVE",
"380 64 OFFCURVE",
"400 145 CURVE",
"430 145 LINE",
"470 145 LINE",
"470 325 LINE",
"380 325 LINE",
"386 220 LINE",
"402 184 LINE",
"358 184 LINE",
"353 98 OFFCURVE",
"276 65 OFFCURVE",
"228 65 CURVE",
"228 -10 LINE"
);
},
{
closed = 1;
nodes = (
"228 65 LINE",
"183 65 OFFCURVE",
"158 97 OFFCURVE",
"158 137 CURVE",
"70 137 LINE",
"70 55 OFFCURVE",
"133 -10 OFFCURVE",
"228 -10 CURVE"
);
},
{
closed = 1;
nodes = (
"158 137 LINE",
"158 212 OFFCURVE",
"245 260 OFFCURVE",
"358 184 CURVE",
"417 184 LINE",
"386 220 LINE",
"363 220 LINE",
"259 333 OFFCURVE",
"70 280 OFFCURVE",
"70 137 CURVE"
);
},
{
closed = 1;
nodes = (
"202 325 LINE",
"202 381 OFFCURVE",
"217 450 OFFCURVE",
"296 450 CURVE SMOOTH",
"366 450 OFFCURVE",
"380 395 OFFCURVE",
"380 325 CURVE",
"470 325 LINE",
"469 434 OFFCURVE",
"415 520 OFFCURVE",
"296 520 CURVE SMOOTH",
"175 520 OFFCURVE",
"112 432 OFFCURVE",
"112 325 CURVE"
);
},
{
closed = 1;
nodes = (
"400 145 LINE",
"430 145 LINE",
"430 29 OFFCURVE",
"449 0 OFFCURVE",
"535 0 CURVE",
"535 75 LINE",
"484 75 OFFCURVE",
"470 91 OFFCURVE",
"470 145 CURVE SMOOTH",
"470 325 LINE",
"400 325 LINE"
);
}
);
width = 600;
},
{
associatedMasterId = "4C71D2F8-8800-4A35-9F40-3E8E498F68F0";
backgroundImage = {
imagePath = a2.jpeg;
locked = "1";
transform = "{6.04787, 0, 0, 6.04787, 80, -119}";
};
layerId = "430A1139-AFBF-4BFA-A155-487D6854F640";
name = "Jun 4 21, 14:24";
paths = (
{
closed = 1;
nodes = (
"309 -10 OFFCURVE",
"380 64 OFFCURVE",
"400 145 CURVE",
"430 145 LINE",
"470 145 LINE",
"470 355 LINE",
"380 355 LINE",
"386 220 LINE",
"402 184 LINE",
"358 184 LINE",
"353 98 OFFCURVE",
"276 65 OFFCURVE",
"228 65 CURVE",
"228 -10 LINE"
);
},
{
closed = 1;
nodes = (
"228 65 LINE",
"183 65 OFFCURVE",
"158 107 OFFCURVE",
"158 147 CURVE",
"70 147 LINE",
"70 65 OFFCURVE",
"133 -10 OFFCURVE",
"228 -10 CURVE"
);
},
{
closed = 1;
nodes = (
"158 147 LINE",
"158 211 OFFCURVE",
"190 244 OFFCURVE",
"241 244 CURVE SMOOTH",
"273 244 OFFCURVE",
"314 226 OFFCURVE",
"358 184 CURVE",
"417 184 LINE",
"386 220 LINE",
"363 220 LINE",
"322 276 OFFCURVE",
"268 302 OFFCURVE",
"217 302 CURVE SMOOTH",
"139 302 OFFCURVE",
"70 252 OFFCURVE",
"70 147 CURVE"
);
},
{
closed = 1;
nodes = (
"202 355 LINE",
"202 411 OFFCURVE",
"217 480 OFFCURVE",
"296 480 CURVE SMOOTH",
"366 480 OFFCURVE",
"380 425 OFFCURVE",
"380 355 CURVE",
"470 355 LINE",
"469 464 OFFCURVE",
"415 550 OFFCURVE",
"296 550 CURVE SMOOTH",
"175 550 OFFCURVE",
"112 462 OFFCURVE",
"112 355 CURVE"
);
},
{
closed = 1;
nodes = (
"400 145 LINE",
"430 145 LINE",
"430 29 OFFCURVE",
"449 0 OFFCURVE",
"535 0 CURVE",
"535 75 LINE",
"484 75 OFFCURVE",
"470 91 OFFCURVE",
"470 145 CURVE SMOOTH",
"470 355 LINE",
"400 355 LINE"
);
}
);
width = 600;
},
{
associatedMasterId = "4C71D2F8-8800-4A35-9F40-3E8E498F68F0";
backgroundImage = {
imagePath = a2.jpeg;
locked = "1";
transform = "{6.04787, 0, 0, 6.04787, 80, -119}";
};
layerId = "4BDEC960-2349-4618-8B4C-BE2F9351AF77";
name = "Jun 4 21, 14:25";
paths = (
{
closed = 1;
nodes = (
"309 -10 OFFCURVE",
"380 64 OFFCURVE",
"400 145 CURVE",
"430 145 LINE",
"470 145 LINE",
"470 355 LINE",
"380 355 LINE",
"386 220 LINE",
"402 184 LINE",
"358 184 LINE",
"353 98 OFFCURVE",
"276 65 OFFCURVE",
"228 65 CURVE",
"228 -10 LINE"
);
},
{
closed = 1;
nodes = (
"228 65 LINE",
"183 65 OFFCURVE",
"158 107 OFFCURVE",
"158 147 CURVE",
"70 147 LINE",
"70 65 OFFCURVE",
"133 -10 OFFCURVE",
"228 -10 CURVE"
);
},
{
closed = 1;
nodes = (
"158 147 LINE",
"158 211 OFFCURVE",
"190 244 OFFCURVE",
"241 244 CURVE SMOOTH",
"273 244 OFFCURVE",
"314 226 OFFCURVE",
"358 184 CURVE",
"417 184 LINE",
"386 220 LINE",
"363 220 LINE",
"322 276 OFFCURVE",
"268 302 OFFCURVE",
"217 302 CURVE SMOOTH",
"139 302 OFFCURVE",
"70 252 OFFCURVE",
"70 147 CURVE"
);
},
{
closed = 1;
nodes = (
"188 355 LINE",
"188 411 OFFCURVE",
"203 480 OFFCURVE",
"292 480 CURVE SMOOTH",
"341 480 OFFCURVE",
"380 455 OFFCURVE",
"380 355 CURVE",
"470 355 LINE",
"469 464 OFFCURVE",
"411 550 OFFCURVE",
"292 550 CURVE SMOOTH",
"161 550 OFFCURVE",
"98 462 OFFCURVE",
"98 355 CURVE"
);
},
{
closed = 1;
nodes = (
"400 145 LINE",
"430 145 LINE",
"430 29 OFFCURVE",
"449 0 OFFCURVE",
"535 0 CURVE",
"535 75 LINE",
"484 75 OFFCURVE",
"470 91 OFFCURVE",
"470 145 CURVE SMOOTH",
"470 355 LINE",
"400 355 LINE"
);
}
);
width = 600;
},
{
anchors = (
{
name = bottom;
position = "{292, 0}";
},
{
name = ogonek;
position = "{540, 10}";
},
{
name = top;
position = "{292, 550}";
}
);
associatedMasterId = "4C71D2F8-8800-4A35-9F40-3E8E498F68F0";
backgroundImage = {
imagePath = a2.jpeg;
locked = "1";
transform = "{6.04787, 0, 0, 6.04787, 80, -119}";
};
layerId = "84D31969-C312-4BDF-9FCF-A94DD9E39531";
name = "Sep 11 21, 18:04";
paths = (
{
closed = 1;
nodes = (
"309 -10 OFFCURVE",
"380 64 OFFCURVE",
"400 145 CURVE",
"430 145 LINE",
"470 145 LINE",
"470 355 LINE",
"380 355 LINE",
"380 235 LINE",
"386 220 LINE",
"402 184 LINE",
"358 184 LINE",
"333 98 OFFCURVE",
"276 65 OFFCURVE",
"228 65 CURVE",
"228 -10 LINE"
);
},
{
closed = 1;
nodes = (
"228 65 LINE",
"183 65 OFFCURVE",
"158 107 OFFCURVE",
"158 147 CURVE",
"70 147 LINE",
"70 65 OFFCURVE",
"133 -10 OFFCURVE",
"228 -10 CURVE"
);
},
{
closed = 1;
nodes = (
"158 147 LINE",
"158 211 OFFCURVE",
"190 244 OFFCURVE",
"241 244 CURVE SMOOTH",
"273 244 OFFCURVE",
"314 226 OFFCURVE",
"358 184 CURVE",
"417 184 LINE",
"386 220 LINE",
"363 220 LINE",
"322 276 OFFCURVE",
"268 302 OFFCURVE",
"217 302 CURVE SMOOTH",
"139 302 OFFCURVE",
"70 252 OFFCURVE",
"70 147 CURVE"
);
},
{
closed = 1;
nodes = (
"535 75 LINE",
"484 75 OFFCURVE",
"470 91 OFFCURVE",
"470 145 CURVE SMOOTH",
"470 355 LINE",
"400 355 LINE",
"400 145 LINE",
"430 145 LINE",
"430 29 OFFCURVE",
"449 0 OFFCURVE",
"535 0 CURVE"
);
},
{
closed = 1;
nodes = (
"188 355 LINE",
"188 411 OFFCURVE",
"203 480 OFFCURVE",
"292 480 CURVE SMOOTH",
"341 480 OFFCURVE",
"380 455 OFFCURVE",
"380 355 CURVE",
"470 355 LINE",
"469 464 OFFCURVE",
"411 550 OFFCURVE",
"292 550 CURVE SMOOTH",
"161 550 OFFCURVE",
"98 462 OFFCURVE",
"98 355 CURVE"
);
}
);
width = 600;
},
{
anchors = (
{
name = bottom;
position = "{292, 0}";
},
{
name = ogonek;
position = "{540, 10}";
},
{
name = top;
position = "{292, 550}";
}
);
associatedMasterId = "4C71D2F8-8800-4A35-9F40-3E8E498F68F0";
backgroundImage = {
imagePath = a2.jpeg;
locked = "1";
transform = "{6.04787, 0, 0, 6.04787, 80, -119}";
};
layerId = "EFD4D3F9-46BF-4D9E-9600-526908024544";
name = "Sep 11 21, 18:07";
paths = (
{
closed = 1;
nodes = (
"309 -10 OFFCURVE",
"380 64 OFFCURVE",
"400 145 CURVE",
"430 145 LINE",
"470 145 LINE",
"470 355 LINE",
"380 355 LINE",
"396 210 LINE",
"402 184 LINE",
"358 184 LINE",
"333 98 OFFCURVE",
"276 65 OFFCURVE",
"228 65 CURVE",
"228 -10 LINE"
);
},
{
closed = 1;
nodes = (
"228 65 LINE",
"183 65 OFFCURVE",
"158 107 OFFCURVE",
"158 147 CURVE",
"70 147 LINE",
"70 65 OFFCURVE",
"133 -10 OFFCURVE",
"228 -10 CURVE"
);
},
{
closed = 1;
nodes = (
"158 147 LINE",
"158 211 OFFCURVE",
"190 244 OFFCURVE",
"241 244 CURVE SMOOTH",
"273 244 OFFCURVE",
"314 226 OFFCURVE",
"358 184 CURVE",
"417 184 LINE",
"396 210 LINE",
"373 210 LINE",
"332 266 OFFCURVE",
"273 302 OFFCURVE",
"217 302 CURVE SMOOTH",
"139 302 OFFCURVE",
"70 252 OFFCURVE",
"70 147 CURVE"
);
},
{
closed = 1;
nodes = (
"535 75 LINE",
"484 75 OFFCURVE",
"470 91 OFFCURVE",
"470 145 CURVE SMOOTH",
"470 355 LINE",
"400 355 LINE",
"400 145 LINE",
"430 145 LINE",
"430 29 OFFCURVE",
"449 0 OFFCURVE",
"535 0 CURVE"
);
},
{
closed = 1;
nodes = (
"188 355 LINE",
"188 411 OFFCURVE",
"210 480 OFFCURVE",
"292 480 CURVE SMOOTH",
"341 480 OFFCURVE",
"380 455 OFFCURVE",
"380 355 CURVE",
"470 355 LINE",
"469 486 OFFCURVE",
"385 550 OFFCURVE",
"292 550 CURVE SMOOTH",
"199 550 OFFCURVE",
"98 485 OFFCURVE",
"98 355 CURVE"
);
}
);
width = 600;
}
);
unicode = 0061;
},
{
color = 4;
glyphname = ae;
lastChange = "2022-04-19 08:20:07 +0000";
layers = (
{
guideLines = (
{
angle = 90;
position = "{805, 147}";
}
);
layerId = "4C71D2F8-8800-4A35-9F40-3E8E498F68F0";
paths = (
{
closed = 1;
nodes = (
"213 -10 OFFCURVE",
"276 37 OFFCURVE",
"276 145 CURVE",
"335 145 LINE",
"335 355 LINE",
"286 395 LINE",
"286 510 OFFCURVE",
"228 549 OFFCURVE",
"168 550 CURVE SMOOTH",
"101 550 OFFCURVE",
"31 500 OFFCURVE",
"31 355 CURVE",
"116 355 LINE",
"116 445 OFFCURVE",
"149 480 OFFCURVE",
"183 480 CURVE SMOOTH",
"213 480 OFFCURVE",
"248 453 OFFCURVE",
"248 395 CURVE",
"266 210 LINE",
"236 210 LINE",
"236 270 OFFCURVE",
"190 302 OFFCURVE",
"144 302 CURVE SMOOTH",
"87 302 OFFCURVE",
"25 253 OFFCURVE",
"25 147 CURVE SMOOTH",
"25 44 OFFCURVE",
"94 -10 OFFCURVE",
"159 -10 CURVE SMOOTH"
);
},
{
closed = 1;
nodes = (
"134 65 OFFCURVE",
"110 90 OFFCURVE",
"110 147 CURVE SMOOTH",
"110 210 OFFCURVE",
"139 242 OFFCURVE",
"167 242 CURVE SMOOTH",
"201 242 OFFCURVE",
"219 201 OFFCURVE",
"219 159 CURVE SMOOTH",
"219 99 OFFCURVE",
"187 65 OFFCURVE",
"158 65 CURVE SMOOTH"
);
},
{
closed = 1;
nodes = (
"494 -10 OFFCURVE",
"554 49 OFFCURVE",
"571 165 CURVE",
"486 165 LINE",
"486 99 OFFCURVE",
"457 65 OFFCURVE",
"424 65 CURVE SMOOTH",
"385 65 OFFCURVE",
"354 111 OFFCURVE",
"354 181 CURVE",
"339 256 LINE",
"339 321 LINE",
"354 396 LINE",
"362 452 OFFCURVE",
"392 480 OFFCURVE",
"422 480 CURVE SMOOTH",
"452 480 OFFCURVE",
"484 452 OFFCURVE",
"486 396 CURVE",
"501 321 LINE",
"575 289 LINE",
"575 331 LINE SMOOTH",
"575 454 OFFCURVE",
"505 551 OFFCURVE",
"422 550 CURVE SMOOTH",
"363 549 OFFCURVE",
"316 498 OFFCURVE",
"316 395 CURVE",
"286 395 LINE",
"276 145 LINE",
"306 145 LINE",
"306 37 OFFCURVE",
"362 -10 OFFCURVE",
"424 -10 CURVE SMOOTH"
);
},
{
closed = 1;
nodes = (
"575 256 LINE",
"575 321 LINE",
"339 321 LINE",
"339 256 LINE"
);
}
);
width = 600;
},
{
associatedMasterId = "4C71D2F8-8800-4A35-9F40-3E8E498F68F0";
guideLines = (
{
angle = 90;
position = "{805, 147}";
}
);
layerId = "A5F3BF97-46D2-4039-A404-96B3ED3A5624";
name = "Sep 15 21, 10:59";
paths = (
{
closed = 1;
nodes = (
"510 65 LINE",
"462 65 OFFCURVE",
"431 111 OFFCURVE",
"424 181 CURVE",
"399 256 LINE",
"399 321 LINE",
"424 396 LINE",
"441 449 OFFCURVE",
"482 480 OFFCURVE",
"510 480 CURVE",
"510 550 LINE",
"412 549 OFFCURVE",
"320 453 OFFCURVE",
"320 268 CURVE SMOOTH",
"320 83 OFFCURVE",
"412 -10 OFFCURVE",
"510 -10 CURVE"
);
},
{
closed = 1;
nodes = (
"590 -10 OFFCURVE",
"657 49 OFFCURVE",
"675 165 CURVE",
"587 165 LINE",
"579 99 OFFCURVE",
"546 65 OFFCURVE",
"510 65 CURVE",
"510 -10 LINE"
);
},
{
closed = 1;
nodes = (
"680 256 LINE",
"680 321 LINE",
"399 321 LINE",
"399 256 LINE"
);
},
{
closed = 1;
nodes = (
"680 289 LINE",
"680 331 LINE SMOOTH",
"680 455 OFFCURVE",
"600 550 OFFCURVE",
"510 550 CURVE",
"510 480 LINE",
"548 480 OFFCURVE",
"574 438 OFFCURVE",
"585 396 CURVE",
"610 321 LINE"
);
},
{
closed = 1;
nodes = (
"232 184 LINE",
"226 210 LINE",
"212 355 LINE",
"300 355 LINE",
"300 145 LINE",
"230 145 LINE",
"188 184 LINE"
);
},
{
closed = 1;
nodes = (
"98 355 LINE",
"98 445 OFFCURVE",
"124 480 OFFCURVE",
"156 480 CURVE SMOOTH",
"183 480 OFFCURVE",
"212 455 OFFCURVE",
"212 355 CURVE",
"300 355 LINE",
"299 464 OFFCURVE",
"264 550 OFFCURVE",
"156 550 CURVE SMOOTH",
"73 550 OFFCURVE",
"11 501 OFFCURVE",
"11 355 CURVE"
);
},
{
closed = 1;
nodes = (
"5 253 OFFCURVE",
"65 302 OFFCURVE",
"118 302 CURVE SMOOTH",
"163 302 OFFCURVE",
"203 269 OFFCURVE",
"203 210 CURVE",
"226 210 LINE",
"247 184 LINE",
"188 184 LINE",
"182 223 OFFCURVE",
"163 242 OFFCURVE",
"144 242 CURVE SMOOTH",
"119 242 OFFCURVE",
"93 210 OFFCURVE",
"93 147 CURVE",
"5 147 LINE"
);
},
{
closed = 1;
nodes = (
"300 91 OFFCURVE",
"304 75 OFFCURVE",
"355 75 CURVE",
"355 0 LINE",
"269 0 OFFCURVE",
"260 29 OFFCURVE",
"260 145 CURVE",
"230 145 LINE",
"230 42 OFFCURVE",
"175 -9 OFFCURVE",
"119 -9 CURVE SMOOTH",
"62 -9 OFFCURVE",
"5 44 OFFCURVE",
"5 147 CURVE",
"93 147 LINE",
"93 90 OFFCURVE",
"114 65 OFFCURVE",
"136 65 CURVE SMOOTH",
"165 65 OFFCURVE",
"197 109 OFFCURVE",
"188 184 CURVE",
"230 184 LINE",
"230 193 LINE",
"226 210 LINE",
"300 145 LINE"
);
}
);
width = 600;
},
{
associatedMasterId = "4C71D2F8-8800-4A35-9F40-3E8E498F68F0";
guideLines = (
{
angle = 90;
position = "{805, 147}";
}
);
layerId = "1B4E540C-EE07-4370-9E42-9C4D8D0299F4";
name = "Sep 21 21, 14:07";
paths = (
{
closed = 1;
nodes = (
"213 -10 OFFCURVE",
"286 37 OFFCURVE",
"286 145 CURVE",
"335 145 LINE",
"335 355 LINE",
"286 395 LINE",
"286 510 OFFCURVE",
"228 549 OFFCURVE",
"168 550 CURVE SMOOTH",
"101 550 OFFCURVE",
"31 500 OFFCURVE",
"31 355 CURVE",
"116 355 LINE",
"116 445 OFFCURVE",
"149 480 OFFCURVE",
"183 480 CURVE SMOOTH",
"213 480 OFFCURVE",
"248 453 OFFCURVE",
"248 395 CURVE",
"266 210 LINE",
"236 210 LINE",
"236 270 OFFCURVE",
"190 302 OFFCURVE",
"144 302 CURVE SMOOTH",
"87 302 OFFCURVE",
"25 253 OFFCURVE",
"25 147 CURVE SMOOTH",
"25 44 OFFCURVE",
"94 -10 OFFCURVE",
"159 -10 CURVE SMOOTH"
);
},
{
closed = 1;
nodes = (
"134 65 OFFCURVE",
"110 90 OFFCURVE",
"110 147 CURVE SMOOTH",
"110 210 OFFCURVE",
"139 242 OFFCURVE",
"167 242 CURVE SMOOTH",
"201 242 OFFCURVE",
"219 201 OFFCURVE",
"219 159 CURVE SMOOTH",
"219 99 OFFCURVE",
"187 65 OFFCURVE",
"158 65 CURVE SMOOTH"
);
},
{
closed = 1;
nodes = (
"494 -10 OFFCURVE",
"554 49 OFFCURVE",
"571 165 CURVE",
"486 165 LINE",
"486 99 OFFCURVE",
"457 65 OFFCURVE",
"424 65 CURVE SMOOTH",
"385 65 OFFCURVE",
"354 111 OFFCURVE",
"354 181 CURVE",
"339 256 LINE",
"339 321 LINE",
"354 396 LINE",
"362 452 OFFCURVE",
"392 480 OFFCURVE",
"422 480 CURVE SMOOTH",
"452 480 OFFCURVE",
"484 452 OFFCURVE",
"486 396 CURVE",
"501 321 LINE",
"575 289 LINE",
"575 331 LINE SMOOTH",
"575 454 OFFCURVE",
"505 551 OFFCURVE",
"422 550 CURVE SMOOTH",
"363 549 OFFCURVE",
"316 498 OFFCURVE",
"316 395 CURVE",
"286 395 LINE",
"286 145 LINE",
"316 145 LINE",
"316 37 OFFCURVE",
"362 -10 OFFCURVE",
"424 -10 CURVE SMOOTH"
);
},
{
closed = 1;
nodes = (
"575 256 LINE",
"575 321 LINE",
"339 321 LINE",
"339 256 LINE"
);
}
);
width = 600;
}
);
unicode = 00E6;
},
{
color = 4;
glyphname = b;
lastChange = "2022-04-19 08:20:07 +0000";
layers = (
{
guideLines = (
{
position = "{288, 395}";
},
{
position = "{316, 145}";
},
{
position = "{510, 770}";
}
);
layerId = "4C71D2F8-8800-4A35-9F40-3E8E498F68F0";
paths = (
{
closed = 1;
nodes = (
"441 -10 OFFCURVE",
"525 77 OFFCURVE",
"525 270 CURVE SMOOTH",
"525 482 OFFCURVE",
"451 557 OFFCURVE",
"340 557 CURVE SMOOTH",
"257 557 OFFCURVE",
"196 515 OFFCURVE",
"170 395 CURVE",
"140 395 LINE",
"190 637 LINE",
"190 770 LINE",
"100 770 LINE",
"100 0 LINE",
"170 0 LINE",
"140 145 LINE",
"170 145 LINE",
"196 26 OFFCURVE",
"275 -10 OFFCURVE",
"340 -10 CURVE SMOOTH"
);
},
{
closed = 1;
nodes = (
"254 61 OFFCURVE",
"190 127 OFFCURVE",
"190 270 CURVE SMOOTH",
"190 413 OFFCURVE",
"254 486 OFFCURVE",
"323 486 CURVE SMOOTH",
"385 486 OFFCURVE",
"434 428 OFFCURVE",
"435 270 CURVE SMOOTH",
"436 107 OFFCURVE",
"381 61 OFFCURVE",
"323 61 CURVE SMOOTH"
);
}
);
width = 600;
}
);
unicode = 0062;
},
{
color = 4;
glyphname = c;
lastChange = "2022-04-19 08:20:07 +0000";
layers = (
{
anchors = (
{
name = bottom;
position = "{315, -10}";
},
{
name = top;
position = "{315, 550}";
}
);
guideLines = (
{
position = "{310, 325}";
}
);
layerId = "4C71D2F8-8800-4A35-9F40-3E8E498F68F0";
paths = (
{
closed = 1;
nodes = (
"177 269 LINE",
"177 404 OFFCURVE",
"232 480 OFFCURVE",
"315 480 CURVE",
"315 550 LINE",
"182 550 OFFCURVE",
"85 454 OFFCURVE",
"85 269 CURVE"
);
},
{
closed = 1;
nodes = (
"315 65 LINE",
"232 65 OFFCURVE",
"176 133 OFFCURVE",
"177 269 CURVE",
"85 269 LINE",
"85 84 OFFCURVE",
"182 -10 OFFCURVE",
"315 -10 CURVE"
);
},
{
closed = 1;
nodes = (
"439 -10 OFFCURVE",
"525 71 OFFCURVE",
"525 215 CURVE",
"435 215 LINE",
"435 122 OFFCURVE",
"394 65 OFFCURVE",
"315 65 CURVE",
"315 -10 LINE"
);
},
{
closed = 1;
nodes = (
"523 340 LINE",
"523 462 OFFCURVE",
"443 550 OFFCURVE",
"315 550 CURVE",
"315 480 LINE",
"394 480 OFFCURVE",
"433 411 OFFCURVE",
"433 340 CURVE"
);
}
);
width = 600;
}
);
unicode = 0063;
},
{
color = 4;
glyphname = d;
lastChange = "2022-04-19 08:20:07 +0000";
layers = (
{
anchors = (
{
name = bottom;
position = "{270, -17}";
},
{
name = center;
position = "{300, 270}";
},
{
name = top;
position = "{465, 770}";
},
{
name = topright;
position = "{570, 570}";
}
);
layerId = "4C71D2F8-8800-4A35-9F40-3E8E498F68F0";
paths = (
{
closed = 1;
nodes = (
"353 -17 OFFCURVE",
"414 25 OFFCURVE",
"440 145 CURVE",
"470 145 LINE",
"440 0 LINE",
"510 0 LINE",
"510 770 LINE",
"420 770 LINE",
"420 637 LINE",
"470 395 LINE",
"440 395 LINE",
"414 514 OFFCURVE",
"335 550 OFFCURVE",
"270 550 CURVE SMOOTH",
"169 550 OFFCURVE",
"85 463 OFFCURVE",
"85 270 CURVE SMOOTH",
"85 58 OFFCURVE",
"159 -17 OFFCURVE",
"270 -17 CURVE SMOOTH"
);
},
{
closed = 1;
nodes = (
"225 54 OFFCURVE",
"176 112 OFFCURVE",
"175 270 CURVE SMOOTH",
"174 433 OFFCURVE",
"229 479 OFFCURVE",
"287 479 CURVE SMOOTH",
"356 479 OFFCURVE",
"420 413 OFFCURVE",
"420 270 CURVE SMOOTH",
"420 127 OFFCURVE",
"356 54 OFFCURVE",
"287 54 CURVE SMOOTH"
);
}
);
width = 600;
}
);
unicode = 0064;
},
{
color = 4;
glyphname = eth;
lastChange = "2022-04-19 08:20:07 +0000";
layers = (
{
guideLines = (
{
angle = 90;
position = "{525, 440}";
}
);
layerId = "4C71D2F8-8800-4A35-9F40-3E8E498F68F0";
paths = (
{
closed = 1;
nodes = (
"423 -10 OFFCURVE",
"525 104 OFFCURVE",
"525 269 CURVE SMOOTH",
"525 430 OFFCURVE",
"427 638 OFFCURVE",
"302 717 CURVE",
"194 700 LINE",
"308 632 OFFCURVE",
"422 523 OFFCURVE",
"460 402 CURVE",
"430 402 LINE",
"389 464 OFFCURVE",
"333 492 OFFCURVE",
"271 492 CURVE SMOOTH",
"172 492 OFFCURVE",
"75 396 OFFCURVE",
"75 249 CURVE SMOOTH",
"75 84 OFFCURVE",
"177 -10 OFFCURVE",
"300 -10 CURVE SMOOTH"
);
},
{
closed = 1;
nodes = (
"227 65 OFFCURVE",
"167 133 OFFCURVE",
"167 249 CURVE SMOOTH",
"167 364 OFFCURVE",
"227 420 OFFCURVE",
"300 420 CURVE SMOOTH",
"373 420 OFFCURVE",
"433 364 OFFCURVE",
"433 249 CURVE SMOOTH",
"433 133 OFFCURVE",
"373 65 OFFCURVE",
"300 65 CURVE SMOOTH"
);
},
{
closed = 1;
nodes = (
"294 554 LINE",
"358 568 LINE",
"430 571 LINE",
"486 564 LINE",
"516 565 LINE",
"506 635 LINE",
"461 633 LINE",
"396 625 LINE",
"304 622 LINE",
"245 622 LINE",
"76 615 LINE",
"86 545 LINE"
);
}
);
width = 600;
},
{
associatedMasterId = "4C71D2F8-8800-4A35-9F40-3E8E498F68F0";
layerId = "E45B2310-18C0-4CF6-93C5-533F7599E80C";
name = "Jun 24 21, 10:00";
paths = (
{
closed = 1;
nodes = (
"423 -10 OFFCURVE",
"525 74 OFFCURVE",
"525 249 CURVE SMOOTH",
"525 424 OFFCURVE",
"423 510 OFFCURVE",
"300 510 CURVE SMOOTH",
"177 510 OFFCURVE",
"75 424 OFFCURVE",
"75 249 CURVE SMOOTH",
"75 74 OFFCURVE",
"177 -10 OFFCURVE",
"300 -10 CURVE SMOOTH"
);
},
{
closed = 1;
nodes = (
"227 65 OFFCURVE",
"167 123 OFFCURVE",
"167 249 CURVE SMOOTH",
"167 374 OFFCURVE",
"227 440 OFFCURVE",
"300 440 CURVE SMOOTH",
"373 440 OFFCURVE",
"433 374 OFFCURVE",
"433 249 CURVE SMOOTH",
"433 123 OFFCURVE",
"373 65 OFFCURVE",
"300 65 CURVE SMOOTH"
);
},
{
closed = 1;
nodes = (
"525 249 LINE",
"525 453 OFFCURVE",
"452 641 OFFCURVE",
"161 748 CURVE",
"161 652 LINE",
"387 575 OFFCURVE",
"460 421 OFFCURVE",
"480 249 CURVE"
);
}
);
width = 600;
},
{
associatedMasterId = "4C71D2F8-8800-4A35-9F40-3E8E498F68F0";
layerId = "44E5C7CA-5D74-405F-8C9B-739F066AD201";
name = "Jun 24 21, 10:02";
paths = (
{
closed = 1;
nodes = (
"423 -10 OFFCURVE",
"525 74 OFFCURVE",
"525 249 CURVE",
"410 442 LINE",
"373 498 OFFCURVE",
"321 510 OFFCURVE",
"300 510 CURVE SMOOTH",
"177 510 OFFCURVE",
"75 424 OFFCURVE",
"75 249 CURVE SMOOTH",
"75 74 OFFCURVE",
"177 -10 OFFCURVE",
"300 -10 CURVE SMOOTH"
);
},
{
closed = 1;
nodes = (
"227 65 OFFCURVE",
"167 123 OFFCURVE",
"167 249 CURVE SMOOTH",
"167 374 OFFCURVE",
"227 440 OFFCURVE",
"300 440 CURVE SMOOTH",
"373 440 OFFCURVE",
"433 374 OFFCURVE",
"433 249 CURVE SMOOTH",
"433 123 OFFCURVE",
"373 65 OFFCURVE",
"300 65 CURVE SMOOTH"
);
},
{
closed = 1;
nodes = (
"525 249 LINE",
"525 515 OFFCURVE",
"365 695 OFFCURVE",
"161 748 CURVE",
"161 648 LINE",
"266 622 OFFCURVE",
"371 554 OFFCURVE",
"428 467 CURVE",
"410 442 LINE",
"480 249 LINE"
);
}
);
width = 600;
},
{
associatedMasterId = "4C71D2F8-8800-4A35-9F40-3E8E498F68F0";
layerId = "108EAD6F-E52C-454A-8886-3FD6F2396497";
name = "Jun 24 21, 10:02";
paths = (
{
closed = 1;
nodes = (
"423 -10 OFFCURVE",
"525 74 OFFCURVE",
"525 249 CURVE",
"410 442 LINE",
"379 489 OFFCURVE",
"337 510 OFFCURVE",
"287 510 CURVE SMOOTH",
"153 510 OFFCURVE",
"75 399 OFFCURVE",
"75 249 CURVE SMOOTH",
"75 74 OFFCURVE",
"177 -10 OFFCURVE",
"300 -10 CURVE SMOOTH"
);
},
{
closed = 1;
nodes = (
"227 65 OFFCURVE",
"167 123 OFFCURVE",
"167 249 CURVE SMOOTH",
"167 374 OFFCURVE",
"227 440 OFFCURVE",
"300 440 CURVE SMOOTH",
"373 440 OFFCURVE",
"433 374 OFFCURVE",
"433 249 CURVE SMOOTH",
"433 123 OFFCURVE",
"373 65 OFFCURVE",
"300 65 CURVE SMOOTH"
);
},
{
closed = 1;
nodes = (
"525 249 LINE",
"525 527 OFFCURVE",
"350 711 OFFCURVE",
"133 754 CURVE",
"161 793 LINE",
"161 648 LINE",
"266 622 OFFCURVE",
"351 574 OFFCURVE",
"428 467 CURVE",
"410 442 LINE",
"480 249 LINE"
);
},
{
closed = 1;
nodes = (
"138 471 LINE",
"520 691 LINE",
"485 751 LINE",
"103 531 LINE"
);
}
);
width = 600;
},
{
associatedMasterId = "4C71D2F8-8800-4A35-9F40-3E8E498F68F0";
layerId = "9B9A9D3B-C619-42FE-9F99-4D7A8A01086E";
name = "Jun 24 21, 10:08";
paths = (
{
closed = 1;
nodes = (
"423 -10 OFFCURVE",
"525 74 OFFCURVE",
"525 249 CURVE",
"410 442 LINE",
"379 489 OFFCURVE",
"337 510 OFFCURVE",
"287 510 CURVE SMOOTH",
"153 510 OFFCURVE",
"75 399 OFFCURVE",
"75 249 CURVE SMOOTH",
"75 74 OFFCURVE",
"177 -10 OFFCURVE",
"300 -10 CURVE SMOOTH"
);
},
{
closed = 1;
nodes = (
"227 65 OFFCURVE",
"167 123 OFFCURVE",
"167 249 CURVE SMOOTH",
"167 374 OFFCURVE",
"227 440 OFFCURVE",
"300 440 CURVE SMOOTH",
"373 440 OFFCURVE",
"433 374 OFFCURVE",
"433 249 CURVE SMOOTH",
"433 123 OFFCURVE",
"373 65 OFFCURVE",
"300 65 CURVE SMOOTH"
);
},
{
closed = 1;
nodes = (
"525 249 LINE",
"525 515 OFFCURVE",
"365 695 OFFCURVE",
"161 748 CURVE",
"161 648 LINE",
"266 622 OFFCURVE",
"351 574 OFFCURVE",
"428 467 CURVE",
"410 442 LINE",
"480 249 LINE"
);
},
{
closed = 1;
nodes = (
"138 471 LINE",
"520 691 LINE",
"485 751 LINE",
"103 531 LINE"
);
}
);
width = 600;
},
{
associatedMasterId = "4C71D2F8-8800-4A35-9F40-3E8E498F68F0";
layerId = "D8CCC68A-BD5F-43C1-8A56-DE37BA8890D2";
name = "Jun 24 21, 10:13";
paths = (
{
closed = 1;
nodes = (
"423 -10 OFFCURVE",
"525 74 OFFCURVE",
"525 249 CURVE",
"400 442 LINE",
"369 489 OFFCURVE",
"337 510 OFFCURVE",
"287 510 CURVE SMOOTH",
"153 510 OFFCURVE",
"75 399 OFFCURVE",
"75 249 CURVE SMOOTH",
"75 74 OFFCURVE",
"177 -10 OFFCURVE",
"300 -10 CURVE SMOOTH"
);
},
{
closed = 1;
nodes = (
"227 65 OFFCURVE",
"167 123 OFFCURVE",
"167 249 CURVE SMOOTH",
"167 374 OFFCURVE",
"227 440 OFFCURVE",
"300 440 CURVE SMOOTH",
"373 440 OFFCURVE",
"433 374 OFFCURVE",
"433 249 CURVE SMOOTH",
"433 123 OFFCURVE",
"373 65 OFFCURVE",
"300 65 CURVE SMOOTH"
);
},
{
closed = 1;
nodes = (
"525 249 LINE",
"525 421 OFFCURVE",
"442 590 OFFCURVE",
"328 701 CURVE",
"178 699 LINE",
"255 662 OFFCURVE",
"337 586 OFFCURVE",
"418 467 CURVE",
"400 442 LINE",
"480 249 LINE"
);
},
{
closed = 1;
nodes = (
"194 540 LINE",
"350 602 LINE",
"382 610 LINE",
"524 628 LINE",
"506 695 LINE",
"374 639 LINE",
"343 631 LINE",
"176 607 LINE"
);
}
);
width = 600;
},
{
associatedMasterId = "4C71D2F8-8800-4A35-9F40-3E8E498F68F0";
guideLines = (
{
angle = 90;
position = "{524, 440}";
}
);
layerId = "28706015-5865-4964-91A1-20B9533D2292";
name = "Jul 2 21, 16:35";
paths = (
{
closed = 1;
nodes = (
"423 -10 OFFCURVE",
"525 84 OFFCURVE",
"525 249 CURVE",
"400 422 LINE",
"369 469 OFFCURVE",
"337 490 OFFCURVE",
"287 490 CURVE SMOOTH",
"153 490 OFFCURVE",
"75 389 OFFCURVE",
"75 249 CURVE SMOOTH",
"75 84 OFFCURVE",
"177 -10 OFFCURVE",
"300 -10 CURVE SMOOTH"
);
},
{
closed = 1;
nodes = (
"227 65 OFFCURVE",
"167 133 OFFCURVE",
"167 249 CURVE SMOOTH",
"167 364 OFFCURVE",
"227 420 OFFCURVE",
"300 420 CURVE SMOOTH",
"373 420 OFFCURVE",
"433 364 OFFCURVE",
"433 249 CURVE SMOOTH",
"433 133 OFFCURVE",
"373 65 OFFCURVE",
"300 65 CURVE SMOOTH"
);
},
{
closed = 1;
nodes = (
"525 249 LINE",
"525 401 OFFCURVE",
"442 570 OFFCURVE",
"328 701 CURVE",
"199 699 LINE",
"293 631 OFFCURVE",
"345 568 OFFCURVE",
"418 447 CURVE",
"400 422 LINE",
"480 249 LINE"
);
},
{
closed = 1;
nodes = (
"100 540 LINE",
"284 540 LINE",
"325 546 LINE",
"415 546 LINE",
"470 540 LINE",
"530 540 LINE",
"530 610 LINE",
"455 610 LINE",
"400 604 LINE",
"310 604 LINE",
"269 610 LINE",
"100 610 LINE"
);
}
);
width = 600;
},
{
associatedMasterId = "4C71D2F8-8800-4A35-9F40-3E8E498F68F0";
guideLines = (
{
angle = 90;
position = "{524, 440}";
}
);
layerId = "9ABAF1E8-3E90-48F5-B603-6F6F500AC0CD";
name = "Jul 2 21, 16:38";
paths = (
{
closed = 1;
nodes = (
"100 540 LINE",
"328 540 LINE",
"369 546 LINE",
"439 546 LINE",
"494 540 LINE",
"530 540 LINE",
"530 610 LINE",
"454 610 LINE",
"399 604 LINE",
"329 604 LINE",
"288 610 LINE",
"100 610 LINE"
);
},
{
closed = 1;
nodes = (
"75 84 OFFCURVE",
"177 -10 OFFCURVE",
"300 -10 CURVE SMOOTH",
"423 -10 OFFCURVE",
"525 84 OFFCURVE",
"525 249 CURVE SMOOTH",
"525 401 OFFCURVE",
"442 570 OFFCURVE",
"328 701 CURVE",
"199 699 LINE",
"313 631 OFFCURVE",
"397 523 OFFCURVE",
"460 402 CURVE",
"430 402 LINE",
"389 464 OFFCURVE",
"325 492 OFFCURVE",
"271 492 CURVE SMOOTH",
"172 492 OFFCURVE",
"75 396 OFFCURVE",
"75 249 CURVE SMOOTH"
);
},
{
closed = 1;
nodes = (
"167 364 OFFCURVE",
"227 420 OFFCURVE",
"300 420 CURVE SMOOTH",
"373 420 OFFCURVE",
"433 364 OFFCURVE",
"433 249 CURVE SMOOTH",
"433 133 OFFCURVE",
"373 65 OFFCURVE",
"300 65 CURVE SMOOTH",
"227 65 OFFCURVE",
"167 133 OFFCURVE",
"167 249 CURVE SMOOTH"
);
}
);
width = 600;
},
{
associatedMasterId = "4C71D2F8-8800-4A35-9F40-3E8E498F68F0";
guideLines = (
{
angle = 90;
position = "{525, 440}";
}
);
layerId = "80278226-F6E2-4BF2-AAD6-D9AA62356395";
name = "Sep 13 21, 09:41";
paths = (
{
closed = 1;
nodes = (
"86 545 LINE",
"294 554 LINE",
"358 568 LINE",
"430 571 LINE",
"486 564 LINE",
"516 565 LINE",
"506 635 LINE",
"461 633 LINE",
"396 625 LINE",
"304 622 LINE",
"245 622 LINE",
"76 615 LINE"
);
},
{
closed = 1;
nodes = (
"75 84 OFFCURVE",
"177 -10 OFFCURVE",
"300 -10 CURVE SMOOTH",
"423 -10 OFFCURVE",
"525 104 OFFCURVE",
"525 269 CURVE SMOOTH",
"525 421 OFFCURVE",
"438 613 OFFCURVE",
"323 701 CURVE",
"194 699 LINE",
"308 631 OFFCURVE",
"422 523 OFFCURVE",
"460 402 CURVE",
"430 402 LINE",
"389 464 OFFCURVE",
"333 492 OFFCURVE",
"271 492 CURVE SMOOTH",
"172 492 OFFCURVE",
"75 396 OFFCURVE",
"75 249 CURVE SMOOTH"
);
},
{
closed = 1;
nodes = (
"167 364 OFFCURVE",
"227 420 OFFCURVE",
"300 420 CURVE SMOOTH",
"373 420 OFFCURVE",
"433 364 OFFCURVE",
"433 249 CURVE SMOOTH",
"433 133 OFFCURVE",
"373 65 OFFCURVE",
"300 65 CURVE SMOOTH",
"227 65 OFFCURVE",
"167 133 OFFCURVE",
"167 249 CURVE SMOOTH"
);
}
);
width = 600;
}
);
unicode = 00F0;
},
{
color = 4;
glyphname = dcroat;
lastChange = "2022-04-19 08:20:07 +0000";
layers = (
{
layerId = "4C71D2F8-8800-4A35-9F40-3E8E498F68F0";
paths = (
{
closed = 1;
nodes = (
"353 -17 OFFCURVE",
"414 25 OFFCURVE",
"440 145 CURVE",
"470 145 LINE",
"440 0 LINE",
"510 0 LINE",
"510 800 LINE",
"420 800 LINE",
"420 637 LINE",
"440 540 LINE",
"470 395 LINE",
"440 395 LINE",
"414 514 OFFCURVE",
"335 550 OFFCURVE",
"270 550 CURVE SMOOTH",
"169 550 OFFCURVE",
"85 463 OFFCURVE",
"85 270 CURVE SMOOTH",
"85 58 OFFCURVE",
"159 -17 OFFCURVE",
"270 -17 CURVE SMOOTH"
);
},
{
closed = 1;
nodes = (
"225 54 OFFCURVE",
"176 112 OFFCURVE",
"175 270 CURVE SMOOTH",
"174 433 OFFCURVE",
"229 479 OFFCURVE",
"287 479 CURVE SMOOTH",
"356 479 OFFCURVE",
"420 413 OFFCURVE",
"420 270 CURVE SMOOTH",
"420 127 OFFCURVE",
"356 54 OFFCURVE",
"287 54 CURVE SMOOTH"
);
},
{
closed = 1;
nodes = (
"365 630 LINE",
"420 637 LINE",
"510 637 LINE",
"551 630 LINE",
"565 630 LINE",
"565 700 LINE",
"551 700 LINE",
"510 694 LINE",
"420 694 LINE",
"365 700 LINE",
"135 700 LINE",
"135 630 LINE"
);
}
);
width = 600;
}
);
unicode = 0111;
},
{
color = 4;
glyphname = e;
lastChange = "2022-04-19 08:20:07 +0000";
layers = (
{
associatedMasterId = "4C71D2F8-8800-4A35-9F40-3E8E498F68F0";
layerId = "9AC090D4-1B2C-4192-BB23-3D0E7F12F246";
name = "Jun 2 21, 09:56";
paths = (
{
closed = 1;
nodes = (
"515 322 LINE",
"515 456 OFFCURVE",
"440 550 OFFCURVE",
"320 550 CURVE",
"320 480 LINE",
"402 480 OFFCURVE",
"434 407 OFFCURVE",
"423 280 CURVE"
);
},
{
closed = 1;
nodes = (
"406 97 OFFCURVE",
"383 65 OFFCURVE",
"320 65 CURVE",
"320 -10 LINE",
"426 -10 OFFCURVE",
"491 48 OFFCURVE",
"510 161 CURVE",
"418 161 LINE"
);
},
{
closed = 1;
nodes = (
"95 84 OFFCURVE",
"187 -10 OFFCURVE",
"320 -10 CURVE",
"320 65 LINE",
"242 65 OFFCURVE",
"196 116 OFFCURVE",
"187 222 CURVE",
"140 251 LINE",
"140 312 LINE",
"186 339 LINE",
"194 421 OFFCURVE",
"247 480 OFFCURVE",
"320 480 CURVE",
"320 550 LINE",
"197 550 OFFCURVE",
"95 454 OFFCURVE",
"95 269 CURVE SMOOTH"
);
},
{
closed = 1;
nodes = (
"140 251 LINE",
"515 242 LINE",
"515 322 LINE",
"140 312 LINE"
);
}
);
width = 600;
},
{
anchors = (
{
name = bottom;
position = "{300, 0}";
},
{
name = ogonek;
position = "{540, 10}";
},
{
name = top;
position = "{300, 540}";
}
);
associatedMasterId = "4C71D2F8-8800-4A35-9F40-3E8E498F68F0";
backgroundImage = {
imagePath = index.jpg;
locked = "1";
transform = "{0.53221, 0, 0, 0.53221, 35, -90.676}";
};
layerId = "17977CFF-1449-4005-A988-C7416E218EBB";
name = "Sep 15 21, 09:31";
paths = (
{
closed = 1;
nodes = (
"245 64 OFFCURVE",
"171 157 OFFCURVE",
"174 254 CURVE",
"164 282 LINE",
"487 279 LINE",
"485 431 OFFCURVE",
"429 550 OFFCURVE",
"302 550 CURVE SMOOTH",
"227 550 OFFCURVE",
"84 503 OFFCURVE",
"84 261 CURVE SMOOTH",
"84 120 OFFCURVE",
"175 -11 OFFCURVE",
"300 -11 CURVE SMOOTH",
"404 -11 OFFCURVE",
"478 71 OFFCURVE",
"487 192 CURVE",
"397 192 LINE",
"395 129 OFFCURVE",
"367 64 OFFCURVE",
"300 64 CURVE SMOOTH"
);
},
{
closed = 1;
nodes = (
"226 409 LINE",
"226 473 OFFCURVE",
"268 480 OFFCURVE",
"303 480 CURVE SMOOTH",
"337 480 OFFCURVE",
"391 458 OFFCURVE",
"391 393 CURVE",
"441 329 LINE",
"170 329 LINE"
);
}
);
width = 600;
},
{
anchors = (
{
name = bottom;
position = "{300, 0}";
},
{
name = ogonek;
position = "{540, 10}";
},
{
name = top;
position = "{300, 540}";
}
);
associatedMasterId = "4C71D2F8-8800-4A35-9F40-3E8E498F68F0";
layerId = "377A25C7-2528-45DC-B763-CC09A5BB267C";
name = "Sep 15 21, 09:32";
paths = (
{
closed = 1;
nodes = (
"320 65 LINE",
"242 65 OFFCURVE",
"195 117 OFFCURVE",
"186 224 CURVE",
"156 253 LINE",
"156 312 LINE",
"186 339 LINE",
"194 421 OFFCURVE",
"247 480 OFFCURVE",
"320 480 CURVE",
"320 550 LINE",
"197 550 OFFCURVE",
"95 454 OFFCURVE",
"95 269 CURVE SMOOTH",
"95 84 OFFCURVE",
"187 -10 OFFCURVE",
"320 -10 CURVE"
);
},
{
closed = 1;
nodes = (
"426 -10 OFFCURVE",
"491 48 OFFCURVE",
"510 161 CURVE",
"418 161 LINE",
"406 97 OFFCURVE",
"383 65 OFFCURVE",
"320 65 CURVE",
"320 -10 LINE"
);
},
{
closed = 1;
nodes = (
"515 247 LINE",
"515 312 LINE",
"156 312 LINE",
"156 253 LINE",
"306 247 LINE"
);
},
{
closed = 1;
nodes = (
"515 280 LINE",
"515 322 LINE SMOOTH",
"515 456 OFFCURVE",
"440 550 OFFCURVE",
"320 550 CURVE",
"320 480 LINE",
"402 480 OFFCURVE",
"434 407 OFFCURVE",
"423 280 CURVE"
);
}
);
width = 600;
},
{
anchors = (
{
name = bottom;
position = "{300, 0}";
},
{
name = ogonek;
position = "{540, 10}";
},
{
name = top;
position = "{300, 540}";
}
);
associatedMasterId = "4C71D2F8-8800-4A35-9F40-3E8E498F68F0";
backgroundImage = {
imagePath = index.jpg;
locked = "1";
transform = "{0.53221, 0, 0, 0.53221, 35, -90.676}";
};
layerId = "85A445D6-0615-4DA0-8B9E-FE3B88770869";
name = "Sep 15 21, 09:32";
paths = (
{
closed = 1;
nodes = (
"245 64 OFFCURVE",
"171 157 OFFCURVE",
"174 254 CURVE",
"164 282 LINE",
"487 279 LINE",
"485 431 OFFCURVE",
"429 550 OFFCURVE",
"302 550 CURVE SMOOTH",
"227 550 OFFCURVE",
"84 503 OFFCURVE",
"84 261 CURVE SMOOTH",
"84 120 OFFCURVE",
"175 -11 OFFCURVE",
"300 -11 CURVE SMOOTH",
"404 -11 OFFCURVE",
"478 71 OFFCURVE",
"487 192 CURVE",
"397 192 LINE",
"395 129 OFFCURVE",
"367 64 OFFCURVE",
"300 64 CURVE SMOOTH"
);
},
{
closed = 1;
nodes = (
"226 409 LINE",
"226 473 OFFCURVE",
"268 480 OFFCURVE",
"303 480 CURVE SMOOTH",
"337 480 OFFCURVE",
"391 458 OFFCURVE",
"391 393 CURVE",
"441 329 LINE",
"170 329 LINE"
);
}
);
width = 600;
},
{
anchors = (
{
name = bottom;
position = "{300, 0}";
},
{
name = ogonek;
position = "{381, 0}";
},
{
name = top;
position = "{300, 540}";
}
);
guideLines = (
{
position = "{510, 256}";
},
{
position = "{48, 550}";
}
);
layerId = "4C71D2F8-8800-4A35-9F40-3E8E498F68F0";
paths = (
{
closed = 1;
nodes = (
"420 -10 OFFCURVE",
"487 49 OFFCURVE",
"505 165 CURVE",
"413 165 LINE",
"405 99 OFFCURVE",
"376 65 OFFCURVE",
"310 65 CURVE SMOOTH",
"232 65 OFFCURVE",
"201 111 OFFCURVE",
"194 181 CURVE",
"169 256 LINE",
"510 256 LINE",
"510 331 LINE SMOOTH",
"510 455 OFFCURVE",
"437 550 OFFCURVE",
"310 550 CURVE SMOOTH",
"182 550 OFFCURVE",
"90 453 OFFCURVE",
"90 268 CURVE SMOOTH",
"90 83 OFFCURVE",
"182 -10 OFFCURVE",
"310 -10 CURVE SMOOTH"
);
},
{
closed = 1;
nodes = (
"194 396 LINE",
"211 449 OFFCURVE",
"252 480 OFFCURVE",
"310 480 CURVE SMOOTH",
"378 480 OFFCURVE",
"404 438 OFFCURVE",
"415 396 CURVE",
"440 321 LINE",
"169 321 LINE"
);
}
);
width = 600;
},
{
anchors = (
{
name = bottom;
position = "{300, 0}";
},
{
name = ogonek;
position = "{540, 10}";
},
{
name = top;
position = "{300, 540}";
}
);
associatedMasterId = "4C71D2F8-8800-4A35-9F40-3E8E498F68F0";
layerId = "63BAD7F6-B3E9-434F-9FAF-DBDE5F522EE3";
name = "Sep 15 21, 09:35";
paths = (
{
closed = 1;
nodes = (
"320 65 LINE",
"242 65 OFFCURVE",
"199 127 OFFCURVE",
"192 234 CURVE",
"156 263 LINE",
"156 322 LINE",
"192 349 LINE",
"202 431 OFFCURVE",
"247 480 OFFCURVE",
"320 480 CURVE",
"320 550 LINE",
"192 550 OFFCURVE",
"95 454 OFFCURVE",
"95 269 CURVE SMOOTH",
"95 84 OFFCURVE",
"192 -10 OFFCURVE",
"320 -10 CURVE"
);
},
{
closed = 1;
nodes = (
"430 -10 OFFCURVE",
"504 61 OFFCURVE",
"514 199 CURVE",
"555 165 LINE",
"373 165 LINE",
"424 202 LINE",
"413 111 OFFCURVE",
"387 65 OFFCURVE",
"320 65 CURVE",
"320 -10 LINE"
);
},
{
closed = 1;
nodes = (
"515 257 LINE",
"515 322 LINE",
"156 322 LINE",
"156 263 LINE",
"236 257 LINE"
);
},
{
closed = 1;
nodes = (
"515 290 LINE",
"515 332 LINE SMOOTH",
"515 466 OFFCURVE",
"440 550 OFFCURVE",
"320 550 CURVE",
"320 480 LINE",
"402 480 OFFCURVE",
"423 417 OFFCURVE",
"423 290 CURVE"
);
}
);
width = 600;
},
{
anchors = (
{
name = bottom;
position = "{300, 0}";
},
{
name = ogonek;
position = "{540, 10}";
},
{
name = top;
position = "{300, 540}";
}
);
associatedMasterId = "4C71D2F8-8800-4A35-9F40-3E8E498F68F0";
layerId = "7F6EBE65-24AD-4F79-99F3-4717DAA1EE82";
name = "Sep 15 21, 09:37";
paths = (
{
closed = 1;
nodes = (
"305 65 LINE",
"227 65 OFFCURVE",
"192 127 OFFCURVE",
"185 234 CURVE",
"149 257 LINE",
"149 322 LINE",
"185 349 LINE",
"195 431 OFFCURVE",
"232 480 OFFCURVE",
"305 480 CURVE",
"305 550 LINE",
"177 550 OFFCURVE",
"90 454 OFFCURVE",
"90 269 CURVE SMOOTH",
"90 84 OFFCURVE",
"177 -10 OFFCURVE",
"305 -10 CURVE"
);
},
{
closed = 1;
nodes = (
"425 -10 OFFCURVE",
"499 61 OFFCURVE",
"509 199 CURVE",
"550 165 LINE",
"368 165 LINE",
"419 202 LINE",
"419 111 OFFCURVE",
"382 65 OFFCURVE",
"305 65 CURVE",
"305 -10 LINE"
);
},
{
closed = 1;
nodes = (
"510 257 LINE",
"510 322 LINE",
"149 322 LINE",
"149 257 LINE"
);
},
{
closed = 1;
nodes = (
"510 290 LINE",
"510 332 LINE SMOOTH",
"510 466 OFFCURVE",
"435 550 OFFCURVE",
"305 550 CURVE",
"305 480 LINE",
"387 480 OFFCURVE",
"418 417 OFFCURVE",
"418 290 CURVE"
);
}
);
width = 600;
},
{
anchors = (
{
name = bottom;
position = "{300, 0}";
},
{
name = ogonek;
position = "{540, 10}";
},
{
name = top;
position = "{300, 540}";
}
);
associatedMasterId = "4C71D2F8-8800-4A35-9F40-3E8E498F68F0";
guideLines = (
{
position = "{185, 349}";
}
);
layerId = "92966D7C-5757-4E88-B581-BBE1B024B25C";
name = "Sep 15 21, 09:47";
paths = (
{
closed = 1;
nodes = (
"305 65 LINE",
"227 65 OFFCURVE",
"192 120 OFFCURVE",
"185 227 CURVE",
"135 257 LINE",
"135 322 LINE",
"185 352 LINE",
"195 434 OFFCURVE",
"232 480 OFFCURVE",
"305 480 CURVE",
"305 550 LINE",
"177 550 OFFCURVE",
"90 454 OFFCURVE",
"90 269 CURVE SMOOTH",
"90 84 OFFCURVE",
"177 -10 OFFCURVE",
"305 -10 CURVE"
);
},
{
closed = 1;
nodes = (
"425 -10 OFFCURVE",
"499 61 OFFCURVE",
"509 199 CURVE",
"550 165 LINE",
"368 165 LINE",
"419 202 LINE",
"419 111 OFFCURVE",
"382 65 OFFCURVE",
"305 65 CURVE",
"305 -10 LINE"
);
},
{
closed = 1;
nodes = (
"510 257 LINE",
"510 322 LINE",
"135 322 LINE",
"135 257 LINE"
);
},
{
closed = 1;
nodes = (
"510 290 LINE",
"510 332 LINE SMOOTH",
"510 466 OFFCURVE",
"425 550 OFFCURVE",
"305 550 CURVE",
"305 480 LINE",
"373 480 OFFCURVE",
"406 440 OFFCURVE",
"415 352 CURVE",
"465 322 LINE"
);
}
);
width = 600;
},
{
anchors = (
{
name = bottom;
position = "{300, 0}";
},
{
name = ogonek;
position = "{540, 10}";
},
{
name = top;
position = "{300, 540}";
}
);
associatedMasterId = "4C71D2F8-8800-4A35-9F40-3E8E498F68F0";
guideLines = (
{
position = "{174, 266}";
}
);
layerId = "210EB8B3-7E55-4F1A-B48D-90628B967382";
name = "Sep 15 21, 09:55";
paths = (
{
closed = 1;
nodes = (
"310 65 LINE",
"232 65 OFFCURVE",
"201 121 OFFCURVE",
"194 191 CURVE",
"169 266 LINE",
"169 331 LINE",
"194 406 LINE",
"211 449 OFFCURVE",
"252 480 OFFCURVE",
"310 480 CURVE",
"310 550 LINE",
"182 550 OFFCURVE",
"90 453 OFFCURVE",
"90 268 CURVE SMOOTH",
"90 83 OFFCURVE",
"182 -10 OFFCURVE",
"310 -10 CURVE"
);
},
{
closed = 1;
nodes = (
"430 -10 OFFCURVE",
"499 61 OFFCURVE",
"509 199 CURVE",
"550 175 LINE",
"368 175 LINE",
"419 202 LINE",
"419 111 OFFCURVE",
"387 65 OFFCURVE",
"310 65 CURVE",
"310 -10 LINE"
);
},
{
closed = 1;
nodes = (
"510 266 LINE",
"510 331 LINE",
"169 331 LINE",
"169 266 LINE"
);
},
{
closed = 1;
nodes = (
"510 299 LINE",
"510 341 LINE SMOOTH",
"510 465 OFFCURVE",
"430 550 OFFCURVE",
"310 550 CURVE",
"310 480 LINE",
"378 480 OFFCURVE",
"404 438 OFFCURVE",
"415 406 CURVE",
"440 331 LINE"
);
}
);
width = 600;
}
);
unicode = 0065;
},
{
color = 4;
glyphname = f;
lastChange = "2022-04-19 08:20:07 +0000";
layers = (
{
guideLines = (
{
angle = 90;
position = "{190, 350}";
}
);
layerId = "4C71D2F8-8800-4A35-9F40-3E8E498F68F0";
paths = (
{
closed = 1;
nodes = (
"80 490 LINE",
"80 420 LINE",
"196 420 LINE",
"190 315 LINE",
"190 0 LINE",
"280 0 LINE",
"280 315 LINE",
"274 420 LINE",
"515 420 LINE",
"515 490 LINE",
"274 490 LINE",
"254 519 OFFCURVE",
"243 556 OFFCURVE",
"243 591 CURVE SMOOTH",
"243 667 OFFCURVE",
"295 708 OFFCURVE",
"343 708 CURVE SMOOTH",
"385 708 OFFCURVE",
"425 677 OFFCURVE",
"425 610 CURVE",
"515 610 LINE",
"515 723 OFFCURVE",
"427 778 OFFCURVE",
"339 778 CURVE SMOOTH",
"252 778 OFFCURVE",
"165 722 OFFCURVE",
"165 610 CURVE SMOOTH",
"165 571 OFFCURVE",
"175 531 OFFCURVE",
"196 490 CURVE"
);
}
);
width = 600;
},
{
associatedMasterId = "4C71D2F8-8800-4A35-9F40-3E8E498F68F0";
guideLines = (
{
angle = 90;
position = "{190, 350}";
}
);
layerId = "5563F48A-992C-49A2-A29E-E67D4624F93B";
name = "May 31 21, 17:15";
paths = (
{
closed = 1;
nodes = (
"80 440 LINE",
"520 440 LINE",
"520 510 LINE",
"80 510 LINE"
);
},
{
closed = 1;
nodes = (
"196 440 LINE",
"190 335 LINE",
"190 0 LINE",
"280 0 LINE",
"280 335 LINE",
"274 440 LINE",
"274 481 LINE",
"196 481 LINE"
);
},
{
closed = 1;
nodes = (
"279 710 OFFCURVE",
"190 646 OFFCURVE",
"190 552 CURVE SMOOTH",
"190 539 OFFCURVE",
"192 525 OFFCURVE",
"196 510 CURVE",
"274 510 LINE",
"272 527 OFFCURVE",
"272 542 OFFCURVE",
"275 556 CURVE SMOOTH",
"284 610 OFFCURVE",
"322 636 OFFCURVE",
"354 635 CURVE",
"354 710 LINE"
);
},
{
closed = 1;
nodes = (
"511 655 OFFCURVE",
"446 709 OFFCURVE",
"372 709 CURVE",
"342 635 LINE",
"394 635 OFFCURVE",
"423 598 OFFCURVE",
"423 550 CURVE",
"511 565 LINE"
);
}
);
width = 600;
},
{
associatedMasterId = "4C71D2F8-8800-4A35-9F40-3E8E498F68F0";
guideLines = (
{
angle = 90;
position = "{190, 350}";
}
);
layerId = "E6E1B0A5-4918-492E-A4C7-098C42AE1841";
name = "May 31 21, 17:16";
paths = (
{
closed = 1;
nodes = (
"80 440 LINE",
"520 440 LINE",
"520 510 LINE",
"80 510 LINE"
);
},
{
closed = 1;
nodes = (
"196 440 LINE",
"190 335 LINE",
"190 0 LINE",
"280 0 LINE",
"280 335 LINE",
"274 440 LINE",
"274 481 LINE",
"196 481 LINE"
);
},
{
closed = 1;
nodes = (
"190 539 OFFCURVE",
"192 525 OFFCURVE",
"196 510 CURVE",
"274 510 LINE",
"257 574 OFFCURVE",
"290 640 OFFCURVE",
"356 640 CURVE SMOOTH",
"391 640 OFFCURVE",
"423 608 OFFCURVE",
"423 550 CURVE",
"511 565 LINE",
"511 662 OFFCURVE",
"436 710 OFFCURVE",
"359 710 CURVE SMOOTH",
"276 710 OFFCURVE",
"190 655 OFFCURVE",
"190 552 CURVE SMOOTH"
);
}
);
width = 600;
},
{
associatedMasterId = "4C71D2F8-8800-4A35-9F40-3E8E498F68F0";
guideLines = (
{
angle = 90;
position = "{190, 350}";
}
);
layerId = "063E079C-1D8A-45FA-B14C-AF3683DE51BC";
name = "Jun 1 21, 09:54";
paths = (
{
closed = 1;
nodes = (
"80 470 LINE",
"515 470 LINE",
"515 540 LINE",
"80 540 LINE"
);
},
{
closed = 1;
nodes = (
"196 470 LINE",
"190 365 LINE",
"190 0 LINE",
"280 0 LINE",
"280 365 LINE",
"274 470 LINE",
"274 511 LINE",
"196 511 LINE"
);
},
{
closed = 1;
nodes = (
"428 778 OFFCURVE",
"346 778 CURVE SMOOTH",
"263 778 OFFCURVE",
"180 724 OFFCURVE",
"180 623 CURVE SMOOTH",
"180 598 OFFCURVE",
"185 570 OFFCURVE",
"196 540 CURVE",
"274 540 LINE",
"230 644 OFFCURVE",
"290 708 OFFCURVE",
"347 708 CURVE SMOOTH",
"386 708 OFFCURVE",
"425 677 OFFCURVE",
"425 610 CURVE",
"515 610 LINE",
"515 724 OFFCURVE"
);
}
);
width = 600;
}
);
unicode = 0066;
},
